<?xml version="1.0" encoding="utf-8"?>
<!-- Generator: Adobe Illustrator 22.1.0, SVG Export Plug-In . SVG Version: 6.00 Build 0)  -->
<svg version="1.1" id="Layer_1" xmlns="http://www.w3.org/2000/svg" xmlns:xlink="http://www.w3.org/1999/xlink" x="0px" y="0px"
	 viewBox="0 0 274.1 238" style="enable-background:new 0 0 274.1 238;" xml:space="preserve">
<style type="text/css">
	.st0{fill:#FF6B00;}
	.st1{fill:#FFC201;}
	.st2{clip-path:url(#SVGID_2_);}
	.st3{fill:#FFFFFF;}
	.st4{fill:#FFDA8B;}
	.st5{fill:#FF8400;}
</style>
<title>icon-skylab</title>
<g id="Layer_2_1_">
	<g id="Layer_1-2">
		<circle class="st0" cx="139.5" cy="118.5" r="118.5"/>
		<circle class="st1" cx="232.1" cy="50" r="42"/>
		<g>
			<defs>
				<circle id="SVGID_1_" cx="139.5" cy="118.5" r="118.5"/>
			</defs>
			<clipPath id="SVGID_2_">
				<use xlink:href="#SVGID_1_"  style="overflow:visible;"/>
			</clipPath>
			<g class="st2">
				<path class="st3" d="M215.1,274.5c-5.5,0-10.5-3.4-12.6-8.5L121,60.3L53.6,227.1c-3.1,6.8-11.1,9.7-17.9,6.6
					c-6.3-2.9-9.4-10.2-7.1-16.7l71.8-177.8c3.4-8.4,11.5-13.9,20.6-13.9h0.1c9.1,0,17.3,5.5,20.6,14l86,216.7
					c2.8,6.9-0.6,14.8-7.6,17.5C218.5,274.1,216.8,274.5,215.1,274.5L215.1,274.5z"/>
				<path class="st4" d="M205.6,313c-5.6,0-10.6-3.4-12.6-8.7l-73.5-191.5L57.1,267.5c-2.4,7-10.1,10.8-17.2,8.4
					s-10.8-10.1-8.4-17.2c0.2-0.4,0.3-0.9,0.5-1.3L105,76.8c0.4-1.1,0.7-2,0.9-2.9s0.5-1.8,0.8-2.6c1.9-5.5,7-9.2,12.8-9.3h0.2
					c5.8,0,11,3.7,13,9.2c0.4,0.9,0.7,1.8,1.1,3c0.2,0.5,0.3,1,0.5,1.7l83.9,218.7c2.7,7-0.8,14.8-7.8,17.5
					C208.9,312.7,207.3,313,205.6,313z"/>
			</g>
		</g>
		<path class="st5" d="M253.5,86.1C245.6,58.5,228,34.6,203.8,19c-17.1,15.6-18.4,42.2-2.7,59.3C214.5,93,236.4,96.3,253.5,86.1
			L253.5,86.1z"/>
	</g>
</g>
</svg>
