<?xml version="1.0" encoding="utf-8"?>
<!-- Generator: Adobe Illustrator 22.1.0, SVG Export Plug-In . SVG Version: 6.00 Build 0)  -->
<svg version="1.1" id="Layer_1" xmlns="http://www.w3.org/2000/svg" xmlns:xlink="http://www.w3.org/1999/xlink" x="0px" y="0px"
	 viewBox="0 0 267.5 237" style="enable-background:new 0 0 267.5 237;" xml:space="preserve">
<style type="text/css">
	.st0{fill:#FFFFFF;}
	.st1{fill:#00A795;}
	.st2{fill:#89E5A2;}
	.st3{fill:#A2EE95;}
	.st4{fill:#CDF9B0;}
</style>
<title>icon-growth</title>
<g id="Layer_2_1_">
	<g id="Layer_1-2">
		<circle class="st0" cx="134.5" cy="118.5" r="118.5"/>
		<circle class="st0" cx="134.5" cy="118.5" r="118.5"/>
		<path class="st1" d="M68.1,159c9.9-8.3,21.1-15,33-20l144-63.1c-23.6-61-92.2-91.4-153.3-67.8S0.4,100.3,24.1,161.4
			c3.9,10,9,19.4,15.4,28C46.9,180.2,58,167.3,68.1,159z"/>
		<path class="st2" d="M48.1,199.6c44.8,47.7,119.8,50.1,167.5,5.3c35.2-33,46.8-84.1,29.5-129.1l-144,63.1c0,0-22,15-33,30
			S48.1,199.6,48.1,199.6z"/>
		<path class="st3" d="M101.1,140c0,0,0-73,54-101s112,1,112,1L101.1,140z"/>
		<path class="st4" d="M101.2,139.1c0,0,64.4,34.3,114.5-0.1s51.8-99.3,51.8-99.3L101.2,139.1z"/>
	</g>
</g>
</svg>
