<?xml version="1.0" encoding="utf-8"?>
<!-- Generator: Adobe Illustrator 22.1.0, SVG Export Plug-In . SVG Version: 6.00 Build 0)  -->
<svg version="1.1" id="Layer_1" xmlns="http://www.w3.org/2000/svg" xmlns:xlink="http://www.w3.org/1999/xlink" x="0px" y="0px"
	 viewBox="0 0 267 237" style="enable-background:new 0 0 267 237;" xml:space="preserve">
<style type="text/css">
	.st0{fill:#17B8FF;}
	.st1{fill:#C0F2FF;}
	.st2{fill:#FFFFFF;}
</style>
<title>icon-workshop</title>
<g id="Layer_2_1_">
	<g id="Layer_1-2">
		<circle class="st0" cx="133.5" cy="118.5" r="118.5"/>
		<path class="st1" d="M68.1,67.7v92.5c0,9.3,7.5,16.8,16.8,16.8l0,0h151.7c22.5-39.6,20.3-88.6-5.7-126h-146
			C75.6,51,68.1,58.5,68.1,67.7C68.1,67.7,68.1,67.7,68.1,67.7z"/>
		<path class="st2" d="M245.4,79.4L74.4,221.3c4.7,2.7,9.7,5.1,14.8,7.2L249.6,94.8C248.6,89.5,247.1,84.4,245.4,79.4z"/>
		<path class="st2" d="M252,118.5c0-1.8-0.1-3.7-0.1-5.5L106.3,233.9c6.5,1.5,13.2,2.5,19.9,2.9l125-104.1
			C251.7,127.9,252,123.2,252,118.5z"/>
	</g>
</g>
</svg>
