<svg xmlns="http://www.w3.org/2000/svg" viewBox="0 0 267.06 223.82"><defs><style>.cls-1{fill:#73caff;}.cls-2{fill:#4da9ff;}.cls-3{fill:#0b82f9;}.cls-4{fill:#0043e0;}</style></defs><title>icon-skygear</title><g id="Layer_2" data-name="Layer 2"><g id="Layer_1-2" data-name="Layer 1"><path class="cls-1" d="M264.6,27A17.82,17.82,0,0,0,249.26.18H140.65Q137.46,0,134.23,0c-2.21,0-4.39.07-6.56.2A111.6,111.6,0,0,0,25.87,81a112.2,112.2,0,0,0-4.61,31.17c0,.27,0,.55,0,.83,0,7.63,1.56,16.88,3.45,25.06l.09,0A111.55,111.55,0,1,0,237.13,71.19c.68-.91,1.34-1.81,2-2.71C241.85,59.06,264.6,27,264.6,27Z"/><path class="cls-2" d="M128.52,93.7c54.95-10.82,111.17-5.17,114.07-3.6a111.45,111.45,0,0,0-5-17.57l-.73-1.28s-69.24-17.24-130.83,0C58,84.72,30.39,111,21.89,122.48A152.87,152.87,0,0,0,24.7,138l.09,0a110,110,0,0,0,4.95,15.32v0C52.84,129,86.19,102,128.52,93.7Z"/><path class="cls-3" d="M128.52,93.7c-40.4,7.7-78.88,34.63-98.77,59.65-2.72,9.4-27.29,43.5-27.29,43.5a17.76,17.76,0,0,0,15.3,26.79H126.12c2.13.12,4.26.18,6.41.18A112.85,112.85,0,0,0,245.25,111.93v-.83a108.21,108.21,0,0,0-2.54-20.89C242.43,88.82,184.88,83,128.52,93.7Z"/><path class="cls-4" d="M118.9,130.26c-58.36,23.73-109,77-111.59,85.3-.68,2.21-.65,4.49,1.5,5.65a18.77,18.77,0,0,0,9,2.43H126.12c2.13.12,4.26.18,6.41.18A112.85,112.85,0,0,0,245.25,111.93v-.83C245.25,111,171.16,109,118.9,130.26Z"/></g></g></svg>