<?xml version="1.0" encoding="utf-8"?>
<!-- Generator: Adobe Illustrator 24.0.0, SVG Export Plug-In . SVG Version: 6.00 Build 0)  -->
<svg version="1.1" id="Layer_1" xmlns="http://www.w3.org/2000/svg" xmlns:xlink="http://www.w3.org/1999/xlink" x="0px" y="0px"
	 viewBox="0 0 625.3 139.67" style="enable-background:new 0 0 625.3 139.67;" xml:space="preserve">
<style type="text/css">
	.st0{fill:#A7ABAF;}
	.st1{fill-rule:evenodd;clip-rule:evenodd;fill:#A7ABAF;}
</style>
<g id="XMLID_22_">
	<path id="XMLID_33_" class="st0" d="M454.94,95.33l-0.5-8.6c-1.5,3.1-3.8,5.6-6.8,7.4s-6.4,2.6-10.3,2.6c-6.8,0-12.1-2.3-16-6.9
		s-5.9-11-5.9-19s2-14.2,6-18.8s9.4-6.9,16.2-6.9c5.7,0,10.3,1.4,13.9,4.1c3.6,2.7,5.7,6.5,6.4,11.4h-4.6c-0.7-3.6-2.4-6.4-5.2-8.5
		c-2.8-2.1-6.2-3.1-10.4-3.1c-5.7,0-10,1.9-13.1,5.6c-3.1,3.8-4.6,9.1-4.6,16c0,6.7,1.5,12,4.6,15.9s7.2,5.9,12.5,5.9
		c5.4,0,9.6-1.6,12.6-4.7c3-3.2,4.5-7.6,4.5-13.4v-0.2h-16.1v-4h20.5v25.1h-3.7V95.33z"/>
	<path id="XMLID_31_" class="st0" d="M467.64,95.33v-35.3h4v6.2c1-2.4,2.4-4.2,4.2-5.3c1.8-1.2,4-1.8,6.6-1.8h0.5v4.3h-0.5
		c-3.5,0-6.1,1-7.9,3.1s-2.6,5.2-2.6,9.3v19.4h-4.3V95.33z"/>
	<path id="XMLID_28_" class="st0" d="M486.74,77.73c0-5.9,1.4-10.5,4.2-13.7c2.8-3.2,6.8-4.9,11.9-4.9c5.2,0,9.2,1.6,12,4.9
		c2.8,3.2,4.3,7.8,4.3,13.7s-1.4,10.4-4.2,13.7c-2.8,3.2-6.8,4.9-12,4.9c-5.1,0-9.1-1.6-11.9-4.8
		C488.14,88.13,486.74,83.63,486.74,77.73z M490.94,77.73c0,4.7,1,8.4,3.1,11s5,3.9,8.8,3.9s6.8-1.3,8.8-3.9
		c2.1-2.6,3.1-6.3,3.1-11.1s-1-8.5-3.1-11.1c-2.1-2.6-5-3.9-8.8-3.9s-6.7,1.3-8.8,3.9C492.04,69.23,490.94,72.93,490.94,77.73z"/>
	<path id="XMLID_26_" class="st0" d="M554.14,60.03v35.3h-4v-5.7c-1.4,2.2-3,3.9-4.9,5s-4.2,1.6-6.9,1.6c-4,0-7-1-9-3.1
		s-3-5.2-3-9.4v-23.7h4.1v22.7c0,3.5,0.7,6,2,7.5s3.5,2.2,6.7,2.2c3.4,0,6.1-1,8-3.1c2-2.1,2.9-4.9,2.9-8.5v-20.8H554.14z"/>
	<path id="XMLID_23_" class="st0" d="M563.44,109.53v-49.5h4.2v6.3c1.3-2.5,3-4.3,5-5.5s4.4-1.8,7.3-1.8c4.8,0,8.7,1.7,11.5,5
		c2.8,3.3,4.2,7.9,4.2,13.6c0,5.8-1.4,10.3-4.2,13.6c-2.8,3.3-6.7,4.9-11.6,4.9c-2.7,0-5.1-0.6-7.1-1.8c-2-1.2-3.7-2.9-5-5.3v20.4
		h-4.3V109.53z M567.44,77.63c0,4.7,1.1,8.3,3.2,11c2.1,2.6,5,4,8.7,4c3.9,0,6.8-1.3,8.9-3.9c2.1-2.6,3.1-6.3,3.1-11
		c0-4.8-1-8.5-3.1-11.1s-5-3.9-8.9-3.9c-3.8,0-6.7,1.3-8.8,3.9C568.44,69.23,567.44,72.93,567.44,77.63z"/>
	<path id="XMLID_39_" class="st1" d="M164.44,94.33h12.7l7.2-36.5l7.2,36.5h12.7l14-50.8h-13.1l-7.1,36l-6.7-36h-13.9l-6.8,36
		l-7.1-36h-13.1L164.44,94.33z M223.84,94.33h12.2v-37.5h-12.2V94.33z M223.84,53.43h12.2v-9.9h-12.2V53.43z M245.54,94.33h12.3
		v-50.8h-12.3V94.33z M264.44,82.83c0.6,7.9,7.2,12.6,18.5,12.6c11.6,0,18-5,18-13c0-3.5-1.2-6-4-8.1c-1.6-1.2-5.3-2.3-10.9-4
		c-5.2-1.5-8.3-1.8-8.3-4.4c0-2.1,1.6-3.3,4.6-3.3c3.2,0,4.9,1.2,5.4,3.7h11.9c-0.7-7.3-6.6-11.1-17.5-11.1
		c-10.3,0-16.3,4.7-16.3,12.2c0,6,3.8,8.6,12.2,11.4c6.7,2.2,10.8,2,10.8,5.1c0,2.3-2.1,3.7-5.6,3.7c-4.1,0-6.3-1.6-6.6-4.9h-12.2
		V82.83z M306.94,75.53c0,12.6,7.3,20.1,19.9,20.1c12.5,0,19.9-7.6,19.9-20.1s-7.4-20.1-19.9-20.1
		C314.34,55.43,306.94,62.93,306.94,75.53z M319.44,75.53c0-6.9,2.7-10.6,7.3-10.6c4.6,0,7.3,3.7,7.3,10.6c0,6.9-2.8,10.7-7.3,10.7
		C322.14,86.23,319.44,82.43,319.44,75.53z M354.54,94.33h12.2v-20.1c0-6.1,1.8-9,6.2-9c4.9,0,5.2,3.3,5.2,10.3v18.9h12.3v-24.5
		c0-9.6-3.4-14.1-12.5-14.1c-5.2,0-8.8,2-11.4,6.1v-5.2h-12L354.54,94.33L354.54,94.33z"/>
	<path class="st1" d="M124.84,12.63h-92.1c-5.6,0-10.1,4.5-10.1,10.1v92.1c0,5.6,4.5,10.1,10.1,10.1h92.1c5.6,0,10.1-4.5,10.1-10.1
		v-92.1C134.94,17.13,130.44,12.63,124.84,12.63z M66.54,91.03l-7.1,4.1c-2.4,1.4-5.5,0.6-6.9-1.9l-23.1-40
		c-1.3-2.4-0.5-5.5,1.9-6.9l7.1-4.1c2.4-1.4,5.5-0.6,6.9,1.9l23.1,40C69.84,86.53,69.04,89.63,66.54,91.03z M96.34,91.03l-7.1,4.1
		c-2.4,1.4-5.5,0.6-6.9-1.9l-23.1-40c-1.4-2.4-0.6-5.5,1.9-6.9l7.1-4.1c2.4-1.4,5.5-0.6,6.9,1.9l23.1,40
		C99.64,86.53,98.84,89.63,96.34,91.03z M126.04,91.03l-7.1,4.1c-2.4,1.4-5.5,0.6-6.9-1.9l-23.1-40c-1.3-2.4-0.5-5.5,1.9-6.9
		l7.1-4.1c2.4-1.4,5.5-0.6,6.9,1.9l23.1,40C129.34,86.53,128.54,89.63,126.04,91.03z"/>
</g>
</svg>
