<?xml version="1.0" encoding="utf-8"?>
<!-- Generator: Adobe Illustrator 24.0.0, SVG Export Plug-In . SVG Version: 6.00 Build 0)  -->
<svg version="1.1" id="Layer_1" xmlns="http://www.w3.org/2000/svg" xmlns:xlink="http://www.w3.org/1999/xlink" x="0px" y="0px"
	 viewBox="0 0 324.98 95.12" style="enable-background:new 0 0 324.98 95.12;" xml:space="preserve">
<style type="text/css">
	.st0{fill:#A7ABAF;}
</style>
<path class="st0" d="M109.81,43.94h-4.09v11.79c0,0.23-0.19,0.41-0.41,0.41h-2.03c-0.22,0-0.41-0.18-0.41-0.41V43.94h-4.1
	c-0.22,0-0.41-0.14-0.41-0.37v-1.62c0-0.23,0.19-0.39,0.41-0.39h11.05c0.23,0,0.41,0.16,0.41,0.39v1.62
	C110.22,43.79,110.04,43.94,109.81,43.94 M124.62,56.14h-2.03c-0.23,0-0.42-0.18-0.42-0.41v-5.95h-6.5v5.95
	c0,0.23-0.18,0.41-0.41,0.41h-2.03c-0.23,0-0.41-0.18-0.41-0.41V41.95c0-0.23,0.19-0.39,0.41-0.39h2.03c0.22,0,0.41,0.16,0.41,0.39
	v5.33h6.5v-5.33c0-0.23,0.19-0.39,0.42-0.39h2.03c0.22,0,0.41,0.16,0.41,0.39v13.78C125.03,55.95,124.84,56.14,124.62,56.14z
	 M134.79,56.3c-3.38,0-6.52-1.89-6.52-6.4v-2.1c0-4.51,3.14-6.4,6.52-6.4c3.39,0,6.53,1.89,6.53,6.4v2.1
	C141.32,54.41,138.18,56.3,134.79,56.3z M138.44,47.8c0-2.71-1.64-3.92-3.65-3.92c-2.01,0-3.65,1.21-3.65,3.92v2.1
	c0,2.71,1.64,3.92,3.65,3.92c2.01,0,3.65-1.21,3.65-3.92V47.8z M159.01,56.14h-2.07c-0.18,0-0.32-0.21-0.32-0.41v-8.88
	c0-0.14-0.02-0.21-0.07-0.21c-0.02,0-0.06,0.06-0.1,0.12l-3.31,7.34c-0.12,0.22-0.39,0.35-0.65,0.35h-1.07
	c-0.27,0-0.53-0.13-0.66-0.35l-3.33-7.34c-0.04-0.06-0.09-0.12-0.1-0.12c-0.04,0-0.06,0.06-0.06,0.21v8.88
	c0,0.2-0.14,0.41-0.33,0.41h-2.07c-0.19,0-0.35-0.1-0.35-0.31V42.38c0-0.45,0.37-0.82,0.82-0.82H147c0.33,0,0.62,0.2,0.76,0.49
	l3.94,8.02c0.1,0.19,0.15,0.29,0.23,0.29c0.08,0,0.12-0.1,0.23-0.29l3.94-8.02c0.14-0.29,0.43-0.49,0.76-0.49h1.68
	c0.45,0,0.82,0.37,0.82,0.82v13.45C159.36,56.03,159.19,56.14,159.01,56.14z M204.1,56.14h-2.08c-0.49,0-0.92,0-1.25-0.74
	l-5.57-9.33c-0.06-0.12-0.12-0.17-0.18-0.17c-0.06,0-0.1,0.04-0.1,0.17v9.65c0,0.23-0.17,0.41-0.39,0.41h-1.74
	c-0.23,0-0.41-0.18-0.41-0.41V42.38c0-0.45,0.37-0.82,0.82-0.82h2.22c0.43,0,0.66,0.12,0.91,0.66l5.79,9.88
	c0.04,0.1,0.1,0.16,0.16,0.16c0.04,0,0.1-0.06,0.1-0.18V41.95c0-0.23,0.16-0.39,0.39-0.39h1.77c0.22,0,0.39,0.16,0.39,0.39v13.37
	C204.92,55.77,204.55,56.14,204.1,56.14z M168.16,56.31c-1.81,0-3.65-0.31-4.64-0.54c-0.21-0.04-0.39-0.18-0.39-0.41v-1.48
	c0-0.22,0.18-0.39,0.39-0.39c0.02,0,0.02,0,0.04,0c0.82,0.1,2.74,0.37,4.64,0.37c1.83,0,2.38-0.65,2.38-1.84
	c0-1.54-3.67-2.39-5.46-3.13c-1.79-0.74-2.42-2.15-2.42-3.59c0-2.26,1.82-3.9,5.64-3.9c1.96,0,3.75,0.37,4.45,0.54
	c0.21,0.04,0.37,0.19,0.37,0.39v1.52c0,0.2-0.14,0.37-0.35,0.37c-0.02,0-0.02,0-0.04,0c-1.36-0.12-2.76-0.37-4.55-0.37
	c-1.52,0-2.66,0.53-2.66,1.46c0,0.67,0.77,1.3,1.68,1.66c0.91,0.36,2.11,0.83,3.47,1.37c1.73,0.7,2.86,1.72,2.86,3.69
	C173.57,54.09,172.27,56.31,168.16,56.31z M182.67,56.3c-3.39,0-6.52-1.89-6.52-6.4v-2.1c0-4.51,3.14-6.4,6.52-6.4
	c3.39,0,6.52,1.89,6.52,6.4v2.1C189.19,54.41,186.06,56.3,182.67,56.3z M186.32,47.8c0-2.71-1.64-3.92-3.65-3.92
	c-2.01,0-3.65,1.21-3.65,3.92v2.1c0,2.71,1.64,3.92,3.65,3.92c2.01,0,3.65-1.21,3.65-3.92V47.8z M226.21,56.14h-2.51
	c-0.22,0-0.31-0.21-0.41-0.41l-2.96-4.98h-0.45c-0.54,0-2.19-0.06-2.67-0.08v5.06c0,0.23-0.16,0.41-0.39,0.41h-2.05
	c-0.22,0-0.41-0.18-0.41-0.41V42.28c0-0.41,0.24-0.56,0.66-0.61c1.07-0.17,3.36-0.27,4.86-0.27c3.16,0,6.08,1.13,6.08,4.64v0.18
	c0,2.17-1.09,3.36-2.77,4.02l3.22,5.49c0.04,0.06,0.04,0.12,0.04,0.17C226.45,56.03,226.37,56.14,226.21,56.14z M223.13,46.03
	c0-1.54-1.19-2.2-3.25-2.2c-0.43,0-2.3,0.04-2.67,0.08v4.45c0.33,0.02,2.31,0.06,2.67,0.06c2.11,0,3.25-0.41,3.25-2.21V46.03z
	 M231.93,52.1c0,1.72,0.07,1.77,1.62,1.77h5.2c0.23,0,0.41,0.18,0.41,0.41v1.31c0,0.29-0.1,0.39-0.41,0.43
	c-0.66,0.1-1.99,0.29-4.44,0.29c-3.41,0-5.21,0.02-5.21-4.21v-6.5c0-4.23,1.81-4.21,5.21-4.21c2.44,0,3.78,0.18,4.44,0.29
	c0.31,0.04,0.41,0.15,0.41,0.43v1.31c0,0.23-0.18,0.41-0.41,0.41h-5.2c-1.55,0-1.62,0.05-1.62,1.76v1.88h6.57
	c0.23,0,0.41,0.19,0.41,0.41v1.48c0,0.22-0.18,0.41-0.41,0.41h-6.57V52.1z M248.37,56.3c-3.3,0-6.15-1.44-6.15-5.81v-8.54
	c0-0.23,0.19-0.39,0.41-0.39h2.03c0.23,0,0.41,0.16,0.41,0.39v8.54c0,2.34,1.08,3.45,3.29,3.45c2.22,0,3.3-1.11,3.3-3.45v-8.54
	c0-0.23,0.19-0.39,0.41-0.39h2.03c0.23,0,0.41,0.16,0.41,0.39v8.54C254.52,54.86,251.67,56.3,248.37,56.3z M268.02,43.94h-4.09
	v11.79c0,0.23-0.19,0.41-0.42,0.41h-2.03c-0.23,0-0.41-0.18-0.41-0.41V43.94h-4.1c-0.22,0-0.41-0.14-0.41-0.37v-1.62
	c0-0.23,0.18-0.39,0.41-0.39h11.05c0.22,0,0.41,0.16,0.41,0.39v1.62C268.42,43.79,268.24,43.94,268.02,43.94z M295.9,56.14h-2.51
	c-0.22,0-0.31-0.21-0.41-0.41l-2.96-4.98h-0.46c-0.53,0-2.19-0.06-2.67-0.08v5.06c0,0.23-0.16,0.41-0.39,0.41h-2.05
	c-0.22,0-0.41-0.18-0.41-0.41V42.28c0-0.41,0.24-0.56,0.66-0.61c1.07-0.17,3.37-0.27,4.86-0.27c3.16,0,6.08,1.13,6.08,4.64v0.18
	c0,2.17-1.09,3.36-2.77,4.02l3.23,5.49c0.04,0.06,0.04,0.12,0.04,0.17C296.14,56.03,296.06,56.14,295.9,56.14z M292.82,46.03
	c0-1.54-1.2-2.2-3.25-2.2c-0.43,0-2.3,0.04-2.67,0.08v4.45c0.33,0.02,2.32,0.06,2.67,0.06c2.12,0,3.25-0.41,3.25-2.21V46.03z
	 M303.73,56.31c-1.82,0-3.65-0.31-4.64-0.54c-0.2-0.04-0.39-0.18-0.39-0.41v-1.48c0-0.22,0.19-0.39,0.39-0.39c0.02,0,0.02,0,0.04,0
	c0.82,0.1,2.74,0.37,4.64,0.37c1.83,0,2.38-0.65,2.38-1.84c0-1.54-3.67-2.39-5.47-3.13c-1.78-0.74-2.42-2.15-2.42-3.59
	c0-2.26,1.82-3.9,5.63-3.9c1.96,0,3.75,0.37,4.45,0.54c0.21,0.04,0.37,0.19,0.37,0.39v1.52c0,0.2-0.14,0.37-0.35,0.37
	c-0.02,0-0.02,0-0.04,0c-1.35-0.12-2.76-0.37-4.54-0.37c-1.52,0-2.66,0.53-2.66,1.46c0,0.67,0.77,1.3,1.69,1.66
	c0.91,0.36,2.11,0.83,3.47,1.37c1.73,0.7,2.85,1.72,2.85,3.69C309.13,54.09,307.84,56.31,303.73,56.31z M273.37,52.1
	c0,1.72,0.06,1.77,1.62,1.77h5.2c0.22,0,0.41,0.18,0.41,0.41v1.31c0,0.29-0.1,0.39-0.41,0.43c-0.66,0.1-1.99,0.29-4.44,0.29
	c-3.41,0-5.22,0.02-5.22-4.21v-6.5c0-4.23,1.8-4.21,5.22-4.21c2.44,0,3.78,0.18,4.44,0.29c0.3,0.04,0.41,0.15,0.41,0.43v1.31
	c0,0.23-0.19,0.41-0.41,0.41h-5.2c-1.56,0-1.62,0.05-1.62,1.76v1.88h6.57c0.23,0,0.41,0.19,0.41,0.41v1.48
	c0,0.22-0.18,0.41-0.41,0.41h-6.57V52.1z"/>
<path class="st0" d="M63.25,36.87c-0.85,0.9-2.29,0.95-3.2,0.09c-0.92-0.86-0.95-2.29-0.09-3.2c0.85-0.91,2.28-0.96,3.2-0.1
	C64.07,34.52,64.11,35.95,63.25,36.87 M40.68,31.72c-0.45-0.42-1.16-0.4-1.58,0.05c-0.42,0.45-0.4,1.15,0.04,1.58
	c0.45,0.42,1.16,0.4,1.58-0.05C41.14,32.85,41.12,32.14,40.68,31.72z M46.34,29.57c-0.56-0.52-1.43-0.49-1.95,0.06
	c-0.52,0.56-0.5,1.42,0.06,1.95c0.55,0.52,1.43,0.49,1.95-0.06C46.91,30.97,46.89,30.09,46.34,29.57z M52.41,29.12
	c-0.7-0.66-1.81-0.62-2.47,0.07c-0.66,0.7-0.63,1.81,0.08,2.48c0.7,0.66,1.81,0.63,2.47-0.07C53.15,30.89,53.11,29.79,52.41,29.12z
	 M58.15,30.59c-0.8-0.75-2.04-0.71-2.79,0.08c-0.75,0.79-0.71,2.03,0.08,2.79c0.79,0.75,2.05,0.71,2.79-0.08
	C58.97,32.59,58.94,31.34,58.15,30.59z M35.88,35.49c-0.34-0.31-0.87-0.3-1.18,0.04c-0.32,0.33-0.3,0.86,0.03,1.17
	c0.34,0.32,0.86,0.3,1.18-0.03C36.22,36.33,36.21,35.81,35.88,35.49z M64.86,56.03c-0.42,0.45-0.4,1.16,0.04,1.58
	c0.46,0.42,1.16,0.4,1.59-0.05c0.42-0.45,0.4-1.16-0.05-1.58C65.99,55.56,65.29,55.58,64.86,56.03z M66.3,50.27
	c-0.52,0.55-0.49,1.43,0.06,1.95c0.56,0.53,1.43,0.49,1.95-0.06c0.52-0.55,0.5-1.42-0.06-1.95C67.69,49.69,66.82,49.71,66.3,50.27z
	 M65.85,44.19c-0.66,0.71-0.63,1.81,0.08,2.48c0.71,0.67,1.81,0.63,2.48-0.08c0.67-0.7,0.63-1.81-0.08-2.47
	C67.62,43.46,66.52,43.49,65.85,44.19z M63.74,38.56c-0.75,0.79-0.71,2.04,0.08,2.79c0.8,0.75,2.04,0.7,2.78-0.08
	c0.75-0.8,0.71-2.03-0.08-2.79C65.73,37.73,64.48,37.77,63.74,38.56z M61.79,61.04c-0.31,0.34-0.3,0.86,0.04,1.18
	c0.34,0.31,0.86,0.3,1.17-0.04c0.32-0.33,0.31-0.86-0.03-1.17C62.63,60.69,62.1,60.7,61.79,61.04z M37.74,63.95
	c0.86-0.92,0.82-2.34-0.09-3.21c-0.92-0.86-2.35-0.81-3.2,0.09c-0.85,0.92-0.82,2.34,0.1,3.2C35.45,64.9,36.89,64.86,37.74,63.95z
	 M32.84,41.67c0.42-0.45,0.4-1.15-0.05-1.57c-0.45-0.43-1.15-0.4-1.58,0.04c-0.43,0.45-0.4,1.15,0.05,1.58
	C31.71,42.13,32.41,42.12,32.84,41.67z M31.4,47.44c0.52-0.55,0.49-1.43-0.06-1.95c-0.56-0.53-1.44-0.5-1.95,0.06
	c-0.51,0.56-0.5,1.42,0.06,1.94C30,48.02,30.88,47.99,31.4,47.44z M31.84,53.51c0.67-0.7,0.63-1.81-0.07-2.48
	c-0.7-0.67-1.81-0.62-2.48,0.08c-0.66,0.7-0.63,1.82,0.08,2.48C30.08,54.25,31.18,54.22,31.84,53.51z M33.96,59.14
	c0.75-0.79,0.71-2.04-0.08-2.79c-0.79-0.75-2.04-0.7-2.78,0.08c-0.75,0.79-0.72,2.03,0.07,2.79C31.97,59.97,33.22,59.93,33.96,59.14
	z M57.02,65.99c0.45,0.42,1.16,0.4,1.58-0.05c0.42-0.44,0.4-1.15-0.05-1.57c-0.45-0.43-1.15-0.4-1.58,0.04
	C56.55,64.86,56.58,65.56,57.02,65.99z M51.36,68.14c0.56,0.52,1.43,0.49,1.95-0.06c0.52-0.55,0.5-1.42-0.05-1.95
	c-0.56-0.52-1.43-0.5-1.96,0.06C50.78,66.74,50.81,67.61,51.36,68.14z M45.29,68.57c0.71,0.67,1.81,0.64,2.47-0.07
	c0.67-0.7,0.64-1.81-0.07-2.48c-0.7-0.67-1.82-0.63-2.48,0.07C44.55,66.8,44.58,67.92,45.29,68.57z M39.56,67.11
	c0.79,0.75,2.04,0.71,2.78-0.08c0.74-0.8,0.72-2.04-0.08-2.79c-0.79-0.74-2.04-0.71-2.78,0.09C38.73,65.11,38.76,66.36,39.56,67.11z
	 M54.48,35.97c-0.27,0.93-1.25,1.46-2.19,1.18c-0.95-0.28-1.47-1.25-1.19-2.19c0.27-0.93,1.25-1.47,2.19-1.2
	C54.22,34.04,54.76,35.03,54.48,35.97z M37.57,40.13c-0.46-0.12-0.94,0.13-1.08,0.59c-0.14,0.46,0.13,0.94,0.59,1.07
	c0.46,0.14,0.94-0.12,1.08-0.58C38.3,40.76,38.03,40.28,37.57,40.13z M40.63,36.77c-0.57-0.17-1.17,0.16-1.33,0.73
	c-0.17,0.57,0.15,1.17,0.73,1.34c0.57,0.17,1.17-0.16,1.34-0.73C41.53,37.54,41.2,36.94,40.63,36.77z M44.55,34.4
	c-0.73-0.21-1.48,0.21-1.7,0.92c-0.21,0.72,0.21,1.48,0.93,1.7c0.72,0.21,1.48-0.2,1.69-0.92C45.68,35.37,45.27,34.61,44.55,34.4z
	 M48.89,33.43c-0.82-0.24-1.66,0.23-1.91,1.04c-0.24,0.81,0.22,1.66,1.04,1.91c0.81,0.24,1.66-0.23,1.91-1.04
	C50.17,34.52,49.7,33.66,48.89,33.43z M35.64,44.3c-0.34-0.1-0.71,0.1-0.8,0.44c-0.1,0.35,0.09,0.71,0.44,0.81
	c0.35,0.1,0.71-0.1,0.81-0.45C36.18,44.76,35.99,44.4,35.64,44.3z M61.97,48.21c-0.14,0.46,0.12,0.95,0.59,1.08
	c0.46,0.14,0.94-0.13,1.08-0.59c0.13-0.45-0.12-0.94-0.59-1.08C62.59,47.49,62.1,47.75,61.97,48.21z M60.96,43.86
	c-0.18,0.58,0.16,1.17,0.73,1.34c0.57,0.17,1.17-0.16,1.33-0.73c0.17-0.57-0.16-1.17-0.73-1.33C61.73,42.97,61.13,43.29,60.96,43.86
	z M58.59,39.94c-0.22,0.73,0.2,1.49,0.92,1.7c0.73,0.21,1.48-0.21,1.7-0.93c0.22-0.72-0.2-1.48-0.93-1.69
	C59.57,38.81,58.81,39.23,58.59,39.94z M55.26,36.9c-0.24,0.81,0.23,1.67,1.04,1.91c0.82,0.24,1.67-0.23,1.91-1.05
	c0.24-0.81-0.22-1.67-1.04-1.91C56.35,35.62,55.5,36.09,55.26,36.9z M61.62,52.61c-0.1,0.34,0.1,0.71,0.44,0.81
	c0.35,0.1,0.71-0.09,0.81-0.44c0.1-0.34-0.09-0.71-0.44-0.81C62.09,52.07,61.72,52.26,61.62,52.61z M46.61,62.75
	c0.28-0.94-0.25-1.92-1.2-2.2c-0.94-0.27-1.92,0.26-2.19,1.2c-0.27,0.95,0.25,1.92,1.2,2.2C45.36,64.21,46.34,63.67,46.61,62.75z
	 M35.73,49.49c0.14-0.46-0.12-0.94-0.59-1.08c-0.46-0.14-0.94,0.13-1.08,0.59c-0.14,0.46,0.13,0.94,0.59,1.08
	C35.11,50.22,35.59,49.96,35.73,49.49z M36.74,53.84c0.17-0.57-0.16-1.17-0.73-1.33c-0.58-0.17-1.18,0.15-1.33,0.72
	c-0.16,0.57,0.15,1.17,0.72,1.34C35.97,54.75,36.57,54.42,36.74,53.84z M39.11,57.77c0.21-0.72-0.21-1.49-0.93-1.7
	c-0.72-0.21-1.47,0.21-1.69,0.93c-0.22,0.72,0.19,1.48,0.92,1.69C38.14,58.9,38.89,58.49,39.11,57.77z M42.44,60.81
	c0.24-0.81-0.23-1.67-1.05-1.91c-0.82-0.24-1.66,0.23-1.9,1.05c-0.24,0.81,0.22,1.66,1.04,1.9C41.35,62.09,42.2,61.62,42.44,60.81z
	 M60.13,57.57c0.47,0.13,0.95-0.13,1.09-0.59c0.13-0.46-0.13-0.95-0.59-1.09c-0.46-0.13-0.95,0.13-1.08,0.59
	C59.41,56.95,59.67,57.44,60.13,57.57z M57.07,60.94c0.57,0.17,1.16-0.16,1.33-0.72c0.17-0.58-0.15-1.17-0.72-1.34
	c-0.57-0.17-1.17,0.16-1.34,0.73C56.17,60.17,56.51,60.77,57.07,60.94z M53.15,63.31c0.73,0.21,1.48-0.2,1.7-0.93
	c0.21-0.72-0.2-1.48-0.93-1.69c-0.72-0.22-1.49,0.2-1.7,0.92C52.02,62.34,52.43,63.1,53.15,63.31z M48.82,64.28
	c0.82,0.25,1.67-0.22,1.9-1.03c0.24-0.82-0.22-1.67-1.03-1.91c-0.82-0.24-1.67,0.22-1.91,1.04C47.54,63.19,48,64.04,48.82,64.28z
	 M45.22,39.24c0.36,0.66,0.11,1.5-0.55,1.86c-0.67,0.36-1.5,0.1-1.86-0.56c-0.36-0.66-0.11-1.5,0.55-1.85
	C44.03,38.32,44.87,38.57,45.22,39.24z M38.45,49.97c-0.39,0.21-0.53,0.71-0.32,1.1c0.22,0.4,0.71,0.53,1.09,0.32
	c0.39-0.2,0.55-0.7,0.33-1.09C39.33,49.91,38.85,49.76,38.45,49.97z M38.32,46.67c-0.45,0.24-0.62,0.81-0.38,1.27
	c0.25,0.46,0.82,0.63,1.28,0.38c0.45-0.25,0.63-0.83,0.38-1.28C39.35,46.59,38.78,46.42,38.32,46.67z M39.17,43.5
	c-0.52,0.28-0.72,0.93-0.44,1.45c0.29,0.52,0.94,0.72,1.46,0.43c0.52-0.28,0.72-0.93,0.44-1.46C40.34,43.41,39.69,43.22,39.17,43.5z
	 M40.92,40.76c-0.6,0.32-0.82,1.05-0.49,1.64c0.32,0.58,1.04,0.8,1.63,0.49c0.6-0.32,0.82-1.06,0.5-1.64
	C42.24,40.67,41.5,40.43,40.92,40.76z M39.58,53.09c-0.33,0.17-0.45,0.58-0.27,0.92c0.18,0.32,0.58,0.45,0.92,0.27
	c0.32-0.18,0.45-0.59,0.27-0.92C40.31,53.04,39.9,52.91,39.58,53.09z M55.16,41.86c0.21,0.39,0.7,0.53,1.1,0.33
	c0.39-0.22,0.54-0.71,0.33-1.1c-0.22-0.39-0.7-0.54-1.09-0.33C55.1,40.99,54.95,41.48,55.16,41.86z M52.43,40.12
	c0.25,0.46,0.83,0.62,1.27,0.38c0.47-0.25,0.63-0.82,0.38-1.27c-0.24-0.46-0.82-0.63-1.27-0.39C52.35,39.09,52.18,39.67,52.43,40.12
	z M49.26,39.28c0.28,0.52,0.93,0.71,1.45,0.43c0.53-0.29,0.72-0.93,0.44-1.45c-0.28-0.52-0.93-0.72-1.45-0.43
	C49.17,38.1,48.98,38.75,49.26,39.28z M45.96,39.4c0.31,0.6,1.05,0.81,1.64,0.5c0.59-0.32,0.8-1.05,0.49-1.65
	c-0.31-0.58-1.05-0.81-1.64-0.49C45.86,38.09,45.65,38.82,45.96,39.4z M57.22,44.33c0.17,0.33,0.58,0.45,0.9,0.27
	c0.33-0.17,0.45-0.58,0.27-0.9c-0.18-0.33-0.58-0.45-0.91-0.29C57.17,43.59,57.04,44.01,57.22,44.33z M54.89,57.15
	c-0.36-0.67-1.19-0.93-1.86-0.56c-0.66,0.35-0.92,1.19-0.55,1.86c0.36,0.66,1.19,0.91,1.86,0.56C55,58.64,55.25,57.81,54.89,57.15z
	 M42.54,55.83c-0.21-0.39-0.7-0.53-1.09-0.32c-0.39,0.2-0.54,0.7-0.33,1.09c0.21,0.4,0.7,0.54,1.09,0.32
	C42.6,56.71,42.75,56.22,42.54,55.83z M45.28,57.57c-0.25-0.45-0.82-0.63-1.27-0.38c-0.47,0.25-0.63,0.82-0.38,1.27
	c0.24,0.46,0.81,0.63,1.27,0.39C45.35,58.6,45.52,58.02,45.28,57.57z M48.45,58.42c-0.27-0.52-0.93-0.71-1.46-0.44
	c-0.52,0.28-0.71,0.94-0.44,1.46c0.29,0.53,0.94,0.72,1.46,0.44C48.54,59.6,48.73,58.94,48.45,58.42z M51.75,58.28
	c-0.32-0.59-1.05-0.8-1.64-0.49c-0.59,0.31-0.8,1.05-0.47,1.64c0.31,0.58,1.04,0.81,1.63,0.49C51.85,59.61,52.06,58.87,51.75,58.28z
	 M59.24,47.73c0.4-0.23,0.55-0.72,0.34-1.1c-0.21-0.39-0.71-0.54-1.09-0.33c-0.4,0.21-0.55,0.71-0.33,1.09
	C58.36,47.79,58.86,47.93,59.24,47.73z M59.39,51.02c0.46-0.25,0.62-0.82,0.37-1.27c-0.24-0.46-0.81-0.63-1.27-0.38
	c-0.46,0.25-0.62,0.82-0.39,1.28C58.35,51.1,58.94,51.26,59.39,51.02z M58.53,54.2c0.53-0.29,0.72-0.93,0.45-1.46
	c-0.28-0.52-0.93-0.72-1.46-0.44c-0.53,0.28-0.72,0.94-0.44,1.46C57.37,54.28,58.02,54.48,58.53,54.2z M56.8,56.93
	c0.59-0.31,0.8-1.05,0.49-1.63c-0.32-0.58-1.05-0.81-1.64-0.49c-0.59,0.32-0.8,1.06-0.49,1.64C55.47,57.03,56.2,57.25,56.8,56.93z
	 M80.25,52.37c-1.94,0-3.51-1.58-3.51-3.52c0-1.95,1.57-3.51,3.52-3.51c1.94,0,3.51,1.56,3.51,3.51
	C83.77,50.79,82.19,52.37,80.25,52.37z M66.45,22.05c0.22-1.05-0.45-2.08-1.49-2.3c-1.05-0.22-2.08,0.44-2.3,1.49
	c-0.22,1.05,0.45,2.08,1.49,2.3C65.2,23.77,66.23,23.1,66.45,22.05z M73.38,27.01c0.21-1.29-0.68-2.48-1.95-2.69
	c-1.28-0.2-2.49,0.67-2.69,1.95c-0.2,1.28,0.67,2.49,1.95,2.69C71.97,29.17,73.17,28.29,73.38,27.01z M78.96,33.45
	c0.17-1.62-0.99-3.05-2.61-3.22c-1.6-0.17-3.05,0.99-3.22,2.61c-0.17,1.61,1.01,3.05,2.61,3.22C77.35,36.23,78.79,35.06,78.96,33.45
	z M82.42,40.89c0.09-1.79-1.28-3.3-3.05-3.39c-1.78-0.1-3.3,1.26-3.4,3.05c-0.09,1.78,1.28,3.3,3.05,3.4
	C80.8,44.04,82.32,42.67,82.42,40.89z M50.26,17.45c0-0.78-0.63-1.41-1.41-1.41c-0.78,0-1.41,0.63-1.41,1.41
	c0,0.78,0.63,1.41,1.41,1.41C49.63,18.86,50.26,18.23,50.26,17.45z M64.15,74.16c-1.05,0.22-1.72,1.26-1.5,2.3
	c0.23,1.05,1.25,1.72,2.3,1.5c1.05-0.22,1.72-1.25,1.49-2.31C66.23,74.61,65.2,73.94,64.15,74.16z M70.69,68.74
	c-1.28,0.2-2.16,1.41-1.95,2.69c0.2,1.29,1.41,2.16,2.69,1.95c1.28-0.2,2.16-1.4,1.95-2.69C73.17,69.41,71.97,68.54,70.69,68.74z
	 M75.74,61.64c-1.6,0.17-2.78,1.61-2.61,3.22c0.17,1.62,1.62,2.77,3.22,2.61c1.61-0.17,2.78-1.6,2.61-3.22
	C78.79,62.64,77.35,61.47,75.74,61.64z M79.02,53.76c-1.78,0.09-3.15,1.61-3.05,3.39c0.09,1.79,1.61,3.15,3.4,3.05
	c1.78-0.09,3.15-1.6,3.05-3.39C82.32,55.03,80.8,53.66,79.02,53.76z M48.85,78.85c-0.78,0-1.41,0.63-1.41,1.41
	c0,0.78,0.63,1.41,1.41,1.41c0.78,0,1.41-0.63,1.41-1.41C50.26,79.48,49.63,78.85,48.85,78.85z M17.44,52.37
	c1.93,0,3.51-1.58,3.51-3.52c0-1.95-1.57-3.51-3.51-3.51c-1.94,0-3.52,1.56-3.52,3.51C13.93,50.79,15.51,52.37,17.44,52.37z
	 M33.54,23.54c1.05-0.22,1.72-1.25,1.49-2.3c-0.22-1.05-1.25-1.71-2.3-1.49c-1.04,0.22-1.72,1.25-1.49,2.3
	C31.47,23.1,32.5,23.77,33.54,23.54z M27.01,28.97c1.28-0.2,2.16-1.41,1.95-2.69c-0.2-1.29-1.41-2.15-2.69-1.95
	c-1.28,0.2-2.15,1.4-1.95,2.69C24.52,28.29,25.73,29.17,27.01,28.97z M21.95,36.06c1.61-0.17,2.78-1.61,2.61-3.22
	c-0.17-1.62-1.61-2.78-3.22-2.61c-1.61,0.17-2.78,1.61-2.61,3.22C18.91,35.06,20.34,36.23,21.95,36.06z M18.68,43.95
	c1.78-0.09,3.15-1.61,3.05-3.4c-0.09-1.79-1.61-3.15-3.4-3.05c-1.77,0.09-3.15,1.6-3.06,3.39C15.37,42.67,16.9,44.04,18.68,43.95z
	 M31.24,75.65c-0.22,1.05,0.45,2.08,1.49,2.3c1.05,0.22,2.08-0.44,2.3-1.5c0.22-1.05-0.45-2.08-1.49-2.3
	C32.5,73.94,31.47,74.61,31.24,75.65z M24.32,70.69c-0.21,1.29,0.67,2.49,1.95,2.69c1.28,0.2,2.49-0.67,2.69-1.95
	c0.2-1.28-0.67-2.49-1.96-2.69C25.73,68.54,24.52,69.41,24.32,70.69z M18.74,64.25c-0.17,1.62,0.99,3.05,2.61,3.22
	c1.61,0.17,3.05-0.99,3.22-2.61c0.17-1.61-1-3.05-2.61-3.22C20.34,61.47,18.91,62.64,18.74,64.25z M15.27,56.81
	c-0.09,1.79,1.28,3.3,3.06,3.39c1.79,0.09,3.31-1.26,3.4-3.05c0.09-1.78-1.28-3.3-3.06-3.39C16.9,53.66,15.37,55.03,15.27,56.81z
	 M56.58,77.73c-0.81,0.22-1.29,1.05-1.07,1.86c0.22,0.81,1.05,1.28,1.86,1.07c0.81-0.22,1.29-1.04,1.08-1.86
	C58.23,77.99,57.39,77.51,56.58,77.73z M41.11,77.73c-0.8-0.21-1.64,0.26-1.86,1.07c-0.22,0.81,0.27,1.64,1.07,1.85
	c0.81,0.22,1.64-0.26,1.86-1.07C42.4,78.77,41.92,77.94,41.11,77.73z M58.44,18.91c0.22-0.81-0.27-1.64-1.08-1.85
	c-0.81-0.22-1.64,0.26-1.85,1.07c-0.22,0.81,0.27,1.64,1.07,1.86C57.39,20.2,58.23,19.72,58.44,18.91z M42.19,18.12
	c-0.22-0.81-1.05-1.29-1.86-1.07c-0.81,0.21-1.29,1.04-1.07,1.85c0.22,0.81,1.05,1.29,1.86,1.07C41.92,19.76,42.4,18.94,42.19,18.12
	z M72.45,41.67c-1.39,0.6-3.01-0.04-3.61-1.44c-0.6-1.4,0.04-3.01,1.44-3.61c1.39-0.6,3,0.04,3.6,1.43
	C74.49,39.45,73.84,41.06,72.45,41.67z M53.18,24.2c-0.17-0.83-0.96-1.35-1.78-1.19c-0.82,0.16-1.35,0.95-1.19,1.78
	c0.16,0.82,0.96,1.35,1.78,1.19C52.81,25.81,53.35,25.02,53.18,24.2z M59.68,25.61c-0.25-0.99-1.25-1.58-2.23-1.32
	c-0.98,0.25-1.58,1.25-1.32,2.23c0.25,0.98,1.25,1.58,2.23,1.32C59.34,27.59,59.93,26.59,59.68,25.61z M65.67,28.5
	c-0.38-1.21-1.66-1.88-2.86-1.5c-1.2,0.37-1.88,1.65-1.5,2.86c0.38,1.21,1.67,1.88,2.87,1.5C65.38,30.99,66.05,29.71,65.67,28.5z
	 M70.45,32.77c-0.49-1.32-1.94-1.97-3.24-1.49c-1.31,0.48-1.98,1.93-1.49,3.24c0.49,1.31,1.94,1.97,3.24,1.49
	C70.27,35.53,70.94,34.07,70.45,32.77z M40.15,25.9c-0.24-0.56-0.89-0.82-1.45-0.58c-0.56,0.24-0.82,0.89-0.57,1.45
	c0.24,0.56,0.89,0.81,1.45,0.57C40.13,27.11,40.39,26.46,40.15,25.9z M67.65,62.27c-0.68,0.48-0.84,1.43-0.36,2.11
	c0.49,0.69,1.43,0.85,2.11,0.36c0.68-0.48,0.84-1.42,0.36-2.11C69.27,61.95,68.33,61.78,67.65,62.27z M70.66,56.36
	c-0.85,0.54-1.11,1.68-0.57,2.53c0.54,0.86,1.68,1.11,2.53,0.57c0.86-0.54,1.11-1.67,0.57-2.53C72.64,56.07,71.51,55.82,70.66,56.36
	z M72.08,49.71c-1.1,0.61-1.49,2.01-0.87,3.12c0.62,1.1,2.02,1.49,3.11,0.87c1.1-0.62,1.5-2,0.87-3.11
	C74.58,49.48,73.18,49.09,72.08,49.71z M71.99,43.04c-1.24,0.62-1.75,2.13-1.14,3.38c0.62,1.26,2.13,1.76,3.38,1.14
	c1.25-0.61,1.76-2.12,1.14-3.38C74.76,42.94,73.24,42.42,71.99,43.04z M58.12,70.36c-0.56,0.24-0.82,0.89-0.58,1.45
	c0.24,0.56,0.89,0.82,1.45,0.58c0.56-0.24,0.82-0.89,0.58-1.45C59.33,70.37,58.68,70.12,58.12,70.36z M27.42,61.09
	c1.39-0.6,2.03-2.22,1.43-3.61c-0.6-1.4-2.21-2.03-3.6-1.43c-1.39,0.6-2.04,2.21-1.44,3.61C24.41,61.04,26.03,61.68,27.42,61.09z
	 M30.05,35.44c0.68-0.49,0.84-1.43,0.36-2.11c-0.49-0.69-1.43-0.84-2.11-0.36c-0.68,0.49-0.85,1.43-0.36,2.11
	C28.42,35.76,29.37,35.93,30.05,35.44z M27.04,41.35c0.86-0.54,1.11-1.68,0.57-2.54c-0.54-0.86-1.68-1.11-2.53-0.57
	c-0.85,0.54-1.11,1.67-0.57,2.53C25.05,41.63,26.19,41.89,27.04,41.35z M25.61,48c1.1-0.62,1.49-2.02,0.87-3.12
	c-0.62-1.1-2.01-1.49-3.11-0.87c-1.1,0.62-1.49,2.01-0.87,3.11C23.12,48.22,24.51,48.62,25.61,48z M25.7,54.67
	c1.25-0.62,1.76-2.13,1.14-3.38c-0.62-1.26-2.13-1.76-3.38-1.14c-1.24,0.62-1.76,2.12-1.14,3.38C22.93,54.78,24.45,55.29,25.7,54.67
	z M44.51,73.51c0.17,0.82,0.96,1.36,1.78,1.19c0.82-0.17,1.35-0.96,1.19-1.79c-0.16-0.82-0.96-1.35-1.78-1.19
	C44.88,71.89,44.35,72.7,44.51,73.51z M38.02,72.1c0.25,0.99,1.25,1.57,2.23,1.32c0.98-0.25,1.58-1.24,1.33-2.23
	c-0.25-0.98-1.25-1.57-2.24-1.32C38.36,70.12,37.77,71.11,38.02,72.1z M32.02,69.2c0.38,1.21,1.66,1.88,2.86,1.5
	c1.21-0.37,1.88-1.65,1.51-2.86c-0.38-1.2-1.66-1.88-2.87-1.5C32.31,66.71,31.64,67.99,32.02,69.2z M27.24,64.94
	c0.49,1.32,1.94,1.97,3.24,1.49c1.31-0.48,1.98-1.92,1.49-3.24c-0.48-1.3-1.93-1.97-3.24-1.49C27.43,62.18,26.76,63.64,27.24,64.94z
	 M63.32,67.16c-0.51,0.41-0.6,1.15-0.19,1.66c0.41,0.51,1.15,0.6,1.66,0.19c0.51-0.4,0.6-1.15,0.2-1.66
	C64.58,66.84,63.84,66.76,63.32,67.16z M52.23,71.95c-0.64,0.09-1.09,0.7-1,1.34c0.1,0.65,0.7,1.09,1.34,1c0.65-0.1,1.1-0.69,1-1.34
	C53.48,72.3,52.88,71.85,52.23,71.95z M46.47,24.42c-0.09-0.64-0.7-1.09-1.35-1c-0.64,0.1-1.09,0.69-1,1.34
	c0.1,0.65,0.7,1.09,1.34,1C46.11,25.66,46.56,25.07,46.47,24.42z M34.57,28.88c-0.41-0.51-1.15-0.6-1.67-0.19
	c-0.51,0.41-0.6,1.15-0.19,1.66c0.41,0.52,1.15,0.6,1.66,0.2C34.89,30.14,34.98,29.4,34.57,28.88z"/>
</svg>
