<?xml version="1.0" encoding="utf-8"?>
<!-- Generator: Adobe Illustrator 24.0.0, SVG Export Plug-In . SVG Version: 6.00 Build 0)  -->
<svg version="1.1" id="圖層_1" xmlns="http://www.w3.org/2000/svg" xmlns:xlink="http://www.w3.org/1999/xlink" x="0px" y="0px"
	 viewBox="0 0 544.91 183.14" style="enable-background:new 0 0 544.91 183.14;" xml:space="preserve">
<style type="text/css">
	.st0{fill:#A7ABAF;}
</style>
<g>
	<g>
		<path class="st0" d="M170.5,106.94V94.96h-7v11.98h-6.51V79.28h6.51V90.7h7V79.28h6.51v27.66H170.5z"/>
		<path class="st0" d="M190.8,107.38c-6.47,0-9.77-4.74-9.77-11.3c0-6.55,3.3-11.26,9.77-11.26c6.47,0,9.77,4.71,9.77,11.26
			C200.57,102.64,197.27,107.38,190.8,107.38z M190.8,88.69c-2.61,0-3.5,3.06-3.5,7.28c0,4.22,0.88,7.36,3.5,7.36
			c2.61,0,3.5-3.14,3.5-7.36C194.3,91.74,193.41,88.69,190.8,88.69z"/>
		<path class="st0" d="M216.61,106.94V92.27c0-2.37-1-3.54-3.5-3.54c-0.96,0-1.73,0.16-2.49,0.44v17.77h-6.27V86.44
			c2.45-1.04,5.43-1.57,8.77-1.57c6.84,0,9.77,2.77,9.77,7.44v14.64H216.61z"/>
		<path class="st0" d="M235.99,115.99c-3.18,0-6.31-0.68-8.08-1.65l1.61-4.06c1.37,0.72,3.38,1.29,5.35,1.29c3.3,0,4.5-1.77,4.5-4.3
			v-0.96c-0.76,0.36-1.93,0.68-3.78,0.68c-5.35,0-8.93-4.06-8.93-10.53c0-7.36,4.06-11.62,11.34-11.62c2.77,0,5.67,0.56,7.6,1.57
			v20.26C245.59,112.81,241.9,115.99,235.99,115.99z M239.36,88.85c-0.52-0.24-1.21-0.36-1.97-0.36c-3.1,0-4.54,2.69-4.54,7.6
			c0,4.78,1.37,7.24,4.42,7.24c0.84,0,1.57-0.2,2.09-0.48V88.85z"/>
		<path class="st0" d="M250.46,106.94V79.28h6.51v23.28h7.04v4.38H250.46z"/>
		<path class="st0" d="M285.31,96.41l-13.03,1.85c0.4,3.06,2.37,4.82,5.43,4.82c1.97,0,4.14-0.56,5.47-1.25l1.45,3.94
			c-2.01,1-4.95,1.61-7.92,1.61c-6.96,0-10.57-4.74-10.57-11.34c0-6.8,3.66-11.22,9.93-11.22c6.07,0,9.29,3.94,9.29,10.66
			C285.35,95.8,285.35,95.96,285.31,96.41z M275.83,88.49c-2.57,0-3.98,2.49-3.98,6.15v0.56l7.56-1.17
			C279.36,90.5,278.28,88.49,275.83,88.49z"/>
		<path class="st0" d="M298.14,107.38c-6.47,0-9.77-4.74-9.77-11.3c0-6.55,3.3-11.26,9.77-11.26c6.47,0,9.77,4.71,9.77,11.26
			C307.91,102.64,304.61,107.38,298.14,107.38z M298.14,88.69c-2.61,0-3.5,3.06-3.5,7.28c0,4.22,0.88,7.36,3.5,7.36
			c2.61,0,3.5-3.14,3.5-7.36C301.64,91.74,300.75,88.69,298.14,88.69z"/>
		<path class="st0" d="M323.95,106.94V92.27c0-2.37-1-3.54-3.5-3.54c-0.96,0-1.73,0.16-2.49,0.44v17.77h-6.27V86.44
			c2.45-1.04,5.43-1.57,8.77-1.57c6.84,0,9.77,2.77,9.77,7.44v14.64H323.95z"/>
		<path class="st0" d="M343.33,115.99c-3.18,0-6.31-0.68-8.08-1.65l1.61-4.06c1.37,0.72,3.38,1.29,5.35,1.29c3.3,0,4.5-1.77,4.5-4.3
			v-0.96c-0.76,0.36-1.93,0.68-3.78,0.68c-5.35,0-8.93-4.06-8.93-10.53c0-7.36,4.06-11.62,11.34-11.62c2.77,0,5.67,0.56,7.6,1.57
			v20.26C352.94,112.81,349.24,115.99,343.33,115.99z M346.7,88.85c-0.52-0.24-1.21-0.36-1.97-0.36c-3.1,0-4.54,2.69-4.54,7.6
			c0,4.78,1.37,7.24,4.42,7.24c0.84,0,1.57-0.2,2.09-0.48V88.85z"/>
		<path class="st0" d="M366.88,106.94V79.28h3.7v27.66H366.88z"/>
		<path class="st0" d="M387.87,106.94V91.98c0-3.26-1.33-4.87-4.87-4.87c-1.49,0-2.69,0.24-3.82,0.72v19.1h-3.54V86.4
			c2.01-0.92,4.66-1.53,7.36-1.53c5.83,0,8.4,2.53,8.4,7.12v14.96H387.87z"/>
		<path class="st0" d="M400.73,107.34c-2.13,0-4.46-0.56-5.83-1.49l1-2.25c1.29,0.8,2.94,1.25,4.46,1.25c2.53,0,4.18-1.61,4.18-3.74
			c0-5.31-9.17-3.18-9.17-10.33c0-3.34,2.69-5.91,6.67-5.91c2.09,0,3.98,0.52,5.43,1.49l-0.92,2.09c-1.13-0.72-2.61-1.25-4.02-1.25
			c-2.49,0-3.66,1.53-3.66,3.42c0,4.95,9.25,2.94,9.25,10.33C408.13,104.45,405.16,107.34,400.73,107.34z"/>
		<path class="st0" d="M419.83,107.34c-5.19,0-7.92-2.21-7.92-7.08v-15h3.54v15.12c0,3.02,1.41,4.54,4.42,4.54
			c1.37,0,2.94-0.24,3.86-0.72V85.27h3.54v20.47C425.62,106.62,422.64,107.34,419.83,107.34z"/>
		<path class="st0" d="M440.45,87.64c-0.64-0.24-1.41-0.36-2.21-0.36c-0.96,0-1.97,0.16-2.73,0.56v19.1h-3.54V86.4
			c1.85-0.92,4.3-1.53,7.4-1.53c0.8,0,1.69,0.08,1.89,0.12L440.45,87.64z"/>
		<path class="st0" d="M450.79,107.34c-5.19,0-8.24-2.25-8.24-6.55c0-5.23,5.15-7.24,12.14-7.92v-1.33c0-2.98-1.61-4.3-4.62-4.3
			c-1.89,0-3.94,0.56-5.43,1.37l-0.84-2.17c1.81-0.92,4.26-1.57,6.59-1.57c4.7,0,7.6,2.21,7.6,7.04v13.91
			C456.25,106.74,453.68,107.34,450.79,107.34z M454.69,94.72c-5.51,0.64-8.76,2.17-8.76,5.99c0,2.94,1.81,4.58,5.19,4.58
			c1.37,0,2.73-0.28,3.58-0.72V94.72z"/>
		<path class="st0" d="M474.91,106.94V91.98c0-3.26-1.33-4.87-4.87-4.87c-1.49,0-2.69,0.24-3.82,0.72v19.1h-3.54V86.4
			c2.01-0.92,4.66-1.53,7.36-1.53c5.83,0,8.4,2.53,8.4,7.12v14.96H474.91z"/>
		<path class="st0" d="M490.71,107.34c-5.23,0-8.4-4.62-8.4-11.26c0-6.63,3.22-11.22,8.4-11.22c2.01,0,3.7,0.52,4.87,1.41
			l-0.84,2.09c-0.84-0.64-2.13-1.09-3.42-1.09c-3.46,0-5.39,3.74-5.39,8.72c0,4.91,1.97,8.77,5.39,8.77c1.29,0,2.53-0.4,3.38-1.05
			l0.88,2.21C494.41,106.82,492.72,107.34,490.71,107.34z"/>
		<path class="st0" d="M500.76,97.49c0.32,4.46,2.57,7.32,6.67,7.32c1.97,0,4.06-0.56,5.27-1.29l0.92,2.29
			c-1.53,0.88-4.02,1.53-6.55,1.53c-6.19,0-9.73-4.26-9.73-11.3c0-6.8,3.26-11.18,8.77-11.18c5.19,0,8.28,3.38,8.28,10.21v0.4
			L500.76,97.49z M506.02,87.08c-3.58,0-5.43,3.38-5.43,8.28v0.2l10.37-1.61C510.89,89.57,509.4,87.08,506.02,87.08z"/>
	</g>
</g>
<g>
	<path class="st0" d="M129.74,61.24c-3.58-0.45-7.08-1.12-10.59-2.04c-16.5-4.44-30.6-14.12-40.59-27.64L66.88,38.3
		c5.17,7.19,11.34,13.56,18.42,18.93c9.1,6.9,19.27,11.92,30.36,14.9c4.66,1.22,9.34,2.05,14.08,2.55V61.24z"/>
	<path class="st0" d="M129.74,97.63V84.19c-5.58-0.55-11.09-1.46-16.51-2.93c-12.25-3.31-23.6-8.83-33.59-16.49
		c-8.1-6.12-15.1-13.41-20.94-21.7l-11.58,6.71c6.75,9.87,14.92,18.46,24.41,25.71c11.43,8.66,24.36,14.95,38.2,18.75
		C116.41,96,122.99,97.09,129.74,97.63"/>
	<path class="st0" d="M38.97,54.51c7.32,10.97,16.4,20.51,26.92,28.47c12.43,9.46,26.33,16.27,41.43,20.34
		c7.43,1.98,14.83,3.22,22.43,3.78v13.44c-8.75-0.55-17.34-2.02-25.84-4.31c-16.75-4.48-32.27-12.1-46.11-22.57
		c-11.93-9.09-22.1-19.98-30.42-32.46L38.97,54.51z"/>
	<path class="st0" d="M38.97,127.28c7.32-10.97,16.4-20.52,26.92-28.52c12.43-9.38,26.33-16.24,41.43-20.3
		c7.43-1.97,14.83-3.22,22.43-3.78V61.23c-8.75,0.6-17.34,2.02-25.84,4.33c-16.75,4.51-32.27,12.1-46.11,22.57
		c-11.93,9.08-22.1,19.98-30.42,32.46L38.97,127.28z"/>
	<path class="st0" d="M129.74,84.19v13.45c-5.58,0.49-11.09,1.43-16.51,2.89c-12.25,3.31-23.6,8.83-33.59,16.5
		c-8.1,6.11-15.1,13.39-20.94,21.74l-11.58-6.75c6.75-9.84,14.92-18.46,24.41-25.67c11.43-8.71,24.36-14.98,38.2-18.76
		C116.41,85.82,122.99,84.7,129.74,84.19"/>
	<path class="st0" d="M129.74,120.54c-3.58,0.46-7.08,1.09-10.59,2.05c-16.5,4.44-30.6,14.12-40.59,27.63l-11.68-6.74
		c5.17-7.24,11.34-13.56,18.42-18.92c9.1-6.92,19.27-11.94,30.36-14.91c4.66-1.26,9.34-2.09,14.08-2.55V120.54z"/>
</g>
</svg>
