<?xml version="1.0" encoding="utf-8"?>
<!-- Generator: Adobe Illustrator 24.0.0, SVG Export Plug-In . SVG Version: 6.00 Build 0)  -->
<svg version="1.1" id="Layer_1" xmlns="http://www.w3.org/2000/svg" xmlns:xlink="http://www.w3.org/1999/xlink" x="0px" y="0px"
	 viewBox="0 0 310.16 83.44" style="enable-background:new 0 0 310.16 83.44;" xml:space="preserve">
<style type="text/css">
	.st0{fill:#A7ABAF;}
</style>
<title>cimic</title>
<polygon class="st0" points="207.13,14.48 205.39,14.48 189.83,45.55 189.68,45.55 174.12,14.48 172.38,14.48 158.62,68.47 
	170.81,68.47 176.76,45.36 176.91,45.36 188.95,69.24 190.56,69.24 202.6,45.36 202.76,45.36 208.71,68.47 220.89,68.47 "/>
<path class="st0" d="M91.72,22.5C81.2,33.36,81.48,50.7,92.34,61.22c10.59,10.26,27.4,10.28,38.03,0.06l-8.65-8.67
	c-5.93,5.95-15.56,5.95-21.51,0.02c-5.95-5.93-5.95-15.56-0.02-21.51s15.56-5.95,21.51-0.02c0.01,0.01,0.01,0.01,0.02,0.02
	l8.68-8.68c-10.7-10.63-27.98-10.61-38.65,0.06L91.72,22.5z"/>
<path class="st0" d="M258.02,22.5c-10.71,10.69-10.73,28.03-0.04,38.74s28.03,10.73,38.74,0.04l0,0l-8.67-8.67
	c-5.93,5.95-15.56,5.95-21.51,0.02c-5.95-5.93-5.95-15.56-0.02-21.51s15.56-5.95,21.51-0.02c0.01,0.01,0.01,0.01,0.02,0.02
	l8.67-8.68c-10.7-10.63-27.98-10.61-38.65,0.06L258.02,22.5z"/>
<rect x="138.17" y="15.24" class="st0" width="12.01" height="53.24"/>
<rect x="229.33" y="15.24" class="st0" width="12.01" height="53.24"/>
<path class="st0" d="M21.58,52.5c-4.62,0-8.36,3.75-8.35,8.37s3.75,8.36,8.37,8.35c4.62,0,8.36-3.75,8.35-8.37
	c0-2.21-0.88-4.34-2.45-5.9C25.93,53.37,23.8,52.49,21.58,52.5z"/>
<rect x="51.44" y="14.6" class="st0" width="16.41" height="16.41"/>
<path class="st0" d="M54.72,50.08h10C66.53,50.07,68,48.6,68,46.79v-9.95c0-1.81-1.47-3.28-3.28-3.28H51.44v13.23
	C51.44,48.6,52.91,50.07,54.72,50.08z"/>
<path class="st0" d="M45.6,14.49h-9.94c-1.81,0.01-3.28,1.48-3.29,3.29v9.95c0.01,1.81,1.48,3.28,3.29,3.28h13.23V17.78
	C48.89,15.96,47.42,14.49,45.6,14.49L45.6,14.49z"/>
<path class="st0" d="M56.93,69.1h5.53c3.02,0,5.46-2.44,5.46-5.46c0,0,0-0.01,0-0.01v-5.52c0.01-3.02-2.43-5.46-5.45-5.47
	c0,0-0.01,0-0.01,0h-7.74c-0.33,0-0.67-0.03-1-0.08c-1.73-0.32-3.24-1.4-4.09-2.94c-0.26-0.48-0.46-1-0.58-1.53
	c-0.1-0.43-0.15-0.86-0.15-1.3v-8.33c0-2.69-2.18-4.87-4.87-4.87H35.7c-0.33,0-0.67-0.03-1-0.08c-0.63-0.12-1.24-0.33-1.8-0.64
	c-0.96-0.54-1.75-1.34-2.29-2.3c-0.26-0.48-0.46-1-0.58-1.53c-0.1-0.43-0.15-0.86-0.15-1.3v-7.78c0-3.02-2.45-5.47-5.47-5.47l0,0
	h-5.52c-3.02,0-5.47,2.45-5.47,5.47l0,0v5.57c0,3.02,2.45,5.47,5.47,5.47l0,0h4.83c1.62,0.08,3.19,0.59,4.55,1.48
	c1.06,0.69,1.97,1.6,2.66,2.66c0.13,0.19,0.24,0.39,0.35,0.59c0.75,1.34,1.14,2.86,1.14,4.4v4.45c0,3.02,2.45,5.47,5.47,5.47l0,0
	h4.83c0.89,0.04,1.78,0.22,2.62,0.52c0.68,0.26,1.33,0.59,1.94,1c1.06,0.7,1.96,1.6,2.65,2.66c0.12,0.19,0.24,0.38,0.36,0.59
	c0.74,1.35,1.13,2.87,1.13,4.41v4.44C51.44,66.69,53.91,69.12,56.93,69.1C56.93,69.1,56.93,69.1,56.93,69.1z"/>
<path class="st0" d="M38.95,69.14h3.36c3.64,0,6.59-2.95,6.6-6.59v-3.36c-0.01-3.64-2.96-6.59-6.6-6.6h-4.44c-4.42,0-8-3.58-8-8
	v-4.44c0-3.64-2.95-6.59-6.59-6.6h-3.36c-3.64,0.01-6.59,2.96-6.6,6.6v3.36c0.02,3.55,2.92,6.41,6.47,6.39c0.04,0,0.09,0,0.13,0
	h1.68c2.84,0.01,5.56,1.11,7.62,3.06c2.17,2.06,3.39,4.93,3.36,7.92v1.68c-0.09,3.54,2.71,6.49,6.26,6.58
	C38.88,69.14,38.91,69.14,38.95,69.14z"/>
</svg>
