<?xml version="1.0" encoding="utf-8"?>
<!-- Generator: Adobe Illustrator 24.0.0, SVG Export Plug-In . SVG Version: 6.00 Build 0)  -->
<svg version="1.1" id="Layer_1" xmlns="http://www.w3.org/2000/svg" xmlns:xlink="http://www.w3.org/1999/xlink" x="0px" y="0px"
	 viewBox="0 0 2032.3 870" style="enable-background:new 0 0 2032.3 870;" xml:space="preserve">
<style type="text/css">
	.st0{fill:#A7ABAF;}
</style>
<path class="st0" d="M1862.5,448.4c-23.2-23.4-53.5-38.4-84.4-48.8c-41.7-14.5-86.3-17.8-127.7-33.2c-13.5-5.1-27-11.9-36.9-22.8
	c-13.1-14.5-15.9-36.8-8.1-54.4c5-11.3,14.8-19.9,25.9-25.1c18.3-8.6,39.1-9.9,59-8.3c20.3,1.5,40.8,8.1,56,22.1
	c13.1,11.8,21.3,28.4,24.7,45.6c0.5,4.5,3.7,9.2,8.8,8.8c32.4,0.3,64.8,0.8,97.3,0.8c4.6,0.6,9-3.3,7.7-8.1
	c-3.7-25.9-12.8-51.2-27.5-72.9c-17.8-26.4-44.6-46-74.1-57.7c-27.2-11-56.6-15.7-85.8-17.4h-33.6c-35.9,1.9-72.3,7.1-105.3,22.1
	c-24.1,10.8-46,27.6-59.8,50.4c-13.6,21.7-18.8,47.6-19.1,72.9c-17.4-35.7-43.6-66.9-74.9-91.2c-41.6-32.8-93.6-51.4-146.4-54.2
	H1231c-36.4,2.1-71.9,12.1-104.2,29.2c-47.3,25.4-86.1,64.2-111.3,111.7c-4.1-20-10.6-39.6-21.1-57.2c-13.9-24-34.9-43.6-59.2-56.7
	c-32.1-17.7-68.9-24.8-105.2-26.9H795c-26.3,1.6-52.8,4.6-78.1,12.2c-29.4,8.7-57.9,23.7-77.5,47.9c-11.2,13.4-18.5,29.6-23.3,46.3
	c0-27.5,0-55,0-82.5c0-3-0.1-6.6-2.7-8.6c-2.2-2.4-5.6-2.2-8.6-2.3c-29.3,0.1-58.7-0.1-88,0.1c-4.4-0.3-7.9,3.8-8.1,8
	c-0.5,7.9,0.2,15.8-0.2,23.7c0.3,1.9-0.6,3.7-2.3,4.7c-3-1.3-5.6-3.3-8.3-5.1c-35.4-24.9-77.1-41.7-120.5-44.4h-23.2
	c-23.6,1.3-47,5.4-69.4,13.1c-38.8,13.4-73.8,36.9-102.3,66.3c-33.5,33.7-57.3,77.1-66.5,123.7c-2.9,13.9-4.4,28.1-5.4,42.2v28.9
	c1.7,31.9,8.4,63.7,21.6,92.9c20.8,46.2,55.9,85.6,98.2,113.3c40.4,26.5,89,39.4,137.1,38.8c48.1,0.4,95.3-17.8,133-47.2
	c2.1-1.4,5.9-5.3,7.8-1.6c0.9,9.2-0.2,18.5,0.4,27.7c0.1,4.1,3.6,8.1,7.9,8c30.5,0.1,61,0.1,91.4,0c4.7,0.2,8.4-4.4,8-9
	c0.2-27.1-0.1-54.1,0.1-81.1c9,19.1,20.6,37.2,36.2,51.7c26.1,25,60.7,39.2,95.8,45.8c29.2,5.8,59.2,6.3,88.9,5.5
	c31.4-1.4,62.8-6.2,92.6-16.4c23.7-8.1,46.4-20,64.9-37.1c17.8-16.5,30.4-37.9,36.1-61.5c7.9,11.5,16.6,22.3,26,32.5
	c34.4,37.7,80.5,64.6,130.3,75.7c56.5,12.9,117.7,8.3,170.3-16.9c49.2-23.4,90.4-62.8,117-110.3c7.3,28.4,20.4,55.8,40.8,77
	c17.4,18.5,39.5,32.1,63.2,40.9c41,15.4,85.5,17.5,128.9,16.1c35.7-1.8,71.6-7.8,104.7-21.5c25.6-10.6,49.7-26.4,66.4-48.8
	c14.6-19.3,22.4-43,24.3-66.9v-22.8C1899.8,503.3,1886.2,471.3,1862.5,448.4L1862.5,448.4z M484.9,534.6
	c-13.8,24.9-35.7,44.2-62.1,54.8c-33.5,13.5-72.2,15.4-106.2,2.4c-29.7-11-54.9-33.1-70.6-60.5c-19.4-33.3-25.6-73-22.8-111.1
	c3.2-38.5,18-76.9,45-105.1c19.6-20.5,45.4-34,73.4-38.6c31-4.7,63.8-0.8,92.1,13c24.7,12,44.4,33.1,55.9,57.9
	c12.3,26.4,16.6,55.8,17.1,84.7C507.2,467.3,502.3,503.6,484.9,534.6L484.9,534.6z M905.9,577c-7.3,12.9-19.4,22.5-33,27.9
	c-16.7,7-35.1,8.3-53,7.7c-26.7-0.8-54.7-7.6-74.8-26.2c-15.5-13.9-24.5-33.8-28.1-54.2c-0.4-3.9-3.1-8.3-7.5-8.1
	c-31.1-1-62.2-0.6-93.3-1.6c-0.2-53.5,0.2-107.1-0.2-160.6c3.5,10.5,7.6,21,13.9,30.2c11.8,18,29.3,31.5,48.1,41.5
	c35.2,18.6,74.7,26.7,113.4,34.4c29.4,6.2,59.4,12,86.5,25.4c15.7,7.9,30.9,20.3,35.2,38.1C916.2,547,913.6,563.1,905.9,577
	L905.9,577z M988.4,442.9c-23.3-21-52.2-34.7-81.8-44.4c-31.4-10.6-64.4-14.9-96.3-23.4c-16.9-4.5-33.9-9.7-49.1-18.7
	c-11.2-6.7-21.4-16.6-25.5-29.3c-4.9-14.8-3.5-32.1,5.6-45c7.7-11.4,20.3-18.6,33.3-22.5c17.7-5.1,36.4-5.4,54.6-3.2
	c18.7,2.4,37.3,9.7,50.8,23.2c12.1,11.6,19.6,27.3,22.7,43.6c0.6,4.3,3.3,9,8.1,8.9c32.6,0.4,65.1,0.8,97.7,0.8
	C993.9,367.6,987.5,405.4,988.4,442.9L988.4,442.9z M1367.7,530.8c-12.6,23.7-32.9,43.1-56.8,55.3c-27.4,13.8-59.4,17.3-89.6,12.6
	c-25.3-4-49-15.3-68-32.5c-19.2-16.8-32.2-39.7-39.9-63.8c-9.4-29.8-11.6-61.7-8-92.7c4.3-33.9,16.5-68.2,40.8-93.1
	c21.9-23.1,51.3-37.6,82.9-41c26.5-2.9,54.1,0.7,78.3,12.2c25.8,12.5,47.7,33.2,61.1,58.6c13.6,25.9,20.1,55.2,20.7,84.3
	C1390.1,465.1,1384.1,500.3,1367.7,530.8L1367.7,530.8z M1761.3,592.7c-14.6,12.6-33.9,18.2-52.9,19.6c-25.9,1.4-52.9-0.8-76.3-12.8
	c-19.3-9.7-34.3-27.2-41.5-47.6c-3.2-7.6-4-16-6.6-23.7c-2.7-5.5-9.7-3.7-14.6-4.3c-26-0.1-52.1-0.8-78.1-0.8
	c13.3-40.1,16.3-83.3,11-125.2c17.8,23.4,44.6,37.9,71.7,48.1c45,17.1,93.5,21.2,139.4,34.7c17.6,5.4,35.2,12,49.7,23.6
	c9.6,7.6,17.2,18.5,19,30.9C1785,556.1,1777.6,578.8,1761.3,592.7L1761.3,592.7z"/>
</svg>
