<?xml version="1.0" encoding="utf-8"?>
<!-- Generator: Adobe Illustrator 24.0.0, SVG Export Plug-In . SVG Version: 6.00 Build 0)  -->
<svg version="1.1" id="Layer_1" xmlns="http://www.w3.org/2000/svg" xmlns:xlink="http://www.w3.org/1999/xlink" x="0px" y="0px"
	 viewBox="0 0 369.6 170.16" style="enable-background:new 0 0 369.6 170.16;" xml:space="preserve">
<style type="text/css">
	.st0{fill:#A7ABAF;}
</style>
<g>
	<g>
		<path class="st0" d="M81.77,73.94h-3.42c-2.28,0-3.23-1.46-3.23-3.57V55.29h6.65v-4.26h-6.65v-8.02h-4.79v27.29
			c0,5.75,2.89,8.21,8.01,8.21h3.42L81.77,73.94"/>
		<path class="st0" d="M35.68,65.53v0.19C35.68,75.5,43.66,79,51.13,79c7.3,0,14.65-3.5,14.65-11.23c0-7.51-6.17-9.54-11.95-10.86
			l-2.02-0.44c-5.19-1.13-9.68-2.09-9.68-5.95c0-5.5,5.66-6.13,8.08-6.13c5.34,0,8.45,2.58,8.97,7.39l0.02,0.18h5.04l0-0.21
			c-0.29-7.57-5.33-11.89-13.82-11.89c-6.77,0-13.6,3.4-13.6,11.02c0,6.79,5.68,8.59,12.01,9.98l1.25,0.27
			c5.35,1.14,10.39,2.22,10.39,6.79c0,5.67-5.74,6.51-9.17,6.51c-2.89,0-5.5-0.74-7.36-2.08c-2.09-1.52-3.19-3.8-3.19-6.63v-0.2
			L35.68,65.53"/>
		<path class="st0" d="M110.59,74.1l-0.27,0.1c-0.6,0.22-0.99,0.25-1.27,0.25c-1.15,0-1.21-0.62-1.21-2.79V57.89
			c0-5.09-3.34-7.56-10.23-7.56c-4.17,0-11.22,1.18-11.53,9.15l0,0.21h4.78l0.01-0.19c0.18-3.33,2.25-4.9,6.49-4.9
			c3.91,0,5.75,1.35,5.75,4.27c0,2.43-2.46,2.77-5.86,3.25c-0.97,0.14-1.96,0.28-3,0.48c-4.66,0.89-9.22,2.28-9.22,8.43
			c0,4.81,3.39,7.71,9.05,7.71c3.81,0,6.9-1.35,9.27-3.9c0.19,3.16,2.18,3.9,3.88,3.9c1.38,0,2.42-0.27,3.26-0.78l0.1-0.06
			L110.59,74.1 M95.07,74.44c-1.49,0-4.98-0.36-4.98-3.72c0-3.24,2.65-4.18,5.22-4.64c0.79-0.13,1.62-0.25,2.42-0.35
			c2.06-0.27,4.01-0.52,5.32-1.3c0,0,0.11-0.07,0,0v4.17C103.06,70.86,100.89,74.44,95.07,74.44z"/>
		<path class="st0" d="M114.83,51.04v27.14h4.8v-15.3c0-5.11,2.88-8.19,7.72-8.19c3.22,0,5.23,2.01,5.23,5.19v18.3h4.8V60.4
			c0-6.73-3.09-9.99-9.42-9.99c-3.85,0-6.73,1.51-8.6,4.51v-3.89L114.83,51.04"/>
		<path class="st0" d="M162.84,40.84v13.5c-2.03-2.87-5.7-3.92-8.53-3.92c-7.56,0-12.42,5.53-12.42,14.12c0,3.94,1.12,7.49,3.12,10
			c2.22,2.79,5.48,4.3,9.41,4.3c3.92,0,6.96-1.45,8.43-3.92v3.27h4.8V40.84H162.84 M155.02,74.53c-5.58,0-8.09-4.85-8.09-9.69
			c0-3.04,0.76-10.15,7.84-10.15c7.62,0,8.22,7.62,8.22,9.94C162.99,69.43,160.91,74.53,155.02,74.53z"/>
		<path class="st0" d="M198.02,74.19l-0.26,0.1c-0.6,0.22-1,0.25-1.28,0.25c-1.18,0-1.23-0.62-1.23-2.79V57.98
			c0-5.09-3.34-7.56-10.2-7.56c-4.2,0-11.24,1.18-11.55,9.15l-0.01,0.21h4.8l0.01-0.19c0.18-3.33,2.23-4.9,6.48-4.9
			c3.92,0,5.74,1.38,5.74,4.27c0,2.43-2.45,2.78-5.84,3.25c-0.98,0.14-1.96,0.28-3,0.48c-4.65,0.9-9.21,2.28-9.21,8.43
			c0,4.81,3.37,7.71,9.04,7.71c3.81,0,6.91-1.35,9.25-3.9c0.19,3.16,2.18,3.9,3.88,3.9c1.4,0,2.43-0.27,3.28-0.78l0.09-0.06
			L198.02,74.19 M182.5,74.53c-1.5,0-4.96-0.36-4.96-3.72c0-3.24,2.62-4.18,5.2-4.64c0.78-0.13,1.61-0.25,2.43-0.34
			c2.06-0.27,4.01-0.52,5.31-1.3c0,0,0.11-0.07,0,0v4.16C190.48,70.95,188.32,74.53,182.5,74.53z"/>
		<path class="st0" d="M216.67,50.42l-0.19,0c-4.48-0.15-7.49,1.65-9.75,5.86v-5.24h-4.52v27.14h4.78v-12.1
			c0-7.22,3.04-10.62,9.48-10.62h0.2V50.42"/>
		<path class="st0" d="M238.3,40.84v13.5c-2.03-2.87-5.68-3.92-8.56-3.92c-7.52,0-12.41,5.53-12.41,14.12c0,3.94,1.11,7.49,3.14,10
			c2.22,2.79,5.46,4.3,9.39,4.3c3.93,0,6.96-1.45,8.43-3.92v3.27h4.81V40.84H238.3 M230.49,74.53c-5.59,0-8.09-4.85-8.09-9.69
			c0-3.04,0.76-10.15,7.84-10.15c7.62,0,8.21,7.62,8.21,9.94C238.45,69.43,236.36,74.53,230.49,74.53z"/>
		<path class="st0" d="M45.58,115.91l-0.02,0.18c-0.5,6.44-4.49,10.48-10.45,10.48c-4.12,0-7.3-1.5-9.45-4.51
			c-1.92-2.64-2.95-6.35-2.95-10.78c0-4.03,1.05-7.66,2.93-10.26c2.15-2.94,5.41-4.49,9.41-4.49c5.41,0,9.19,2.87,10.14,7.72
			l0.03,0.16h5.32l-0.04-0.22c-0.54-3.83-2.35-6.96-5.22-9.09C42.6,93.07,39.07,92,35.12,92c-5.45,0-10.01,1.99-13.18,5.77
			c-2.91,3.47-4.52,8.42-4.52,13.87c0,12,6.63,19.46,17.29,19.46c4.58,0,8.48-1.38,11.27-3.99c2.74-2.57,4.44-6.39,4.9-10.98
			l0.02-0.21L45.58,115.91"/>
		<path class="st0" d="M55.5,92.84v37.41h4.8v-15.33c0-5.14,2.9-8.19,7.71-8.19c3.24,0,5.24,1.98,5.24,5.17v18.35h4.8v-17.84
			c0-6.69-3.07-9.95-9.4-9.95c-2.85,0-6.64,1.08-8.35,4.12V92.84H55.5"/>
		<path class="st0" d="M88.09,111.79l0-0.19c0.18-3.32,2.23-4.87,6.48-4.87c3.93,0,5.75,1.35,5.75,4.24c0,2.46-2.44,2.81-5.85,3.28
			c-0.96,0.14-1.94,0.28-2.98,0.48c-4.67,0.89-9.23,2.28-9.23,8.4c0,4.84,3.39,7.71,9.05,7.71c3.79,0,6.91-1.32,9.25-3.87
			c0.18,3.16,2.19,3.87,3.89,3.87c1.37,0,2.4-0.24,3.25-0.75l0.1-0.05v-3.8l-0.27,0.09c-0.6,0.22-0.99,0.24-1.27,0.24
			c-1.14,0-1.19-0.62-1.19-2.82v-13.76c0-5.06-3.35-7.53-10.24-7.53c-4.18,0-11.22,1.18-11.54,9.12l0,0.21L88.09,111.79
			 M92.3,126.57c-1.5,0-4.98-0.36-4.98-3.75c0-3.24,2.63-4.14,5.22-4.6c0.78-0.14,1.6-0.25,2.39-0.35c2.09-0.27,4.04-0.52,5.33-1.3
			c0,0,0.11-0.06,0,0v4.13C100.27,122.96,98.11,126.57,92.3,126.57z"/>
		<path class="st0" d="M243.11,130.23V92.88h-4.81v13.5c-2.03-2.87-5.68-3.92-8.56-3.92c-7.52,0-12.41,5.53-12.41,14.11
			c0,3.91,1.11,7.48,3.14,10c2.22,2.79,5.46,4.27,9.39,4.27c3.93,0,6.96-1.42,8.43-3.89v3.28L243.11,130.23 M230.49,126.57
			c-5.59,0-8.09-4.88-8.09-9.68c0-3.04,0.76-10.16,7.84-10.16c7.62,0,8.21,7.62,8.21,9.95
			C238.45,121.45,236.36,126.57,230.49,126.57z"/>
		<path class="st0" d="M164.17,121.8c-0.82,3.09-3.14,4.77-6.64,4.77c-2.47,0-4.55-0.77-5.96-2.24c-1.44-1.52-2.2-3.69-2.16-6.16
			h20.01l0.02-0.19c0.19-4.83-1.29-9.41-3.97-12.19c-2.13-2.21-4.93-3.33-8.34-3.33c-7.4,0-12.78,5.92-12.78,14.12
			c0.29,9.08,5.04,14.27,13.03,14.27c6.12,0,10.32-3.29,11.58-9.04H164.17 M156.86,106.73c4.01,0,7.18,3.06,7.49,7.17h-14.91
			C149.78,110.28,152.19,106.73,156.86,106.73z"/>
		<path class="st0" d="M208.94,121.86c-0.83,3.04-3.18,4.7-6.64,4.7c-2.47,0-4.53-0.77-5.94-2.24c-1.48-1.52-2.23-3.69-2.19-6.16
			h20.02l0.01-0.19c0.19-4.83-1.29-9.41-3.96-12.19c-2.12-2.21-4.95-3.33-8.34-3.33c-7.42,0-12.77,5.92-12.77,14.12
			c0.28,9.08,5.02,14.27,13.03,14.27c6.11,0,10.29-3.26,11.56-8.98H208.94 M201.63,106.73c4,0,7.19,3.06,7.5,7.17h-14.94
			C194.54,110.28,196.97,106.73,201.63,106.73z"/>
		<path class="st0" d="M116.82,130.25v-12.13c0-7.26,3.02-10.62,9.49-10.62h0.2v-5.04l-0.19,0c-4.5-0.15-7.53,1.65-9.75,5.82v-5.24
			h-4.54v27.2L116.82,130.25"/>
		<path class="st0" d="M178.95,130.23v-12.11c0-7.25,3-10.62,9.48-10.62h0.2v-5.04l-0.19,0c-4.52-0.15-7.53,1.65-9.75,5.82v-5.22
			h-4.53v27.17H178.95"/>
		<path class="st0" d="M141.93,125.98h-3.41c-2.3,0-3.24-1.46-3.24-3.6v-15.05h6.65v-4.26h-6.65v-8.02h-4.79v27.26
			c0,5.78,2.9,8.24,8.03,8.24h3.41V125.98"/>
		<path class="st0" d="M289.02,140.42c-3.27,1.95-6.25,3.12-9.37,3.12c-8.08,0-14.83-6.62-15.21-14.57l15.73-9.38l24.46,10.94
			L289.02,140.42"/>
		<path class="st0" d="M298.38,100.14l-11.69-5.15c-5.22-2.34-10.15-4.28-10.15-10.03c0-2.98,0.9-4.54,2.33-6.09l24.72,10.9
			l-6.13,3.54c-1.69,1.04-2.86,1.95-2.86,3.25C294.61,97.96,296.21,99.16,298.38,100.14"/>
		<path class="st0" d="M309.86,46.2l-11.99,7.27c-1.06,0.64-2.48,1.68-2.48,3.28c0,1.81,2.77,3.2,5.22,4.38l-14.99-6.62
			c-4.42-1.94-8.82-4.15-8.82-9.48c0-2.24,0.65-4.05,1.69-5.6l32.41-19.81c3.89,2.2,7.65,6.66,7.65,12.63
			C318.55,38.64,315.31,42.93,309.86,46.2"/>
		<path class="st0" d="M335.35,69.63l-2.98,1.68l-24.76-10.93l28.78-17.33c3.88,2.24,7.69,6.65,7.69,12.62
			C344.09,62.07,340.94,66.48,335.35,69.63"/>
		<path class="st0" d="M314.45,90.65l14.64,6.43c5.49,2.46,7.17,5.34,7.17,8.99c0,2.07-1.17,4.15-2.85,5.58l-24.63-10.94l4.17-2.34
			c3.52-1.95,4.7-3.12,4.7-4.41C317.65,92.61,316.83,91.72,314.45,90.65"/>
		<path class="st0" d="M340.55,144.7c-6.23-4.8-12.88-8.04-20.96-11.71l-37.34-16.52c-9.38-4.18-15.61-9.76-15.61-19.14
			c0-9.12,4.42-13.53,10.16-17.16l2.07-1.3c-1.43,1.56-2.33,3.12-2.33,6.09c0,5.75,4.93,7.69,10.15,10.03l43.45,19.15
			c7.56,3.25,14.47,8.83,14.47,18.33C344.61,137.7,342.63,142.37,340.55,144.7"/>
		<path class="st0" d="M336.14,109.95l-2.73,1.69c1.68-1.43,2.85-3.51,2.85-5.58c0-3.64-1.69-6.53-7.17-8.99l-46.46-20.45
			c-9.38-4.15-15.22-9.5-15.22-18.84c0-8.6,4.28-14.21,11.06-18.36c-1.04,1.55-1.68,3.37-1.68,5.6c0,5.33,4.41,7.53,8.82,9.48
			l45.16,19.92c8.21,3.64,14.86,9.12,14.86,19.14C345.64,101.39,341.98,106.32,336.14,109.95"/>
	</g>
</g>
</svg>
