<?xml version="1.0" encoding="utf-8"?>
<!-- Generator: Adobe Illustrator 24.0.0, SVG Export Plug-In . SVG Version: 6.00 Build 0)  -->
<svg version="1.1" id="Layer_1" xmlns="http://www.w3.org/2000/svg" xmlns:xlink="http://www.w3.org/1999/xlink" x="0px" y="0px"
	 viewBox="0 0 222 97" style="enable-background:new 0 0 222 97;" xml:space="preserve">
<style type="text/css">
	.st0{fill:#A7ABAF;}
</style>
<path class="st0" d="M179.57,84.94c1.32,0,2.4-1.06,2.4-2.39V29.37c0-1.33,1.07-2.39,2.4-2.39h9.75c1.3,0,3.1-0.83,3.97-1.83
	L207.84,14c0.51-0.58,0.58-1.1,0.29-1.43c-0.18-0.22-0.56-0.37-1.11-0.37H153.1c-1.32,0-3.11,0.81-3.97,1.8l-9.78,11.16
	c-0.55,0.62-0.6,1.15-0.26,1.49v0.01c0.23,0.19,0.58,0.33,1.07,0.33h22.54c1.32,0,2.4,1.06,2.4,2.39v1.67v51.52
	c0,0.59,0.23,1.14,0.59,1.57c0.02,0,0.02,0.01,0.04,0.02c0.05,0.07,0.1,0.12,0.16,0.16c0.43,0.39,0.98,0.63,1.6,0.63L179.57,84.94
	L179.57,84.94z"/>
<path class="st0" d="M57.63,84.94H69.8c1.32,0,2.4-1.06,2.4-2.39V14.58c0-0.64-0.27-1.24-0.7-1.67l-0.01-0.01h0
	c-0.43-0.43-1.03-0.7-1.69-0.7H57.63c-1.32,0-2.4,1.08-2.4,2.39v21.03c0,1.32-1.07,2.4-2.39,2.4H36.32h-1.78
	c-1.32,0-2.4-1.08-2.4-2.4V14.58c0-0.58-0.23-1.1-0.57-1.52c-0.44-0.52-1.09-0.87-1.83-0.87H17.58c-1.32,0-2.39,1.08-2.39,2.39
	v67.98c0,0.63,0.25,1.19,0.65,1.63c0.44,0.46,1.06,0.75,1.74,0.75h12.16c1.33,0,2.41-1.06,2.41-2.39V56.7c0-1.33,1.08-2.41,2.4-2.41
	h18.3c1.32,0,2.39,1.07,2.39,2.41v1.78v24.07c0,0.64,0.26,1.22,0.68,1.64C56.35,84.65,56.95,84.94,57.63,84.94"/>
<path class="st0" d="M139.77,84.96c1.15,0,1.66-0.69,1.3-1.61c-0.05-0.13-0.12-0.27-0.21-0.4L118.45,48.3l-2.28-3.53
	c-0.72-1.1-0.59-2.81,0.27-3.81l23.52-26.95c0.41-0.47,0.54-0.9,0.42-1.23c-0.13-0.35-0.56-0.58-1.24-0.58h-15.46
	c-1.31,0-3.08,0.81-3.93,1.83l-17.49,20.64l-2.89,3.42c-0.85,1-1.54,0.75-1.54-0.56V14.6c0-0.55-0.21-1.08-0.54-1.49
	c-0.45-0.55-1.11-0.89-1.86-0.89H83.63c-1.32,0-2.4,1.08-2.4,2.39v67.96c0,0.69,0.28,1.29,0.75,1.74c0.44,0.41,1.01,0.67,1.65,0.67
	h11.79c1.31,0,2.4-1.08,2.4-2.41V64.48c0-1.3,0.71-3.19,1.6-4.16l2.47-2.72c0.88-0.98,2.18-0.86,2.89,0.25l2.32,3.65l13.63,21.45
	c0.17,0.25,0.38,0.51,0.65,0.75c0.83,0.74,2.01,1.27,3.03,1.27L139.77,84.96L139.77,84.96z"/>
</svg>
