<?xml version="1.0" encoding="utf-8"?>
<!-- Generator: Adobe Illustrator 24.0.0, SVG Export Plug-In . SVG Version: 6.00 Build 0)  -->
<svg version="1.1" id="Layer_1" xmlns="http://www.w3.org/2000/svg" xmlns:xlink="http://www.w3.org/1999/xlink" x="0px" y="0px"
	 viewBox="0 0 200 123.6" style="enable-background:new 0 0 200 123.6;" xml:space="preserve">
<style type="text/css">
	.st0{fill:#A7ABAF;}
</style>
<g>
	<defs>
		<polygon id="SVGID_1_" points="162.37,48.56 184.86,35.58 162.37,22.6 		"/>
	</defs>
	<use xlink:href="#SVGID_1_"  style="overflow:visible;fill:#A7ABAF;"/>
	<clipPath id="SVGID_2_">
		<use xlink:href="#SVGID_1_"  style="overflow:visible;"/>
	</clipPath>
</g>
<g>
	<defs>
		<polygon id="SVGID_3_" points="162.37,48.56 184.86,61.54 184.86,35.58 		"/>
	</defs>
	<use xlink:href="#SVGID_3_"  style="overflow:visible;fill:#A7ABAF;"/>
	<clipPath id="SVGID_4_">
		<use xlink:href="#SVGID_3_"  style="overflow:visible;"/>
	</clipPath>
</g>
<polygon class="st0" points="139.88,61.54 162.37,74.53 162.37,48.56 "/>
<polygon class="st0" points="139.88,9.61 139.88,35.58 162.37,22.6 "/>
<polygon class="st0" points="162.37,22.6 162.37,22.6 139.88,35.57 162.37,48.56 "/>
<g>
	<defs>
		<polygon id="SVGID_5_" points="162.37,74.53 184.86,61.54 162.37,48.56 		"/>
	</defs>
	<use xlink:href="#SVGID_5_"  style="overflow:visible;fill:#A7ABAF;"/>
	<clipPath id="SVGID_6_">
		<use xlink:href="#SVGID_5_"  style="overflow:visible;"/>
	</clipPath>
</g>
<path class="st0" d="M32.95,102.07c0,1.77-2.86,3.94-5.85,3.94c-2.99,0-4.58-1.46-4.58-3.41c0-2.91,1.89-4.47,6.14-4.47
	c2.95,0,4.29,0.74,4.29,0.74V102.07z M27.9,80.9c-7.04,0-10.47,2.38-10.47,4.72v4.01c0,0,4.18-1.68,9.06-1.68
	c4.69,0,6.46,1.94,6.46,3.92v1.7c0,0-1.69-0.75-5.68-0.75c-8.67,0-13.05,3.96-13.05,9.77c0,6.28,5.04,9.27,11.41,9.27
	c5.07,0,7.32-1.9,7.32-1.9v1.2h7.86V92.51C40.81,86.78,38.34,80.9,27.9,80.9 M105.74,102.07c0,1.77-2.86,3.94-5.85,3.94
	c-2.99,0-4.58-1.46-4.58-3.41c0-2.91,1.89-4.47,6.14-4.47c2.95,0,4.29,0.74,4.29,0.74V102.07z M100.7,80.9
	c-7.04,0-10.47,2.38-10.47,4.72v4.01c0,0,4.18-1.68,9.06-1.68c4.69,0,6.46,1.94,6.46,3.92v1.7c0,0-1.69-0.75-5.68-0.75
	c-8.67,0-13.05,3.96-13.05,9.77c0,6.28,5.04,9.27,11.41,9.27c5.07,0,7.32-1.9,7.32-1.9v1.2h7.86V92.51
	C113.61,86.78,111.13,80.9,100.7,80.9 M155.15,102.07c0,1.77-2.86,3.94-5.85,3.94c-3,0-4.58-1.46-4.58-3.41
	c0-2.91,1.89-4.47,6.14-4.47c2.95,0,4.29,0.74,4.29,0.74V102.07z M150.1,80.9c-7.04,0-10.47,2.38-10.47,4.72v4.01
	c0,0,4.18-1.68,9.06-1.68c4.69,0,6.46,1.94,6.46,3.92v1.7c0,0-1.69-0.75-5.68-0.75c-8.68,0-13.05,3.96-13.05,9.77
	c0,6.28,5.04,9.27,11.41,9.27c5.07,0,7.32-1.9,7.32-1.9v1.2h7.86V92.51C163.01,86.78,160.54,80.9,150.1,80.9 M68.92,81.03
	c-2.82,0-5.69,1.42-7.38,3.83l-3.33,4.73l-5.84-8.56H42.37l11.03,15.39l-10.38,14.75h9.05l5.88-8.41l6.03,8.41h8.95l-10.29-15.1
	l10.53-15.04H68.92z M126.09,101.75V87.78h6.61l3.78-6.75h-10.4V69.79l-4.16,2.04c-2.37,1.17-3.65,3.16-3.65,5.13v26.29
	c0,3.65,1.45,8.61,8.34,8.61c4.01,0,6.75-1.49,6.75-2.39v-5.17C129.07,106.19,126.09,105.6,126.09,101.75 M75.12,86.96v24.21h8.32
	V80.31c0,0-2.3,0.45-4.67,1.62C76.41,83.09,75.12,84.99,75.12,86.96"/>
</svg>
