<svg xmlns="http://www.w3.org/2000/svg" viewBox="0 0 1338.21 348.98"><defs><style>.cls-1{fill:#73caff;}.cls-2{fill:#4da9ff;}.cls-3{fill:#0b82f9;}.cls-4{fill:#0043e0;}.cls-5{fill:#111;}</style></defs><title>skygear-logo</title><g id="Layer_2" data-name="Layer 2"><g id="Layer_1-2" data-name="Layer 1"><path class="cls-1" d="M412.55,42.16A27.78,27.78,0,0,0,388.63.28H219.3C216,.1,212.64,0,209.28,0s-6.84.11-10.22.3a174,174,0,0,0-158.72,126,175.32,175.32,0,0,0-7.2,48.6c0,.43,0,.86,0,1.29,0,11.91,2.44,26.33,5.38,39.07l.14.06A173.92,173.92,0,1,0,369.73,111c1-1.42,2.09-2.83,3.1-4.23C377.09,92.08,412.55,42.16,412.55,42.16Z"/><path class="cls-2" d="M200.39,146.09c85.68-16.87,173.32-8.05,177.85-5.6a173.65,173.65,0,0,0-7.73-27.4l-1.12-2s-108-26.89-204,0c-75,21-118,62-131.26,79.88a235.94,235.94,0,0,0,4.38,24.25l.14.06a172.39,172.39,0,0,0,7.72,23.88s0,0,0-.07C82.39,201.09,134.39,159.09,200.39,146.09Z"/><path class="cls-3" d="M200.39,146.09c-63,12-123,54-154,93-4.25,14.66-42.56,67.82-42.56,67.82A27.71,27.71,0,0,0,27.7,348.69h169q5,.29,10,.29c96.48,0,175.05-78.15,175.74-174.47,0-.43,0-.86,0-1.28,0-9.92-1.69-21.59-4-32.57C378,138.48,288.25,129.36,200.39,146.09Z"/><path class="cls-4" d="M185.39,203.09c-91,37-170,120-174,133-1.06,3.45-1,7,2.34,8.81a29.28,29.28,0,0,0,14,3.79h169q5,.29,10,.29c96.48,0,175.05-78.15,175.74-174.47,0-.43,0-.86,0-1.28C382.39,173.09,266.87,170,185.39,203.09Z"/><path class="cls-5" d="M464.55,232.61l18.51-23.19q13.6,11.82,26.21,17.28a66.14,66.14,0,0,0,26.65,5.47q14.49,0,23.2-5.36t8.7-14.27q0-8-5.91-12.49t-19.74-6.69l-31-5.36q-20.07-3.34-30.44-14.05t-10.38-27.66q0-21.85,16.62-34.57T531.91,99a107,107,0,0,1,34.23,5.8,98.52,98.52,0,0,1,30.23,16.06L579,145a97.81,97.81,0,0,0-24.54-14.16,69.37,69.37,0,0,0-24.75-4.57q-12.95,0-20.75,4.79t-7.8,12.83c0,4.76,1.7,8.48,5.13,11.15s9.14,4.61,17.17,5.8l29.44,4.91q23.21,3.8,34.91,14.83t11.71,29.11q0,22.76-18,36.36t-47.84,13.6a100.15,100.15,0,0,1-36.91-7.14A104,104,0,0,1,464.55,232.61Z"/><path class="cls-5" d="M616.88,257.37V101.24l30.56-6.69v95.68l50.19-49.07H732.2l-54.42,53.31,57.77,62.9h-39l-49.07-53.08v53.08Z"/><path class="cls-5" d="M777.25,262.72l1.79-4.23L733.76,141.16h33.68l28.77,79.19,33-79.19h33L808.7,266.52q-8.93,21-20.74,29.88t-30.78,8.93c-2.68,0-5.24-.12-7.7-.34a31.42,31.42,0,0,1-5.91-1V277.67a46.83,46.83,0,0,0,4.69.67c1.63.14,3.64.22,6,.22a23.6,23.6,0,0,0,13.94-4A27.05,27.05,0,0,0,777.25,262.72Z"/><path class="cls-5" d="M923.35,258a57.52,57.52,0,0,1-23.09-4.68,59.26,59.26,0,0,1-35.8-54.87,57.53,57.53,0,0,1,4.69-23.09,60.29,60.29,0,0,1,12.71-18.85,58.45,58.45,0,0,1,19-12.6,60.18,60.18,0,0,1,23.42-4.57,56,56,0,0,1,16.62,2.45,60.06,60.06,0,0,1,14.83,6.92v-7.59H985.8V257.37q0,23-14.83,35.47t-42.71,12.49a122,122,0,0,1-25.77-2.68,95.88,95.88,0,0,1-22.64-7.81L890.56,271a98.38,98.38,0,0,0,18.74,7,73.47,73.47,0,0,0,18.29,2.34q13.59,0,20.63-5.91t7-17.28v-9.59a52.59,52.59,0,0,1-15,7.8A53.42,53.42,0,0,1,923.35,258Zm-28.77-59.55a32.66,32.66,0,0,0,9.7,23.86A32.09,32.09,0,0,0,928,232.17a40.19,40.19,0,0,0,15.17-2.79,37.39,37.39,0,0,0,12-7.7V176a34.55,34.55,0,0,0-12-7.7,40.89,40.89,0,0,0-14.94-2.78,32.85,32.85,0,0,0-23.87,9.59A31.46,31.46,0,0,0,894.58,198.49Z"/><path class="cls-5" d="M1114.05,242.87A69.72,69.72,0,0,1,1067,259.6a64.69,64.69,0,0,1-24.65-4.68,62.31,62.31,0,0,1-19.85-12.72,58.29,58.29,0,0,1-13.16-19.07,58.92,58.92,0,0,1-4.79-23.75,60.83,60.83,0,0,1,4.57-23.53,59.3,59.3,0,0,1,12.6-19.19,58.64,58.64,0,0,1,19.07-12.82,59.65,59.65,0,0,1,23.53-4.68,54.87,54.87,0,0,1,22.86,4.79A56.67,56.67,0,0,1,1105.46,157a59.4,59.4,0,0,1,12,19.74,69.67,69.67,0,0,1,4.35,24.87v8h-86.54a32.58,32.58,0,0,0,12,17.62,34,34,0,0,0,21,6.69,41,41,0,0,0,14.27-2.45,32.53,32.53,0,0,0,11.38-6.92Zm-50.41-78.51a27.18,27.18,0,0,0-18.06,6.36,32.66,32.66,0,0,0-10.49,17.06H1092a33.62,33.62,0,0,0-10.59-16.84A26.54,26.54,0,0,0,1063.64,164.36Z"/><path class="cls-5" d="M1177,259.38q-18.73,0-30.56-9.93t-11.82-25.76q0-16.5,12.72-25.87t35-9.37a92,92,0,0,1,28.33,4.46v-8.25q0-10-6.24-15.17t-18.29-5.13a60.88,60.88,0,0,0-15.95,2.34,135.82,135.82,0,0,0-19.52,7.25l-11.15-22.53a146.82,146.82,0,0,1,26.43-9.36,106.34,106.34,0,0,1,25.32-3.13q23.41,0,36.46,11.27t13,31.78v75.39h-30.11v-8a54.37,54.37,0,0,1-15.5,7.58A62.76,62.76,0,0,1,1177,259.38ZM1163.79,223a12.15,12.15,0,0,0,5.8,10.6q5.81,3.9,15.39,3.9a48.44,48.44,0,0,0,13.94-1.9,43.1,43.1,0,0,0,11.71-5.46v-17.4a56.1,56.1,0,0,0-11.71-3.23,79.19,79.19,0,0,0-12.82-1q-10.5,0-16.4,3.91A12.09,12.09,0,0,0,1163.79,223Z"/><path class="cls-5" d="M1263.94,257.37V141.16h30.56v12.72A36.74,36.74,0,0,1,1308,142.39a39.07,39.07,0,0,1,17.51-3.9,58.58,58.58,0,0,1,7.47.78,15.64,15.64,0,0,1,5.24,1.89v26.77a31.56,31.56,0,0,0-7.36-2.34,43.14,43.14,0,0,0-8.25-.78,31.31,31.31,0,0,0-16.39,4.46,30.39,30.39,0,0,0-11.71,12.93v75.17Z"/></g></g></svg>