<?xml version="1.0" encoding="utf-8"?>
<!-- Generator: Adobe Illustrator 25.0.1, SVG Export Plug-In . SVG Version: 6.00 Build 0)  -->
<svg version="1.1" id="Layer_1" xmlns="http://www.w3.org/2000/svg" xmlns:xlink="http://www.w3.org/1999/xlink" x="0px" y="0px"
	 viewBox="0 0 374 192" style="enable-background:new 0 0 374 192;" xml:space="preserve">
<style type="text/css">
	.st0{fill:#231F20;}
	.st1{fill:#367FAF;}
	.st2{fill:#231F20;stroke:#231F20;stroke-width:4.108;}
	.st3{fill:#417BA2;}
	.st4{fill:none;stroke:#FFFFFF;stroke-width:1.369;stroke-linecap:round;stroke-linejoin:round;}
	.st5{fill:none;stroke:#FFFFFF;stroke-width:1.369;stroke-linecap:round;stroke-linejoin:bevel;}
	.st6{fill:none;stroke:#FFFFFF;stroke-width:1.369;stroke-linejoin:round;}
	.st7{fill:#FFFFFF;stroke:#FFFFFF;stroke-width:0.456;}
	.st8{fill:#FFFFFF;stroke:#FFFFFF;stroke-width:0.228;}
</style>
<path class="st0" d="M113.1,96.2h-11.6V84.5h12.2c4.5,0,6.7,2,6.7,5.9C120.4,94.3,118,96.2,113.1,96.2 M121.4,84.4
	c-1.6-1.4-3.8-2.1-6.7-2.1l-16.6,0.1v27.9h3.3l0-11.9h12.4c3.1,0,5.5-0.7,7.3-2.1c1.8-1.4,2.7-3.4,2.7-5.9
	C123.8,87.8,123,85.8,121.4,84.4L121.4,84.4z M143.1,104.4c-0.3,0.9-0.9,1.7-1.6,2.4c-1.5,1.5-3.8,2.2-6.9,2.2
	c-2.8,0-4.9-0.7-6.4-2.1c-1.5-1.4-2.2-3.3-2.2-5.7c0-1.2,0.2-2.3,0.6-3.3s1-1.8,1.7-2.4c1.5-1.4,3.7-2.1,6.4-2.1c6,0,9,2.6,9,7.8
	C143.6,102.4,143.4,103.5,143.1,104.4 M143.7,94.1c-2-1.9-5.1-2.8-9.1-2.8c-3.8,0-6.7,0.9-8.8,2.8c-1.9,1.7-2.8,4-2.8,7
	c0,2.9,1,5.2,2.9,7c1.1,1,2.3,1.7,3.7,2.1c1.4,0.4,3.1,0.6,5,0.6c4,0,7-0.9,9.1-2.8c1.9-1.7,2.8-4,2.8-7
	C146.5,98.1,145.6,95.8,143.7,94.1L143.7,94.1z M169,105.2c0,3.8-3.4,5.6-10.1,5.6c-2.1,0-3.8-0.1-5.2-0.4s-2.6-0.7-3.4-1.3
	c-0.7-0.5-1.2-1.1-1.6-1.8c-0.4-0.7-0.7-1.7-0.8-2.8l3.1,0c0,1.5,0.5,2.6,1.6,3.3c1.2,0.8,3.3,1.3,6.3,1.3c4.7,0,7.1-1.2,7.1-3.5
	c0-1.4-0.8-2.3-2.4-2.8c-0.3-0.1-2.2-0.4-5.7-0.8s-5.7-0.8-6.5-1.2c-1.9-0.7-2.8-2.1-2.8-4c0-1.9,0.8-3.3,2.5-4.2
	c0.8-0.4,1.8-0.7,3.1-0.9s2.7-0.3,4.3-0.3c6.5,0,9.7,2,9.7,6.1h-3c0-2.9-2.3-4.3-6.8-4.3c-2.3,0-4,0.3-5.2,0.9
	c-1.1,0.6-1.7,1.5-1.7,2.7c0,1.1,0.8,1.9,2.3,2.4c0.9,0.3,3,0.6,6.2,0.9c2.9,0.3,4.9,0.6,6,1.1C168,101.9,169.1,103.3,169,105.2
	L169,105.2z M181.3,110.3l-1.3,0.2l-0.8,0.1c-2,0-3.5-0.3-4.4-0.9s-1.4-1.6-1.4-3.1V93.8h-3.7v-1.9h3.7l0-6h2.9v6h5v1.9l-5,0v12.4
	c0,0.9,0.2,1.6,0.7,1.9s1.4,0.5,2.6,0.5c0.2,0,0.4,0,0.6,0c0.3-0.1,0.7-0.1,1-0.2L181.3,110.3L181.3,110.3z M201.1,106.1
	c-0.8,0.6-1.7,1.1-2.7,1.5s-2.1,0.5-3.4,0.5c-6,0-9-2.5-9-7.4c0-2.3,0.8-4.1,2.3-5.4c1.5-1.3,3.7-1.9,6.5-1.9c2.8,0,4.9,0.7,6.4,2
	s2.2,3.1,2.2,5.3C203.3,102.9,202.6,104.8,201.1,106.1 M206.2,91.9h-2.9l0,3.2c-1.3-1.3-2.2-2.1-2.7-2.4c-1.6-0.9-3.7-1.3-6.2-1.3
	c-3.7,0-6.6,0.8-8.5,2.5c-1.9,1.6-2.8,3.8-2.8,6.8c0,1.5,0.2,2.8,0.7,3.9s1.2,2.1,2.1,2.9c2,1.6,4.7,2.5,8.3,2.5
	c4.3,0,7.4-1.2,9.2-3.5v3.3c0,2.1-0.7,3.7-2,4.8s-3.5,1.7-6.5,1.7c-2.8,0-4.8-0.4-6-1.2c-0.9-0.6-1.5-1.6-1.9-3.1h-2.9
	c0.3,2.1,1.2,3.5,2.6,4.5c1.6,1.1,4.4,1.6,8.3,1.6c7.5,0,11.2-2.8,11.2-8.3L206.2,91.9L206.2,91.9z M221.6,93.8
	c-0.9-0.1-1.7-0.2-2.4-0.2c-4.7,0-7,2.6-7,7.7v9h-2.8l0-18.3l2.9,0v3.3h0.1c0.5-1.3,1.2-2.3,2.3-2.9c1.1-0.6,2.8-1,5.1-1h1.9
	L221.6,93.8L221.6,93.8z M224.3,99.9c0.4-2.1,1.2-3.7,2.4-4.8c0.8-0.7,1.8-1.2,2.8-1.5c1-0.3,2.2-0.5,3.5-0.5c2.5,0,4.6,0.7,6.2,2.1
	c1.6,1.4,2.4,3,2.4,4.7L224.3,99.9 M241.9,94.3c-1-1-2.2-1.7-3.7-2.2s-3.2-0.7-5.2-0.7c-3.7,0-6.6,0.9-8.6,2.6c-2,1.7-3.1,4.1-3.1,7
	s1,5.3,2.9,7.1c2.1,1.9,5.1,2.9,9,2.9c1.5,0,3-0.2,4.3-0.5c1.3-0.3,2.5-0.8,3.4-1.5c1.7-1.2,2.8-2.8,3.3-4.6h-3.1
	c-1.1,3.1-3.7,4.7-7.9,4.7c-3,0-5.3-0.8-6.9-2.3c-1.4-1.3-2.1-3-2.1-5.1h20.4C244.6,98.5,243.7,96.1,241.9,94.3L241.9,94.3z"/>
<path class="st1" d="M274.8,102.8c0,5.4-4.4,8.2-13.2,8.2c-5.3,0-9.1-0.9-11.5-2.8c-2-1.5-3-3.9-3-7h3.5c0,5.1,3.6,7.6,10.9,7.6
	c3.5,0,6-0.5,7.6-1.6c1.3-0.9,2-2.4,2-4.3c0-1.9-0.9-3.3-2.7-4.1c-1-0.4-3.5-0.9-7.5-1.6c-5-0.8-8.2-1.5-9.7-2.3
	c-2.1-1.1-3.2-3-3.2-5.7c0-2.5,0.9-4.4,2.7-5.6c2-1.3,5.3-2,10.1-2c8.6,0,12.9,2.9,12.9,8.6h-3.6c0-4.3-3.2-6.4-9.6-6.4
	c-3.2,0-5.5,0.4-7,1.3c-1.4,0.9-2.1,2.3-2.1,4c0,1.9,0.9,3.2,2.7,3.9c1,0.4,3.8,1.1,8.5,1.8c4.4,0.7,7.4,1.4,8.9,2.3
	C273.8,98.3,274.8,100.1,274.8,102.8L274.8,102.8z M303.5,105.6c-1.3,1.1-2.8,1.8-4.5,2.4c-1.7,0.5-3.5,0.8-5.6,0.8
	c-4.2,0-7.6-1.1-10.2-3.4s-3.9-5.3-3.9-9.1c0-3.9,1.3-7,3.9-9.2s6-3.3,10.2-3.3c4.3,0,7.7,1.1,10.1,3.4c1.3,1.1,2.3,2.4,2.9,3.9
	c0.6,1.5,0.9,3.2,0.9,5.1C307.4,100.2,306.1,103.3,303.5,105.6 M305.4,107.4c1.8-1.3,3.2-2.9,4.1-4.7s1.3-4,1.3-6.4
	c0-4.3-1.4-7.8-4.3-10.4c-1.5-1.4-3.4-2.5-5.6-3.2s-4.7-1.1-7.5-1.1c-5.4,0-9.7,1.3-12.8,4c-3.1,2.6-4.6,6.2-4.6,10.7
	c0,4.4,1.6,7.9,4.7,10.6c3.1,2.7,7.4,4,12.8,4c2.1,0,4-0.1,5.5-0.4s2.9-0.7,4-1.3l5.2,3.6l2.2-2L305.4,107.4L305.4,107.4z
	 M337.2,110.3h-24.1v-28l3.3-0.1v25.7h20.8L337.2,110.3L337.2,110.3z"/>
<path class="st2" d="M75.2,105.6c0.3-2.4,0.2-2.7,2.3-2.3l0.5,0c1.6,0.1,3.7-0.2,4.9-0.7c2.7-1,4.2-2.8,1.6-2.3
	c-6,1-6.4-0.7-6.4-0.7c6.3-7.9,8.9-18,6.7-20.4c-6.2-6.7-16.9-3.5-17.1-3.5l-0.1,0c-1.2-0.2-2.5-0.3-4-0.3c-2.7,0-4.7,0.6-6.3,1.6
	c0,0-19.1-6.7-18.2,8.4c0.2,3.2,5.4,24.3,11.7,17.9c2.3-2.3,4.5-4.3,4.5-4.3c1.2,0.6,2.5,0.9,3.8,0.8l0.1-0.1c0,0.3,0,0.6,0,0.9
	c-1.6,1.5-1.1,1.8-4.4,2.4c-3.3,0.6-1.3,1.6-0.1,1.8c1.5,0.3,5,0.8,7.4-2l-0.1,0.3c0.6,0.4,0.6,3.1,0.7,5s0.2,3.7,0.7,4.7
	s1,3.7,5.2,3C72.3,115.1,75,114.2,75.2,105.6"/>
<path class="st3" d="M84.6,100.2c-6,1-6.4-0.7-6.4-0.7c6.3-7.9,8.9-18,6.7-20.4c-6.2-6.7-16.9-3.5-17.1-3.5l-0.1,0
	c-1.2-0.2-2.5-0.3-4-0.3c-2.7,0-4.7,0.6-6.3,1.6c0,0-19.1-6.7-18.2,8.4c0.2,3.2,5.4,24.3,11.7,17.9c2.3-2.3,4.5-4.3,4.5-4.3
	c1.2,0.6,2.5,0.9,3.8,0.8l0.1-0.1c0,0.3,0,0.6,0,0.9c-1.6,1.5-1.1,1.8-4.4,2.4c-3.3,0.6-1.3,1.6-0.1,1.8c1.5,0.3,5,0.8,7.4-2
	l-0.1,0.3c0.6,0.4,1.1,2.8,1,4.9s-0.1,3.6,0.4,4.7c0.5,1.1,1,3.7,5.2,3c3.5-0.6,5.4-2.3,5.6-5.1c0.2-2,0.6-1.7,0.6-3.4l0.3-0.8
	c0.4-2.7,0.1-3.5,2.2-3.1l0.5,0c1.6,0.1,3.7-0.2,4.9-0.7C85.7,101.5,87.2,99.8,84.6,100.2L84.6,100.2z"/>
<g>
	<g>
		<path class="st4" d="M62.5,101.8c-0.2,5,0,10,0.6,11.2c0.6,1.2,1.8,3.6,6,2.8c3.5-0.6,4.8-1.9,5.4-4.6c0.4-2,1.2-7.6,1.3-8.8
			 M57.5,76.8c0,0-19.2-6.6-18.2,8.5c0.2,3.2,5.4,24.3,11.7,17.9c2.3-2.3,4.3-4.2,4.3-4.2 M67.8,75.6c-0.7,0.2,10.6-3.5,17.1,3.5
			c2.3,2.5-0.4,12.5-6.7,20.4"/>
		<path class="st5" d="M78.2,99.5c0,0,0.4,1.7,6.4,0.7c2.6-0.5,1,1.3-1.6,2.3c-2.2,0.9-7,1.1-7.1-0.1
			C75.6,99.4,78.4,100.3,78.2,99.5c-0.2-0.7-1.4-1.4-2.2-3c-0.7-1.5-9.8-12.7,2.5-11.1c0.5-0.1-3.2-9.9-14.8-10.1s-11.2,12-11.2,12"
			/>
	</g>
	<g>
		<path class="st6" d="M59.3,100.6c-1.6,1.5-1.1,1.8-4.4,2.4c-3.3,0.6-1.3,1.6-0.1,1.8c1.5,0.3,5,0.8,7.4-2c0.7-0.9,0-2.2-1-2.6
			C60.7,100,60.1,99.8,59.3,100.6L59.3,100.6z"/>
		<path class="st4" d="M59.2,100.5c-0.2-0.9,0.3-2,0.9-3.2c0.8-1.9,2.7-3.7,1.2-9.7c-1.1-4.4-8.7-0.9-8.7-0.3c0,0.6,0.3,3-0.1,5.9
			c-0.6,3.7,2.8,6.8,6.7,6.5"/>
	</g>
</g>
<g>
	<path class="st7" d="M57.4,87.2c0,0.2,0.4,0.8,1.1,0.8s1.2-0.4,1.2-0.6s-0.4-0.4-1.1-0.5C57.9,86.9,57.4,87,57.4,87.2z"/>
	<path class="st8" d="M76.3,86.8c0,0.2-0.4,0.8-1.1,0.8s-1.2-0.4-1.2-0.6c0-0.2,0.4-0.4,1.1-0.5C75.7,86.5,76.2,86.6,76.3,86.8
		L76.3,86.8z"/>
</g>
<path class="st4" d="M78.5,85.4c0.1,1.6-0.4,2.7-0.5,4.4c-0.1,2.5,1.4,5.3-0.9,8.2"/>
</svg>
