<?xml version="1.0" encoding="utf-8"?>
<!-- Generator: Adobe Illustrator 25.0.1, SVG Export Plug-In . SVG Version: 6.00 Build 0)  -->
<svg version="1.1" id="Layer_1" xmlns="http://www.w3.org/2000/svg" xmlns:xlink="http://www.w3.org/1999/xlink" x="0px" y="0px"
	 viewBox="0 0 590 268.4" style="enable-background:new 0 0 590 268.4;" xml:space="preserve">
<style type="text/css">
	.st0{fill-rule:evenodd;clip-rule:evenodd;fill:#B52E31;}
	.st1{fill-rule:evenodd;clip-rule:evenodd;fill:#E23237;}
	.st2{fill-rule:evenodd;clip-rule:evenodd;fill:#FFFFFF;}
</style>
<g>
	<g>
		<g transform="translate(150.000000, 31.000000)">
			<path class="st0" d="M39.6,127.8v-63h8.1l38.5,50.7V64.8h7.7v63h-8.1L47.3,76.6v51.2H39.6L39.6,127.8z"/>
			<path class="st0" d="M156.6,125.3c-5.1,1.9-10.6,2.9-16.4,2.9c-22.8,0-34.2-10.9-34.2-32.8c0-20.7,11-31.1,33-31.1
				c6.3,0,12.2,0.9,17.6,2.6v7c-5.4-2.1-11-3.1-16.7-3.1c-17.2,0-25.8,8.2-25.8,24.4c0,17.5,8.5,26.2,25.4,26.2c2.7,0,5.7-0.4,9-1.1
				V99.2h8.1V125.3L156.6,125.3z"/>
			<path class="st0" d="M169.6,103.5V64.8h8.1v38.7c0,12.1,6,18.2,18.1,18.2c12,0,18.1-6.1,18.1-18.2V64.8h8.1v38.7
				c0,16.5-8.7,24.8-26.2,24.8S169.6,120,169.6,103.5L169.6,103.5L169.6,103.5z"/>
			<path class="st0" d="M244.6,64.8v56.4h33v6.6h-41.1v-63H244.6L244.6,64.8z"/>
			<path class="st0" d="M289.3,127.8h-8.5l31.3-71.3l31.3,71.3h-9l-8.1-19.8h-20.8l2.2-6.6h15.9l-11.8-28.5L289.3,127.8L289.3,127.8
				z"/>
			<path class="st0" d="M352.1,127.8v-63H379c12,0,18,5,18,15.1c0,8.2-5.9,14.3-17.6,18.2l21.6,29.7h-10.7l-20-28.3v-5.3
				c12-1.9,18.1-6.5,18.1-13.9c0-5.8-3.3-8.7-10-8.7h-18v56.2H352.1L352.1,127.8z"/>
		</g>
		<g>
			<path class="st1" d="M39,79l64.5-23l66.2,22.6L159,163.9l-55.5,30.7l-54.6-30.3L39,79L39,79z"/>
			<path class="st0" d="M169.7,78.6L103.5,56v138.6l55.5-30.7L169.7,78.6L169.7,78.6z"/>
			<path class="st2" d="M103.6,72.2L103.6,72.2l-40.2,89.4l15-0.3l8.1-20.2h17.1h18.8l8.8,20.4l14.3,0.3L103.6,72.2L103.6,72.2z
				 M103.7,100.9l13.6,28.4h-13h-0.7H91.8L103.7,100.9L103.7,100.9z"/>
		</g>
	</g>
</g>
</svg>
