<?xml version="1.0" encoding="utf-8"?>
<!-- Generator: Adobe Illustrator 25.0.1, SVG Export Plug-In . SVG Version: 6.00 Build 0)  -->
<svg version="1.1" id="Layer_1" xmlns="http://www.w3.org/2000/svg" xmlns:xlink="http://www.w3.org/1999/xlink" x="0px" y="0px"
	 viewBox="0 0 6146.8 2995.2" style="enable-background:new 0 0 6146.8 2995.2;" xml:space="preserve">
<style type="text/css">
	.st0{fill:#F7DF1E;}
</style>
<path class="st0" d="M1823.4,247.6h2500v2500h-2500V247.6z"/>
<path d="M2480.7,2336.8L2672,2221c36.9,65.4,70.5,120.8,151,120.8c77.2,0,125.9-30.2,125.9-147.7v-798.8h234.9v802.1
	c0,243.3-142.6,354.1-350.7,354.1C2645.2,2551.6,2536.1,2454.2,2480.7,2336.8 M3311.5,2311.6l191.3-110.8
	c50.4,82.2,115.8,142.6,231.6,142.6c97.4,0,159.4-48.7,159.4-115.8c0-80.5-63.8-109.1-171.2-156.1l-58.7-25.2
	c-169.5-72.1-281.9-162.8-281.9-354.1c0-176.2,134.2-310.5,344-310.5c149.4,0,256.8,52,333.9,188L3877,1687.3
	c-40.3-72.2-83.9-100.7-151-100.7c-68.8,0-112.4,43.6-112.4,100.7c0,70.5,43.6,99,144.3,142.7l58.7,25.2
	c199.7,85.6,312.1,172.9,312.1,369.2c0,211.5-166.1,327.2-389.3,327.2C3521.2,2551.6,3380.3,2447.5,3311.5,2311.6"/>
</svg>
