<?xml version="1.0" encoding="utf-8"?>
<!-- Generator: Adobe Illustrator 25.0.1, SVG Export Plug-In . SVG Version: 6.00 Build 0)  -->
<svg version="1.1" id="Layer_1" xmlns="http://www.w3.org/2000/svg" xmlns:xlink="http://www.w3.org/1999/xlink" x="0px" y="0px"
	 viewBox="0 0 328 210" style="enable-background:new 0 0 328 210;" xml:space="preserve">
<style type="text/css">
	.st0{clip-path:url(#SVGID_2_);}
	.st1{fill:url(#SVGID_3_);}
	.st2{clip-path:url(#SVGID_5_);}
	.st3{fill:url(#SVGID_6_);}
	.st4{fill:#005999;}
	.st5{filter:url(#Adobe_OpacityMaskFilter);}
	.st6{enable-background:new    ;}
	.st7{clip-path:url(#SVGID_9_);}
	.st8{clip-path:url(#SVGID_11_);}
	.st9{clip-path:url(#SVGID_13_);fill:url(#SVGID_14_);}
	.st10{mask:url(#SVGID_7_);}
	.st11{clip-path:url(#SVGID_16_);}
	.st12{clip-path:url(#SVGID_18_);}
	.st13{fill:url(#SVGID_19_);}
	.st14{filter:url(#Adobe_OpacityMaskFilter_1_);}
	.st15{clip-path:url(#SVGID_22_);}
	.st16{clip-path:url(#SVGID_24_);}
	.st17{clip-path:url(#SVGID_26_);fill:url(#SVGID_27_);}
	.st18{mask:url(#SVGID_20_);}
	.st19{clip-path:url(#SVGID_29_);fill:#0091BE;}
	.st20{fill:#006CB6;}
	.st21{clip-path:url(#SVGID_31_);}
	.st22{fill:url(#SVGID_32_);}
	.st23{clip-path:url(#SVGID_34_);}
	.st24{fill:url(#SVGID_35_);}
	.st25{filter:url(#Adobe_OpacityMaskFilter_2_);}
	.st26{clip-path:url(#SVGID_38_);}
	.st27{clip-path:url(#SVGID_40_);}
	.st28{clip-path:url(#SVGID_42_);fill:url(#SVGID_43_);}
	.st29{mask:url(#SVGID_36_);}
	.st30{clip-path:url(#SVGID_45_);fill:#00B8F1;}
	.st31{fill:#0078AE;}
	.st32{fill:#005E9C;}
	.st33{filter:url(#Adobe_OpacityMaskFilter_3_);}
	.st34{clip-path:url(#SVGID_48_);}
	.st35{clip-path:url(#SVGID_50_);}
	.st36{clip-path:url(#SVGID_52_);fill:url(#SVGID_53_);}
	.st37{mask:url(#SVGID_46_);}
	.st38{clip-path:url(#SVGID_55_);}
	.st39{clip-path:url(#SVGID_57_);}
	.st40{fill:url(#SVGID_58_);}
	.st41{filter:url(#Adobe_OpacityMaskFilter_4_);}
	.st42{clip-path:url(#SVGID_61_);}
	.st43{clip-path:url(#SVGID_63_);}
	.st44{clip-path:url(#SVGID_65_);fill:url(#SVGID_66_);}
	.st45{mask:url(#SVGID_59_);}
	.st46{clip-path:url(#SVGID_68_);fill:#00A0E3;}
	.st47{fill:#0082C5;}
	.st48{clip-path:url(#SVGID_70_);}
	.st49{fill:url(#SVGID_71_);}
	.st50{fill:#007DC4;}
	.st51{filter:url(#Adobe_OpacityMaskFilter_5_);}
	.st52{clip-path:url(#SVGID_74_);}
	.st53{clip-path:url(#SVGID_76_);}
	.st54{clip-path:url(#SVGID_78_);fill:url(#SVGID_79_);}
	.st55{mask:url(#SVGID_72_);}
	.st56{clip-path:url(#SVGID_81_);}
	.st57{clip-path:url(#SVGID_83_);}
	.st58{fill:url(#SVGID_84_);}
	.st59{clip-path:url(#SVGID_86_);}
	.st60{fill:url(#SVGID_87_);}
	.st61{fill:#00A0E3;}
	.st62{clip-path:url(#SVGID_89_);}
	.st63{fill:url(#SVGID_90_);}
	.st64{clip-path:url(#SVGID_92_);}
	.st65{fill:url(#SVGID_93_);}
	.st66{filter:url(#Adobe_OpacityMaskFilter_6_);}
	.st67{clip-path:url(#SVGID_96_);}
	.st68{clip-path:url(#SVGID_98_);}
	.st69{clip-path:url(#SVGID_100_);fill:url(#SVGID_101_);}
	.st70{mask:url(#SVGID_94_);}
	.st71{clip-path:url(#SVGID_103_);}
	.st72{clip-path:url(#SVGID_105_);}
	.st73{fill:url(#SVGID_106_);}
	.st74{fill:#009ADE;}
	.st75{fill:#0060AE;}
	.st76{fill:#0064B0;}
	.st77{fill:#0062A7;}
	.st78{clip-path:url(#SVGID_108_);}
	.st79{fill:url(#SVGID_109_);}
	.st80{filter:url(#Adobe_OpacityMaskFilter_7_);}
	.st81{clip-path:url(#SVGID_112_);}
	.st82{clip-path:url(#SVGID_114_);}
	.st83{clip-path:url(#SVGID_116_);fill:url(#SVGID_117_);}
	.st84{mask:url(#SVGID_110_);}
	.st85{clip-path:url(#SVGID_119_);fill:#6DC3E8;}
	.st86{clip-path:url(#SVGID_119_);fill:#37BDE9;}
	.st87{clip-path:url(#SVGID_119_);}
	.st88{clip-path:url(#SVGID_121_);}
	.st89{fill:url(#SVGID_122_);}
	.st90{clip-path:url(#SVGID_124_);}
	.st91{fill:url(#SVGID_125_);}
	.st92{filter:url(#Adobe_OpacityMaskFilter_8_);}
	.st93{clip-path:url(#SVGID_128_);}
	.st94{clip-path:url(#SVGID_130_);}
	.st95{clip-path:url(#SVGID_132_);fill:url(#SVGID_133_);}
	.st96{mask:url(#SVGID_126_);}
	.st97{clip-path:url(#SVGID_135_);}
	.st98{clip-path:url(#SVGID_137_);}
	.st99{fill:url(#SVGID_138_);}
	.st100{fill:#231F20;}
</style>
<g>
	<g>
		<g>
			<defs>
				<path id="SVGID_1_" d="M89.9,85.7c5.8,17.6,8,49.1,24.8,49.1l0,0c1.3,0,2.6-0.1,3.9-0.4l0,0c-15.3-3.6-17.2-34.7-26.5-50.8l0,0
					C91.4,84.3,90.7,85,89.9,85.7"/>
			</defs>
			<clipPath id="SVGID_2_">
				<use xlink:href="#SVGID_1_"  style="overflow:visible;"/>
			</clipPath>
			<g class="st0">
				
					<linearGradient id="SVGID_3_" gradientUnits="userSpaceOnUse" x1="-519" y1="-279" x2="-518" y2="-279" gradientTransform="matrix(0 76.3782 76.3782 0 21413.7305 39713.9727)">
					<stop  offset="0" style="stop-color:#0095DA"/>
					<stop  offset="0.1099" style="stop-color:#0095DA"/>
					<stop  offset="0.1857" style="stop-color:#0397DB"/>
					<stop  offset="0.2375" style="stop-color:#0C9EDF"/>
					<stop  offset="0.2822" style="stop-color:#1BA9E5"/>
					<stop  offset="0.3225" style="stop-color:#31B9ED"/>
					<stop  offset="0.35" style="stop-color:#44C8F5"/>
					<stop  offset="0.45" style="stop-color:#44C8F5"/>
					<stop  offset="0.4666" style="stop-color:#40C4F2"/>
					<stop  offset="0.6317" style="stop-color:#1D9DDA"/>
					<stop  offset="0.764" style="stop-color:#0886CB"/>
					<stop  offset="0.8462" style="stop-color:#007DC5"/>
					<stop  offset="1" style="stop-color:#007DC5"/>
				</linearGradient>
				<rect x="-110.5" y="83.7" class="st1" width="229.1" height="229.1"/>
			</g>
		</g>
		<g>
			<defs>
				<path id="SVGID_4_" d="M92.1,83.7c9.4,16.1,11.2,47.3,26.5,50.8l0,0c1.2-0.2,2.4-0.6,3.6-1l0,0c-13.8-6.7-17.6-37-28.2-51.5l0,0
					C93.4,82.5,92.8,83.1,92.1,83.7"/>
			</defs>
			<clipPath id="SVGID_5_">
				<use xlink:href="#SVGID_4_"  style="overflow:visible;"/>
			</clipPath>
			<g class="st2">
				
					<linearGradient id="SVGID_6_" gradientUnits="userSpaceOnUse" x1="-519" y1="-279" x2="-518" y2="-279" gradientTransform="matrix(0 78.3247 78.3247 0 21959.7734 40722.2695)">
					<stop  offset="0" style="stop-color:#0078B9"/>
					<stop  offset="0.1758" style="stop-color:#0078B9"/>
					<stop  offset="0.2435" style="stop-color:#0087C7"/>
					<stop  offset="0.36" style="stop-color:#00ABE6"/>
					<stop  offset="0.52" style="stop-color:#00ABE6"/>
					<stop  offset="0.7321" style="stop-color:#00ACE9"/>
					<stop  offset="0.8462" style="stop-color:#00AEEF"/>
					<stop  offset="1" style="stop-color:#00AEEF"/>
				</linearGradient>
				<rect x="-112.7" y="82" class="st3" width="235" height="235"/>
			</g>
		</g>
		<path class="st4" d="M105.6,74.1c-1.3,0-2.6,0.1-3.9,0.4c-3.4,0.6-6.9,2.1-10.4,4.3c1,0.9,1.9,2,2.7,3.2c3.6-3,7.1-5.1,10.6-6.4
			c1.3-0.5,2.6-0.9,4-1.1C107.7,74.2,106.7,74.1,105.6,74.1"/>
		<defs>
			<filter id="Adobe_OpacityMaskFilter" filterUnits="userSpaceOnUse" x="108.5" y="74" width="28.7" height="53.3">
				<feFlood  style="flood-color:white;flood-opacity:1" result="back"/>
				<feBlend  in="SourceGraphic" in2="back" mode="normal"/>
			</filter>
		</defs>
		<mask maskUnits="userSpaceOnUse" x="108.5" y="74" width="28.7" height="53.3" id="SVGID_7_">
			<g class="st5">
				<g>
					<g>
						<defs>
							<rect id="SVGID_8_" x="64.3" y="72.2" width="89.5" height="31.4"/>
						</defs>
						<clipPath id="SVGID_9_">
							<use xlink:href="#SVGID_8_"  style="overflow:visible;"/>
						</clipPath>
						<g class="st6">
							<g>
								<defs>
									<rect id="SVGID_10_" x="64.3" y="72.2" width="89.5" height="31.4"/>
								</defs>
								<clipPath id="SVGID_11_" class="st7">
									<use xlink:href="#SVGID_10_"  style="overflow:visible;"/>
								</clipPath>
								<g>
									<defs>
										<rect id="SVGID_12_" x="64.3" y="72.2" width="89.5" height="31.4"/>
									</defs>
									<clipPath id="SVGID_13_" class="st8">
										<use xlink:href="#SVGID_12_"  style="overflow:visible;"/>
									</clipPath>
									<g>
										
											<linearGradient id="SVGID_14_" gradientUnits="userSpaceOnUse" x1="-519" y1="-279" x2="-518" y2="-279" gradientTransform="matrix(0 31.3729 31.3729 0 8862.0947 16354.7998)">
											<stop  offset="0" style="stop-color:#231F20"/>
											<stop  offset="0.1531" style="stop-color:#464344"/>
											<stop  offset="0.742" style="stop-color:#CAC9C9"/>
											<stop  offset="1" style="stop-color:#FFFFFF"/>
										</linearGradient>
										<rect x="59.7" y="72.3" class="st9" width="94.1" height="94.1"/>
									</g>
								</g>
							</g>
						</g>
					</g>
				</g>
			</g>
		</mask>
		<g class="st10">
			<g>
				<defs>
					<rect id="SVGID_15_" x="108.6" y="74.1" width="28.6" height="53.2"/>
				</defs>
				<clipPath id="SVGID_16_">
					<use xlink:href="#SVGID_15_"  style="overflow:visible;"/>
				</clipPath>
				<g class="st11">
					<defs>
						<path id="SVGID_17_" d="M133,127.3c1.4-1.1,2.8-2.4,4.2-3.7c-5.9-17.6-8-49.5-25-49.5c-1.2,0-2.4,0.1-3.7,0.3
							C124.1,78.3,126.1,112,133,127.3"/>
					</defs>
					<clipPath id="SVGID_18_">
						<use xlink:href="#SVGID_17_"  style="overflow:visible;"/>
					</clipPath>
					<g class="st12">
						
							<linearGradient id="SVGID_19_" gradientUnits="userSpaceOnUse" x1="-519" y1="-279" x2="-518" y2="-279" gradientTransform="matrix(0 -62.3219 -62.3219 0 -17264.9961 -32212.0645)">
							<stop  offset="0" style="stop-color:#0066B3"/>
							<stop  offset="0.1378" style="stop-color:#0079C1"/>
							<stop  offset="0.415" style="stop-color:#00A9E6"/>
							<stop  offset="0.5" style="stop-color:#00B9F2"/>
							<stop  offset="1" style="stop-color:#00B9F2"/>
						</linearGradient>
						<rect x="108.5" y="-59.8" class="st13" width="187" height="187"/>
					</g>
				</g>
			</g>
		</g>
		<defs>
			<filter id="Adobe_OpacityMaskFilter_1_" filterUnits="userSpaceOnUse" x="105.6" y="74.1" width="6.7" height="0.4">
				<feFlood  style="flood-color:white;flood-opacity:1" result="back"/>
				<feBlend  in="SourceGraphic" in2="back" mode="normal"/>
			</filter>
		</defs>
		<mask maskUnits="userSpaceOnUse" x="105.6" y="74.1" width="6.7" height="0.4" id="SVGID_20_">
			<g class="st14">
				<g>
					<g>
						<defs>
							<rect id="SVGID_21_" x="64.3" y="72.2" width="89.5" height="31.4"/>
						</defs>
						<clipPath id="SVGID_22_">
							<use xlink:href="#SVGID_21_"  style="overflow:visible;"/>
						</clipPath>
						<g class="st6">
							<g>
								<defs>
									<rect id="SVGID_23_" x="64.3" y="72.2" width="89.5" height="31.4"/>
								</defs>
								<clipPath id="SVGID_24_" class="st15">
									<use xlink:href="#SVGID_23_"  style="overflow:visible;"/>
								</clipPath>
								<g>
									<defs>
										<rect id="SVGID_25_" x="64.3" y="72.2" width="89.5" height="31.4"/>
									</defs>
									<clipPath id="SVGID_26_" class="st16">
										<use xlink:href="#SVGID_25_"  style="overflow:visible;"/>
									</clipPath>
									<g>
										
											<linearGradient id="SVGID_27_" gradientUnits="userSpaceOnUse" x1="-519" y1="-279" x2="-518" y2="-279" gradientTransform="matrix(0 31.3729 31.3729 0 8862.0947 16354.7998)">
											<stop  offset="0" style="stop-color:#231F20"/>
											<stop  offset="0.1531" style="stop-color:#464344"/>
											<stop  offset="0.742" style="stop-color:#CAC9C9"/>
											<stop  offset="1" style="stop-color:#FFFFFF"/>
										</linearGradient>
										<rect x="59.7" y="72.3" class="st17" width="94.1" height="94.1"/>
									</g>
								</g>
							</g>
						</g>
					</g>
				</g>
			</g>
		</mask>
		<g class="st18">
			<g>
				<defs>
					<rect id="SVGID_28_" x="105.6" y="74.1" width="6.7" height="0.4"/>
				</defs>
				<clipPath id="SVGID_29_">
					<use xlink:href="#SVGID_28_"  style="overflow:visible;"/>
				</clipPath>
				<path class="st19" d="M108.6,74.4c-1-0.2-2-0.4-3-0.4l6.7,0C111.1,74.1,109.9,74.2,108.6,74.4"/>
			</g>
		</g>
		<path class="st20" d="M132.7,131c-0.7-0.6-1.3-1.3-1.9-2.1c-2.9,2-5.7,3.6-8.5,4.6c1,0.5,2.1,0.9,3.2,1.1c0.9,0.2,1.8,0.3,2.7,0.3
			c3.2,0,5.7-0.4,7.8-1.4C134.8,132.8,133.7,132,132.7,131"/>
		<g>
			<defs>
				<path id="SVGID_30_" d="M104.7,75.5c13.9,7.2,15.1,40.1,26.1,53.4l0,0c0.7-0.5,1.5-1.1,2.2-1.7l0,0c-6.9-15.3-8.9-49-24.4-52.9
					l0,0C107.3,74.7,106,75,104.7,75.5"/>
			</defs>
			<clipPath id="SVGID_31_">
				<use xlink:href="#SVGID_30_"  style="overflow:visible;"/>
			</clipPath>
			<g class="st21">
				
					<linearGradient id="SVGID_32_" gradientUnits="userSpaceOnUse" x1="-519" y1="-279" x2="-518" y2="-279" gradientTransform="matrix(0 81.3213 81.3213 0 22807.3789 42269.3906)">
					<stop  offset="0" style="stop-color:#006CB3"/>
					<stop  offset="9.890750e-02" style="stop-color:#006CB3"/>
					<stop  offset="0.1999" style="stop-color:#007EC1"/>
					<stop  offset="0.4" style="stop-color:#00ABE6"/>
					<stop  offset="0.5165" style="stop-color:#00ABE6"/>
					<stop  offset="0.8462" style="stop-color:#0097D9"/>
					<stop  offset="1" style="stop-color:#0097D9"/>
				</linearGradient>
				<rect x="-111.1" y="74.3" class="st22" width="244" height="244"/>
			</g>
		</g>
		<g>
			<defs>
				<path id="SVGID_33_" d="M94.1,82c10.6,14.6,14.4,44.8,28.2,51.5l0,0c2.8-1,5.7-2.5,8.5-4.6l0,0c-11.1-13.3-12.3-46.2-26.1-53.4
					l0,0C101.2,76.8,97.6,79,94.1,82"/>
			</defs>
			<clipPath id="SVGID_34_">
				<use xlink:href="#SVGID_33_"  style="overflow:visible;"/>
			</clipPath>
			<g class="st23">
				
					<linearGradient id="SVGID_35_" gradientUnits="userSpaceOnUse" x1="-519" y1="-279" x2="-518" y2="-279" gradientTransform="matrix(0 86.4744 86.4744 0 24238.3945 44944.2031)">
					<stop  offset="0" style="stop-color:#00487E"/>
					<stop  offset="0.1099" style="stop-color:#00487E"/>
					<stop  offset="0.39" style="stop-color:#0087C7"/>
					<stop  offset="0.52" style="stop-color:#0087C7"/>
					<stop  offset="0.545" style="stop-color:#0082C2"/>
					<stop  offset="0.7802" style="stop-color:#005598"/>
					<stop  offset="1" style="stop-color:#005598"/>
				</linearGradient>
				<rect x="93.7" y="75.3" class="st24" width="36.7" height="58"/>
			</g>
		</g>
		<defs>
			<filter id="Adobe_OpacityMaskFilter_2_" filterUnits="userSpaceOnUse" x="77.7" y="81" width="12.2" height="19.5">
				<feFlood  style="flood-color:white;flood-opacity:1" result="back"/>
				<feBlend  in="SourceGraphic" in2="back" mode="normal"/>
			</filter>
		</defs>
		<mask maskUnits="userSpaceOnUse" x="77.7" y="81" width="12.2" height="19.5" id="SVGID_36_">
			<g class="st25">
				<g>
					<g>
						<defs>
							<rect id="SVGID_37_" x="30.1" y="70.4" width="89.5" height="76.1"/>
						</defs>
						<clipPath id="SVGID_38_">
							<use xlink:href="#SVGID_37_"  style="overflow:visible;"/>
						</clipPath>
						<g class="st6">
							<g>
								<defs>
									<rect id="SVGID_39_" x="30.1" y="70.4" width="89.5" height="76.1"/>
								</defs>
								<clipPath id="SVGID_40_" class="st26">
									<use xlink:href="#SVGID_39_"  style="overflow:visible;"/>
								</clipPath>
								<g>
									<defs>
										<rect id="SVGID_41_" x="30.1" y="70.4" width="89.5" height="76.1"/>
									</defs>
									<clipPath id="SVGID_42_" class="st27">
										<use xlink:href="#SVGID_41_"  style="overflow:visible;"/>
									</clipPath>
									<g>
										
											<linearGradient id="SVGID_43_" gradientUnits="userSpaceOnUse" x1="-519" y1="-279" x2="-518" y2="-279" gradientTransform="matrix(0 -76.1213 -76.1213 0 -21163.1367 -39360.5977)">
											<stop  offset="0" style="stop-color:#231F20"/>
											<stop  offset="0.4615" style="stop-color:#231F20"/>
											<stop  offset="0.544" style="stop-color:#464344"/>
											<stop  offset="0.8611" style="stop-color:#CAC9C9"/>
											<stop  offset="1" style="stop-color:#FFFFFF"/>
										</linearGradient>
										<rect x="30" y="70.2" class="st28" width="89.5" height="76.1"/>
									</g>
								</g>
							</g>
						</g>
					</g>
				</g>
			</g>
		</mask>
		<g class="st29">
			<g>
				<defs>
					<rect id="SVGID_44_" x="77.7" y="81" width="12.2" height="19.5"/>
				</defs>
				<clipPath id="SVGID_45_">
					<use xlink:href="#SVGID_44_"  style="overflow:visible;"/>
				</clipPath>
				<path class="st30" d="M83.1,85.3c-1.7,3.8-3.4,8.7-5.4,15.2c4.1-5.8,8.2-10.7,12.2-14.8c-0.6-1.7-1.2-3.3-1.8-4.7
					C86.5,82.3,84.8,83.7,83.1,85.3"/>
			</g>
		</g>
		<path class="st31" d="M89.6,79.9c-0.5,0.3-1,0.7-1.5,1.1c0.6,1.4,1.2,3,1.8,4.7c0.7-0.7,1.5-1.4,2.2-2.1
			C91.3,82.3,90.5,81.1,89.6,79.9"/>
		<path class="st32" d="M91.3,78.8c-0.6,0.4-1.2,0.8-1.7,1.2c0.9,1.1,1.7,2.4,2.5,3.7c0.6-0.6,1.3-1.1,1.9-1.7
			C93.2,80.8,92.3,79.7,91.3,78.8"/>
		<defs>
			<filter id="Adobe_OpacityMaskFilter_3_" filterUnits="userSpaceOnUse" x="144.6" y="72.7" width="50.2" height="62.4">
				<feFlood  style="flood-color:white;flood-opacity:1" result="back"/>
				<feBlend  in="SourceGraphic" in2="back" mode="normal"/>
			</filter>
		</defs>
		<mask maskUnits="userSpaceOnUse" x="144.6" y="72.7" width="50.2" height="62.4" id="SVGID_46_">
			<g class="st33">
				<g>
					<g>
						<defs>
							<rect id="SVGID_47_" x="127.8" y="71.3" width="89.5" height="54.6"/>
						</defs>
						<clipPath id="SVGID_48_">
							<use xlink:href="#SVGID_47_"  style="overflow:visible;"/>
						</clipPath>
						<g class="st6">
							<g>
								<defs>
									<rect id="SVGID_49_" x="127.8" y="71.3" width="89.5" height="54.6"/>
								</defs>
								<clipPath id="SVGID_50_" class="st34">
									<use xlink:href="#SVGID_49_"  style="overflow:visible;"/>
								</clipPath>
								<g>
									<defs>
										<rect id="SVGID_51_" x="127.8" y="71.3" width="89.5" height="54.6"/>
									</defs>
									<clipPath id="SVGID_52_" class="st35">
										<use xlink:href="#SVGID_51_"  style="overflow:visible;"/>
									</clipPath>
									<g>
										
											<linearGradient id="SVGID_53_" gradientUnits="userSpaceOnUse" x1="-519" y1="-279" x2="-518" y2="-279" gradientTransform="matrix(0 54.6486 54.6486 0 15419.5498 28433.9375)">
											<stop  offset="0" style="stop-color:#333132"/>
											<stop  offset="0.7308" style="stop-color:#FFFFFF"/>
											<stop  offset="1" style="stop-color:#FFFFFF"/>
										</linearGradient>
										<rect x="53.4" y="71.3" class="st36" width="163.9" height="163.9"/>
									</g>
								</g>
							</g>
						</g>
					</g>
				</g>
			</g>
		</mask>
		<g class="st37">
			<g>
				<defs>
					<rect id="SVGID_54_" x="144.6" y="72.7" width="49.8" height="62.1"/>
				</defs>
				<clipPath id="SVGID_55_">
					<use xlink:href="#SVGID_54_"  style="overflow:visible;"/>
				</clipPath>
				<g class="st38">
					<defs>
						<path id="SVGID_56_" d="M185.9,72.7c-7.8,30.2-24.2,54.5-37.9,60.6c0,0,0,0,0,0c-0.2,0.1-0.5,0.2-0.7,0.3c0,0-0.1,0-0.1,0
							c-0.1,0-0.1,0.1-0.2,0.1c0,0-0.1,0-0.1,0c-0.1,0-0.2,0.1-0.3,0.1c0,0-0.1,0-0.1,0c-0.1,0-0.1,0-0.2,0.1c-0.1,0-0.1,0-0.2,0.1
							c-0.1,0-0.1,0-0.1,0c-0.1,0-0.2,0.1-0.3,0.1c0,0-0.1,0-0.1,0c-0.1,0-0.1,0-0.2,0.1c0,0-0.1,0-0.1,0c-0.1,0-0.1,0-0.2,0.1
							c-0.1,0-0.2,0-0.3,0.1c0.6,0.2,1.3,0.3,2,0.3c13,0,26.1-23.3,47.9-62.1H185.9z"/>
					</defs>
					<clipPath id="SVGID_57_">
						<use xlink:href="#SVGID_56_"  style="overflow:visible;"/>
					</clipPath>
					<g class="st39">
						
							<linearGradient id="SVGID_58_" gradientUnits="userSpaceOnUse" x1="-519" y1="-279" x2="-518" y2="-279" gradientTransform="matrix(0 -60.7101 -60.7101 0 -16768.2754 -31376.7656)">
							<stop  offset="0" style="stop-color:#006DB0"/>
							<stop  offset="0.1281" style="stop-color:#0986C4"/>
							<stop  offset="0.3262" style="stop-color:#16A8DE"/>
							<stop  offset="0.4906" style="stop-color:#1DBDEE"/>
							<stop  offset="0.6" style="stop-color:#20C4F4"/>
							<stop  offset="1" style="stop-color:#20C4F4"/>
						</linearGradient>
						<rect x="144.9" y="-47" class="st40" width="182.1" height="182.1"/>
					</g>
				</g>
			</g>
		</g>
		<defs>
			<filter id="Adobe_OpacityMaskFilter_4_" filterUnits="userSpaceOnUse" x="34.3" y="74.1" width="45.4" height="62.4">
				<feFlood  style="flood-color:white;flood-opacity:1" result="back"/>
				<feBlend  in="SourceGraphic" in2="back" mode="normal"/>
			</filter>
		</defs>
		<mask maskUnits="userSpaceOnUse" x="34.3" y="74.1" width="45.4" height="62.4" id="SVGID_59_">
			<g class="st41">
				<g>
					<g>
						<defs>
							<rect id="SVGID_60_" x="9" y="67.4" width="89.5" height="76.1"/>
						</defs>
						<clipPath id="SVGID_61_">
							<use xlink:href="#SVGID_60_"  style="overflow:visible;"/>
						</clipPath>
						<g class="st6">
							<g>
								<defs>
									<rect id="SVGID_62_" x="9" y="67.4" width="89.5" height="76.1"/>
								</defs>
								<clipPath id="SVGID_63_" class="st42">
									<use xlink:href="#SVGID_62_"  style="overflow:visible;"/>
								</clipPath>
								<g>
									<defs>
										<rect id="SVGID_64_" x="9" y="67.4" width="89.5" height="76.1"/>
									</defs>
									<clipPath id="SVGID_65_" class="st43">
										<use xlink:href="#SVGID_64_"  style="overflow:visible;"/>
									</clipPath>
									<g>
										
											<linearGradient id="SVGID_66_" gradientUnits="userSpaceOnUse" x1="-519" y1="-279" x2="-518" y2="-279" gradientTransform="matrix(0 -76.1162 -76.1162 0 -21182.3457 -39360.4766)">
											<stop  offset="0" style="stop-color:#231F20"/>
											<stop  offset="0.1531" style="stop-color:#464344"/>
											<stop  offset="0.742" style="stop-color:#CAC9C9"/>
											<stop  offset="1" style="stop-color:#FFFFFF"/>
										</linearGradient>
										<rect x="9.3" y="67.7" class="st44" width="89.5" height="76.1"/>
									</g>
								</g>
							</g>
						</g>
					</g>
				</g>
			</g>
		</mask>
		<g class="st45">
			<g>
				<defs>
					<rect id="SVGID_67_" x="34.3" y="74.1" width="45.3" height="62.4"/>
				</defs>
				<clipPath id="SVGID_68_">
					<use xlink:href="#SVGID_67_"  style="overflow:visible;"/>
				</clipPath>
				<path class="st46" d="M74.9,75.3C74.9,75.3,74.9,75.3,74.9,75.3C74.9,75.3,74.9,75.3,74.9,75.3C74.9,75.3,74.9,75.3,74.9,75.3
					c0.1-0.1,0.2-0.1,0.3-0.1c0,0,0,0,0,0c0,0,0,0,0.1,0c0.1,0,0.2-0.1,0.2-0.1c0,0,0,0,0,0c0.2-0.1,0.3-0.1,0.5-0.2c0,0,0,0,0.1,0
					c0.1,0,0.1,0,0.2-0.1c0,0,0.1,0,0.1,0c0.1,0,0.1,0,0.2-0.1c0,0,0.1,0,0.1,0c0.2-0.1,0.5-0.1,0.7-0.2c0,0,0.1,0,0.1,0
					c0.1,0,0.1,0,0.2,0c0,0,0.1,0,0.1,0c0.1,0,0.1,0,0.2,0c0,0,0,0,0.1,0c0.1,0,0.3-0.1,0.4-0.1c0,0,0.1,0,0.1,0c0.1,0,0.1,0,0.2,0
					c0,0,0.1,0,0.1,0c0.1,0,0.1,0,0.2,0c0,0,0.1,0,0.1,0c0.2,0,0.3,0,0.5,0c-0.5,0-0.9-0.1-1.4-0.1c-14.7,0-34.9,27.2-44,62.4
					c0,0,0.7,0,1.8,0c2.9-5.2,5.5-10.1,7.9-14.7C50.4,96.8,63.3,79.8,74.9,75.3"/>
			</g>
		</g>
		<path class="st47" d="M83.1,85.3c1.7-1.6,3.3-3,5-4.3c-0.4-0.8-0.8-1.6-1.2-2.3C85.6,80.4,84.4,82.5,83.1,85.3"/>
		<path class="st47" d="M84.3,75.5c1,0.8,1.8,1.9,2.6,3.2c0.2-0.3,0.5-0.6,0.8-0.8c-1.1-1-2.3-1.9-3.5-2.5
			C84.2,75.4,84.3,75.5,84.3,75.5C84.3,75.5,84.3,75.5,84.3,75.5"/>
		<g>
			<defs>
				<path id="SVGID_69_" d="M44,121.8C57.4,96,63.7,79.7,74.9,75.3l0,0C63.3,79.8,50.4,96.8,44,121.8"/>
			</defs>
			<clipPath id="SVGID_70_">
				<use xlink:href="#SVGID_69_"  style="overflow:visible;"/>
			</clipPath>
			<g class="st48">
				
					<linearGradient id="SVGID_71_" gradientUnits="userSpaceOnUse" x1="-519" y1="-279" x2="-518" y2="-279" gradientTransform="matrix(0 -62.1623 -62.1623 0 -17284.1172 -32129.3027)">
					<stop  offset="0" style="stop-color:#008FD0"/>
					<stop  offset="0.5364" style="stop-color:#009DDB"/>
					<stop  offset="1" style="stop-color:#00A4E0"/>
				</linearGradient>
				<rect x="43.7" y="-64.8" class="st49" width="186.5" height="186.5"/>
			</g>
		</g>
		<path class="st50" d="M87.7,77.9c-0.3,0.3-0.5,0.5-0.8,0.8c0.4,0.7,0.8,1.5,1.2,2.3c0.5-0.4,1-0.7,1.5-1.1
			C89,79.2,88.4,78.5,87.7,77.9"/>
		<defs>
			<filter id="Adobe_OpacityMaskFilter_5_" filterUnits="userSpaceOnUse" x="49" y="100.5" width="28.9" height="36.1">
				<feFlood  style="flood-color:white;flood-opacity:1" result="back"/>
				<feBlend  in="SourceGraphic" in2="back" mode="normal"/>
			</filter>
		</defs>
		<mask maskUnits="userSpaceOnUse" x="49" y="100.5" width="28.9" height="36.1" id="SVGID_72_">
			<g class="st51">
				<g>
					<g>
						<defs>
							<rect id="SVGID_73_" x="21.3" y="79.4" width="67.7" height="79.7"/>
						</defs>
						<clipPath id="SVGID_74_">
							<use xlink:href="#SVGID_73_"  style="overflow:visible;"/>
						</clipPath>
						<g class="st6">
							<g>
								<defs>
									<rect id="SVGID_75_" x="21.3" y="79.4" width="67.7" height="79.7"/>
								</defs>
								<clipPath id="SVGID_76_" class="st52">
									<use xlink:href="#SVGID_75_"  style="overflow:visible;"/>
								</clipPath>
								<g>
									<defs>
										<polygon id="SVGID_77_" points="21.3,141 53.7,159.1 89,97.5 56.6,79.4 										"/>
									</defs>
									<clipPath id="SVGID_78_" class="st53">
										<use xlink:href="#SVGID_77_"  style="overflow:visible;"/>
									</clipPath>
									<g>
										
											<linearGradient id="SVGID_79_" gradientUnits="userSpaceOnUse" x1="-519" y1="-279" x2="-518" y2="-279" gradientTransform="matrix(-58.2128 104.0936 104.0936 58.2128 -1101.4895 70359.7969)">
											<stop  offset="0" style="stop-color:#231F20"/>
											<stop  offset="2.471732e-02" style="stop-color:#4C494A"/>
											<stop  offset="5.426459e-02" style="stop-color:#767374"/>
											<stop  offset="8.626083e-02" style="stop-color:#9B9999"/>
											<stop  offset="0.1204" style="stop-color:#BAB9B9"/>
											<stop  offset="0.1572" style="stop-color:#D3D2D3"/>
											<stop  offset="0.1977" style="stop-color:#E7E6E6"/>
											<stop  offset="0.244" style="stop-color:#F5F4F4"/>
											<stop  offset="0.3009" style="stop-color:#FDFDFD"/>
											<stop  offset="0.4" style="stop-color:#FFFFFF"/>
											<stop  offset="1" style="stop-color:#FFFFFF"/>
										</linearGradient>
										<polygon class="st54" points="122.4,98.5 -52.2,410.8 -364.5,236.2 -189.9,-76.1 										"/>
									</g>
								</g>
							</g>
						</g>
					</g>
				</g>
			</g>
		</mask>
		<g class="st55">
			<g>
				<defs>
					<rect id="SVGID_80_" x="49" y="100.5" width="28.7" height="36"/>
				</defs>
				<clipPath id="SVGID_81_">
					<use xlink:href="#SVGID_80_"  style="overflow:visible;"/>
				</clipPath>
				<g class="st56">
					<defs>
						<path id="SVGID_82_" d="M50.1,136.4L50.1,136.4c-0.1,0-0.2,0-0.2,0c0,0,0,0,0,0c-0.1,0-0.1,0-0.2,0c0,0,0,0,0,0
							c-0.2,0-0.3,0-0.5,0H49c13.5-0.4,19.7-7.2,22.8-17c2.3-7.5,4.2-13.7,5.9-19c-5.7,8-11.4,17.5-17.1,28.1
							C57.9,133.8,53.7,135.9,50.1,136.4"/>
					</defs>
					<clipPath id="SVGID_83_">
						<use xlink:href="#SVGID_82_"  style="overflow:visible;"/>
					</clipPath>
					<g class="st57">
						
							<linearGradient id="SVGID_84_" gradientUnits="userSpaceOnUse" x1="-519" y1="-279" x2="-518" y2="-279" gradientTransform="matrix(0 -60.4251 -60.4251 0 -16795.0898 -31227.1992)">
							<stop  offset="0" style="stop-color:#00A1E4"/>
							<stop  offset="1" style="stop-color:#00A1E4"/>
						</linearGradient>
						<rect x="49.2" y="-44.7" class="st58" width="181.3" height="181.3"/>
					</g>
				</g>
			</g>
		</g>
		<g>
			<defs>
				<path id="SVGID_85_" d="M50.1,136.4L50.1,136.4c3.6-0.5,7.8-2.6,10.6-7.7l0,0c5.7-10.7,11.4-20.2,17.1-28.1l0,0
					c2.1-6.5,3.8-11.4,5.4-15.2l0,0C71.8,96.1,60.5,113.9,50.1,136.4"/>
			</defs>
			<clipPath id="SVGID_86_">
				<use xlink:href="#SVGID_85_"  style="overflow:visible;"/>
			</clipPath>
			<g class="st59">
				
					<linearGradient id="SVGID_87_" gradientUnits="userSpaceOnUse" x1="-519" y1="-279" x2="-518" y2="-279" gradientTransform="matrix(0 -51.0602 -51.0602 0 -14179.3975 -26364.0137)">
					<stop  offset="0" style="stop-color:#005DA4"/>
					<stop  offset="0.1538" style="stop-color:#005DA4"/>
					<stop  offset="0.3179" style="stop-color:#007BC0"/>
					<stop  offset="0.5" style="stop-color:#00A1E4"/>
					<stop  offset="0.5685" style="stop-color:#05A2E4"/>
					<stop  offset="0.6508" style="stop-color:#14A6E4"/>
					<stop  offset="0.7403" style="stop-color:#2CACE4"/>
					<stop  offset="0.8343" style="stop-color:#4EB5E4"/>
					<stop  offset="0.9176" style="stop-color:#72BEE4"/>
					<stop  offset="1" style="stop-color:#72BEE4"/>
				</linearGradient>
				<rect x="49.9" y="85.2" class="st60" width="33.1" height="51.1"/>
			</g>
		</g>
		<path class="st61" d="M44,121.8c-2.4,4.6-5,9.5-7.9,14.7c1.3,0,3.1,0,5.1,0C41.8,131.3,42.8,126.4,44,121.8"/>
		<g>
			<defs>
				<path id="SVGID_88_" d="M79.2,74.2c0,0-0.1,0-0.1,0l0,0c-0.1,0-0.1,0-0.2,0l0,0c0,0-0.1,0-0.1,0l0,0c-0.1,0-0.1,0-0.2,0l0,0
					c0,0-0.1,0-0.1,0l0,0c-0.1,0-0.3,0.1-0.4,0.1l0,0c0,0,0,0-0.1,0l0,0c-0.1,0-0.1,0-0.2,0l0,0c0,0-0.1,0-0.1,0l0,0
					c-0.1,0-0.1,0-0.2,0l0,0c0,0-0.1,0-0.1,0l0,0c-0.2,0.1-0.5,0.1-0.7,0.2l0,0c0,0-0.1,0-0.1,0l0,0c-0.1,0-0.1,0-0.2,0.1l0,0
					c0,0-0.1,0-0.1,0l0,0c-0.1,0-0.1,0-0.2,0.1l0,0c0,0,0,0-0.1,0l0,0c-0.2,0.1-0.3,0.1-0.5,0.2l0,0c0,0,0,0,0,0l0,0
					c-0.1,0-0.1,0.1-0.2,0.1l0,0c0,0-0.1,0-0.1,0l0,0c-0.1,0-0.1,0-0.2,0.1l0,0c0,0-0.1,0-0.1,0l0,0C63.7,79.7,57.4,96,44,121.8l0,0
					c-1.2,4.6-2.1,9.6-2.8,14.7l0,0h0.7c2,0,2.6,0,4.9,0l0,0h0.1h0.3h0.1h0h0.1h0.1h0h0.1H48h0.3h0.2h0.1c0.1,0,0.3,0,0.4,0l0,0
					c0.2,0,0.3,0,0.5,0l0,0c0,0,0,0,0,0l0,0c0.1,0,0.1,0,0.2,0l0,0c0,0,0,0,0.1,0l0,0c0.1,0,0.2,0,0.2,0l0,0v0
					c10.5-22.4,21.8-40.3,33.1-51.1l0,0c1.2-2.8,2.5-5,3.8-6.6l0,0c-0.8-1.3-1.6-2.4-2.6-3.2l0,0c0,0,0,0,0,0l0,0
					c-0.1,0-0.1,0-0.2-0.1l0,0c-0.1,0-0.1-0.1-0.2-0.1l0,0c0,0-0.1,0-0.2-0.1l0,0c-0.1,0-0.1,0-0.2-0.1l0,0c-0.1,0-0.1,0-0.1-0.1
					l0,0c-0.1,0-0.2-0.1-0.3-0.1l0,0c0,0-0.1,0-0.1,0l0,0c-0.1,0-0.2-0.1-0.2-0.1l0,0c0,0-0.1,0-0.1,0l0,0c-0.1,0-0.2-0.1-0.3-0.1
					l0,0c0,0,0,0,0,0l0,0c-0.1,0-0.2-0.1-0.4-0.1l0,0c0,0-0.1,0-0.1,0l0,0c-0.1,0-0.2-0.1-0.3-0.1l0,0c0,0,0,0-0.1,0l0,0
					c-0.2-0.1-0.5-0.1-0.7-0.2l0,0c0,0-0.1,0-0.1,0l0,0c-0.1,0-0.2,0-0.3-0.1l0,0c0,0,0,0-0.1,0l0,0c-0.1,0-0.3,0-0.4,0l0,0
					c0,0,0,0-0.1,0l0,0c-0.1,0-0.2,0-0.3,0l0,0C79.5,74.2,79.4,74.2,79.2,74.2"/>
			</defs>
			<clipPath id="SVGID_89_">
				<use xlink:href="#SVGID_88_"  style="overflow:visible;"/>
			</clipPath>
			<g class="st62">
				
					<linearGradient id="SVGID_90_" gradientUnits="userSpaceOnUse" x1="-519" y1="-279" x2="-518" y2="-279" gradientTransform="matrix(-9.7621 -55.3637 -55.3637 9.7621 -20444.8516 -25877.3496)">
					<stop  offset="0" style="stop-color:#005496"/>
					<stop  offset="0.1044" style="stop-color:#005496"/>
					<stop  offset="1" style="stop-color:#0083C5"/>
				</linearGradient>
				<polygon class="st63" points="42.1,144 12.9,-22.1 178.9,-51.4 208.2,114.7 				"/>
			</g>
		</g>
		<g>
			<defs>
				<path id="SVGID_91_" d="M155.3,89.5c-2.6,8.2-4.7,15-6.5,20.6l0,0c7.1-9.7,14-21.9,20.6-36l0,0C161.7,76.5,157.6,82,155.3,89.5"
					/>
			</defs>
			<clipPath id="SVGID_92_">
				<use xlink:href="#SVGID_91_"  style="overflow:visible;"/>
			</clipPath>
			<g class="st64">
				
					<linearGradient id="SVGID_93_" gradientUnits="userSpaceOnUse" x1="-519" y1="-279" x2="-518" y2="-279" gradientTransform="matrix(0 -28.9327 -28.9327 0 -7913.4634 -14914.5908)">
					<stop  offset="0" style="stop-color:#00A1E4"/>
					<stop  offset="0.4655" style="stop-color:#009FE1"/>
					<stop  offset="0.7814" style="stop-color:#0098D8"/>
					<stop  offset="0.8736" style="stop-color:#0095D4"/>
					<stop  offset="1" style="stop-color:#0095D4"/>
				</linearGradient>
				<rect x="148.4" y="23" class="st65" width="86.8" height="86.8"/>
			</g>
		</g>
		<defs>
			<filter id="Adobe_OpacityMaskFilter_6_" filterUnits="userSpaceOnUse" x="136.8" y="66.3" width="58.7" height="73.6">
				<feFlood  style="flood-color:white;flood-opacity:1" result="back"/>
				<feBlend  in="SourceGraphic" in2="back" mode="normal"/>
			</filter>
		</defs>
		<mask maskUnits="userSpaceOnUse" x="136.8" y="66.3" width="58.7" height="73.6" id="SVGID_94_">
			<g class="st66">
				<g>
					<g>
						<defs>
							<rect id="SVGID_95_" x="130.3" y="67.3" width="89.5" height="31.2"/>
						</defs>
						<clipPath id="SVGID_96_">
							<use xlink:href="#SVGID_95_"  style="overflow:visible;"/>
						</clipPath>
						<g class="st6">
							<g>
								<defs>
									<rect id="SVGID_97_" x="130.3" y="67.3" width="89.5" height="31.2"/>
								</defs>
								<clipPath id="SVGID_98_" class="st67">
									<use xlink:href="#SVGID_97_"  style="overflow:visible;"/>
								</clipPath>
								<g>
									<defs>
										<rect id="SVGID_99_" x="130.3" y="67.3" width="89.5" height="31.2"/>
									</defs>
									<clipPath id="SVGID_100_" class="st68">
										<use xlink:href="#SVGID_99_"  style="overflow:visible;"/>
									</clipPath>
									<g>
										
											<linearGradient id="SVGID_101_" gradientUnits="userSpaceOnUse" x1="-519" y1="-279" x2="-518" y2="-279" gradientTransform="matrix(0 31.1768 31.1768 0 8873.7588 16248.3105)">
											<stop  offset="0" style="stop-color:#231F20"/>
											<stop  offset="0.1531" style="stop-color:#464344"/>
											<stop  offset="0.742" style="stop-color:#CAC9C9"/>
											<stop  offset="1" style="stop-color:#FFFFFF"/>
										</linearGradient>
										<rect x="126.6" y="67.6" class="st69" width="93.5" height="93.5"/>
									</g>
								</g>
							</g>
						</g>
					</g>
				</g>
			</g>
		</mask>
		<g class="st70">
			<g>
				<defs>
					<rect id="SVGID_102_" x="148" y="72.7" width="38" height="60.6"/>
				</defs>
				<clipPath id="SVGID_103_">
					<use xlink:href="#SVGID_102_"  style="overflow:visible;"/>
				</clipPath>
				<g class="st71">
					<defs>
						<path id="SVGID_104_" d="M149,132.9c-0.4,0.2-0.7,0.4-1.1,0.5c13.7-6.1,30.1-30.4,37.9-60.6h-1.6
							C166.3,104.9,160.5,126.4,149,132.9"/>
					</defs>
					<clipPath id="SVGID_105_">
						<use xlink:href="#SVGID_104_"  style="overflow:visible;"/>
					</clipPath>
					<g class="st72">
						
							<linearGradient id="SVGID_106_" gradientUnits="userSpaceOnUse" x1="-519" y1="-279" x2="-518" y2="-279" gradientTransform="matrix(-11.7641 66.7171 66.7171 11.7641 12680.4307 37978.6289)">
							<stop  offset="0" style="stop-color:#00A4E0"/>
							<stop  offset="0.3571" style="stop-color:#00A4E0"/>
							<stop  offset="0.9615" style="stop-color:#0089CF"/>
							<stop  offset="1" style="stop-color:#0089CF"/>
						</linearGradient>
						<polygon class="st73" points="195.5,74.6 160.2,274.8 -40,239.5 -4.7,39.3 						"/>
					</g>
				</g>
			</g>
		</g>
		<path class="st74" d="M140.1,130.2c3-3.6,5.4-9.8,8.7-20.1c-3.8,5.3-7.7,9.8-11.5,13.5c0,0,0,0,0,0
			C138.1,126.1,139,128.4,140.1,130.2"/>
		<path class="st20" d="M140.1,130.2c-1,1.2-2.1,2.2-3.3,2.9c-0.3,0.2-0.5,0.3-0.8,0.4c1.3,0.7,2.6,1.1,4.2,1.3h0h0
			c0.2,0,0.4,0,0.7,0.1h0c0.1,0,0.2,0,0.3,0h0c0.1,0,0.2,0,0.3,0c0.1,0,0.2,0,0.4,0c0,0,0.1,0,0.1,0c0.1,0,0.2,0,0.3,0
			c0,0,0.1,0,0.1,0c0.1,0,0.2,0,0.2,0c0,0,0,0,0,0c0,0,0.1,0,0.1,0c0.1,0,0.2,0,0.3,0c0,0,0,0,0,0c0,0,0.1,0,0.1,0
			c0.1,0,0.2,0,0.3,0c0,0,0.1,0,0.1,0c0.1,0,0.2,0,0.3-0.1h0c0,0,0,0,0,0c0.2,0,0.4-0.1,0.6-0.1
			C142.8,133.9,141.4,132.3,140.1,130.2"/>
		<path class="st75" d="M114.8,134.9c1.3,0,2.6-0.1,3.9-0.4c1.2-0.2,2.4-0.6,3.6-1c1,0.5,2.1,0.9,3.2,1.1c0.9,0.2,1.8,0.3,2.7,0.3
			H114.8z"/>
		<path class="st75" d="M128.2,134.9c3.2,0,5.7-0.4,7.8-1.4c1.3,0.7,2.6,1.1,4.2,1.3h0h0c0.2,0,0.4,0,0.7,0.1h0c0.1,0,0.2,0,0.3,0h0
			c0.1,0,0.2,0,0.3,0H128.2z"/>
		<path class="st76" d="M141.6,134.9c0.1,0,0.2,0,0.4,0c0,0,0.1,0,0.1,0c0.1,0,0.2,0,0.3,0c0,0,0.1,0,0.1,0c0.1,0,0.2,0,0.2,0
			c0,0,0,0,0,0c0,0,0.1,0,0.1,0c0.1,0,0.2,0,0.3,0c0,0,0,0,0,0c0,0,0.1,0,0.1,0c0.1,0,0.2,0,0.3,0c0,0,0.1,0,0.1,0
			c0.1,0,0.2,0,0.3-0.1h0c0,0,0,0,0,0c0.2,0,0.4-0.1,0.6-0.1h0c0.6,0.2,1.3,0.3,2,0.3L141.6,134.9z"/>
		<path class="st77" d="M137.3,123.6C137.3,123.6,137.3,123.6,137.3,123.6c-1.4,1.3-2.8,2.6-4.2,3.7c-0.7,0.6-1.5,1.1-2.2,1.7
			c0.6,0.7,1.3,1.4,1.9,2.1c1,1,2.1,1.8,3.3,2.4c0.3-0.1,0.5-0.3,0.8-0.4c1.2-0.7,2.3-1.6,3.3-2.9
			C139,128.4,138.1,126.1,137.3,123.6"/>
		<g>
			<defs>
				<path id="SVGID_107_" d="M179.3,72.7h-6.7c-0.2,0-0.4,0-0.7,0l0,0c-0.2,0-0.4,0-0.6,0l0,0h0c-0.4,0-0.9,0-1.3,0.1l0,0
					c-0.2,0.4-0.4,0.8-0.6,1.3l0,0c-6.6,14.1-13.6,26.3-20.6,36l0,0c-3.3,10.2-5.8,16.4-8.7,20.1l0,0c1.3,2.2,2.8,3.7,4.5,4.4l0,0
					c0.1,0,0.1,0,0.1,0l0,0c0,0,0,0,0,0l0,0c0,0,0.1,0,0.1,0l0,0c0.1,0,0.2,0,0.2-0.1l0,0c0,0,0.1,0,0.1,0l0,0c0.1,0,0.1,0,0.2-0.1
					l0,0c0,0,0.1,0,0.1,0l0,0c0.1,0,0.2-0.1,0.3-0.1l0,0c0,0,0.1,0,0.1,0l0,0c0.1,0,0.1,0,0.2-0.1l0,0c0.1,0,0.1,0,0.2-0.1l0,0
					c0,0,0.1,0,0.1-0.1l0,0c0.1,0,0.2-0.1,0.3-0.1l0,0c0,0,0.1,0,0.1,0l0,0c0.1,0,0.1-0.1,0.2-0.1l0,0c0,0,0.1,0,0.1,0l0,0
					c0.2-0.1,0.5-0.2,0.7-0.3l0,0c0,0,0,0,0,0l0,0c0.4-0.2,0.7-0.3,1.1-0.5l0,0c11.5-6.4,17.3-28,35.3-60.1l0,0H179.3z"/>
			</defs>
			<clipPath id="SVGID_108_">
				<use xlink:href="#SVGID_107_"  style="overflow:visible;"/>
			</clipPath>
			<g class="st78">
				
					<linearGradient id="SVGID_109_" gradientUnits="userSpaceOnUse" x1="-519" y1="-279" x2="-518" y2="-279" gradientTransform="matrix(0 63.1199 63.1199 0 17773.041 32832.0977)">
					<stop  offset="0" style="stop-color:#008DCF"/>
					<stop  offset="0.5" style="stop-color:#0087C8"/>
					<stop  offset="0.6298" style="stop-color:#0078B8"/>
					<stop  offset="1" style="stop-color:#00508F"/>
				</linearGradient>
				<rect x="-4.6" y="73.1" class="st79" width="189.4" height="189.4"/>
			</g>
		</g>
		<defs>
			<filter id="Adobe_OpacityMaskFilter_7_" filterUnits="userSpaceOnUse" x="77.9" y="66.6" width="29.3" height="17.9">
				<feFlood  style="flood-color:white;flood-opacity:1" result="back"/>
				<feBlend  in="SourceGraphic" in2="back" mode="normal"/>
			</filter>
		</defs>
		<mask maskUnits="userSpaceOnUse" x="77.9" y="66.6" width="29.3" height="17.9" id="SVGID_110_">
			<g class="st80">
				<g>
					<g>
						<defs>
							<rect id="SVGID_111_" x="66.7" y="71.6" width="38" height="8.8"/>
						</defs>
						<clipPath id="SVGID_112_">
							<use xlink:href="#SVGID_111_"  style="overflow:visible;"/>
						</clipPath>
						<g class="st6">
							<g>
								<defs>
									<rect id="SVGID_113_" x="66.7" y="71.6" width="38" height="8.8"/>
								</defs>
								<clipPath id="SVGID_114_" class="st81">
									<use xlink:href="#SVGID_113_"  style="overflow:visible;"/>
								</clipPath>
								<g>
									<defs>
										<rect id="SVGID_115_" x="66.7" y="71.6" width="38" height="8.8"/>
									</defs>
									<clipPath id="SVGID_116_" class="st82">
										<use xlink:href="#SVGID_115_"  style="overflow:visible;"/>
									</clipPath>
									<g>
										
											<linearGradient id="SVGID_117_" gradientUnits="userSpaceOnUse" x1="-519" y1="-279" x2="-518" y2="-279" gradientTransform="matrix(0 -8.7535 -8.7535 0 -2356.2847 -4462.5142)">
											<stop  offset="0" style="stop-color:#FFFFFF"/>
											<stop  offset="0.157" style="stop-color:#F8F8F8"/>
											<stop  offset="0.3915" style="stop-color:#E3E4E5"/>
											<stop  offset="0.6745" style="stop-color:#C2C3C5"/>
											<stop  offset="0.993" style="stop-color:#949699"/>
											<stop  offset="1" style="stop-color:#939598"/>
										</linearGradient>
										<rect x="67" y="54.3" class="st83" width="38" height="26.3"/>
									</g>
								</g>
							</g>
						</g>
					</g>
				</g>
			</g>
		</mask>
		<g class="st84">
			<g>
				<defs>
					<rect id="SVGID_118_" x="78.3" y="74.1" width="27.3" height="5.9"/>
				</defs>
				<clipPath id="SVGID_119_">
					<use xlink:href="#SVGID_118_"  style="overflow:visible;"/>
				</clipPath>
				<path class="st85" d="M79.7,74.1C79.7,74.1,79.7,74.1,79.7,74.1c0.2,0,0.2,0,0.3,0c0,0,0,0,0.1,0c0.1,0,0.3,0,0.4,0
					c0,0,0,0,0.1,0c0.1,0,0.2,0,0.3,0.1c0,0,0.1,0,0.1,0c0.2,0,0.5,0.1,0.7,0.2c0,0,0,0,0.1,0c0.1,0,0.2,0.1,0.3,0.1
					c0,0,0.1,0,0.1,0c0.1,0,0.2,0.1,0.4,0.1c0,0,0,0,0,0c0.1,0,0.2,0.1,0.3,0.1c0,0,0.1,0,0.1,0c0.1,0,0.2,0.1,0.2,0.1
					c0,0,0.1,0,0.1,0c0.1,0,0.2,0.1,0.3,0.1c0,0,0.1,0,0.1,0.1c0.1,0,0.1,0.1,0.2,0.1c0.1,0,0.1,0.1,0.2,0.1c0.1,0,0.1,0.1,0.2,0.1
					c1.3,0.6,2.5,1.5,3.5,2.5c0.4-0.4,0.8-0.8,1.3-1.1c-2.4-1.7-5.1-2.7-8.2-2.7C80.4,74.1,80,74.1,79.7,74.1"/>
				<path class="st86" d="M87.7,77.9c0.7,0.6,1.3,1.3,1.9,2.1c0.6-0.4,1.2-0.8,1.7-1.2c-0.8-0.8-1.6-1.4-2.4-2
					C88.5,77.1,88.1,77.5,87.7,77.9"/>
				<g class="st87">
					<defs>
						<path id="SVGID_120_" d="M79.7,74.1c0.4,0,0.7,0,1.1,0c3.1,0,5.8,1,8.2,2.7c2.5-2,5.6-2.7,9.8-2.7H78.3
							C78.8,74.1,79.2,74.1,79.7,74.1"/>
					</defs>
					<clipPath id="SVGID_121_">
						<use xlink:href="#SVGID_120_"  style="overflow:visible;"/>
					</clipPath>
					<g class="st88">
						
							<linearGradient id="SVGID_122_" gradientUnits="userSpaceOnUse" x1="-519" y1="-279" x2="-518" y2="-279" gradientTransform="matrix(14.5393 6.0305 6.0305 -14.5393 9310.6953 -855.5964)">
							<stop  offset="0" style="stop-color:#8CCFEC"/>
							<stop  offset="0.1108" style="stop-color:#84CDEC"/>
							<stop  offset="0.284" style="stop-color:#6EC9EB"/>
							<stop  offset="0.4965" style="stop-color:#4AC2EA"/>
							<stop  offset="0.7033" style="stop-color:#20BAE8"/>
							<stop  offset="1" style="stop-color:#20BAE8"/>
						</linearGradient>
						<polygon class="st89" points="81.9,66.6 100.3,74.3 96.3,83.8 77.9,76.1 						"/>
					</g>
				</g>
				<g class="st87">
					<defs>
						<path id="SVGID_123_" d="M98.7,74.1c-4.2,0-7.3,0.7-9.8,2.7c0.8,0.6,1.6,1.3,2.4,2c3.5-2.2,7-3.7,10.4-4.3
							c1.3-0.2,2.6-0.4,3.9-0.4H98.7z"/>
					</defs>
					<clipPath id="SVGID_124_">
						<use xlink:href="#SVGID_123_"  style="overflow:visible;"/>
					</clipPath>
					<g class="st90">
						
							<linearGradient id="SVGID_125_" gradientUnits="userSpaceOnUse" x1="-519" y1="-279" x2="-518" y2="-279" gradientTransform="matrix(11.4831 -5.2057 -5.2057 -11.4831 4597.2397 -5827.5703)">
							<stop  offset="0" style="stop-color:#68C5EA"/>
							<stop  offset="0.3352" style="stop-color:#68C5EA"/>
							<stop  offset="0.3582" style="stop-color:#64C4EA"/>
							<stop  offset="0.6557" style="stop-color:#2EBAEA"/>
							<stop  offset="0.8785" style="stop-color:#0DB4EA"/>
							<stop  offset="1" style="stop-color:#00B2EA"/>
						</linearGradient>
						<polygon class="st91" points="87,74.4 121.4,58.7 137,93.2 102.6,108.8 						"/>
					</g>
				</g>
			</g>
		</g>
		<defs>
			<filter id="Adobe_OpacityMaskFilter_8_" filterUnits="userSpaceOnUse" x="137.1" y="72.5" width="33" height="51">
				<feFlood  style="flood-color:white;flood-opacity:1" result="back"/>
				<feBlend  in="SourceGraphic" in2="back" mode="normal"/>
			</filter>
		</defs>
		<mask maskUnits="userSpaceOnUse" x="137.1" y="72.5" width="33" height="51" id="SVGID_126_">
			<g class="st92">
				<g>
					<g>
						<defs>
							<rect id="SVGID_127_" x="109.7" y="77.5" width="89.5" height="49.1"/>
						</defs>
						<clipPath id="SVGID_128_">
							<use xlink:href="#SVGID_127_"  style="overflow:visible;"/>
						</clipPath>
						<g class="st6">
							<g>
								<defs>
									<rect id="SVGID_129_" x="109.7" y="77.5" width="89.5" height="49.1"/>
								</defs>
								<clipPath id="SVGID_130_" class="st93">
									<use xlink:href="#SVGID_129_"  style="overflow:visible;"/>
								</clipPath>
								<g>
									<defs>
										<rect id="SVGID_131_" x="109.7" y="77.5" width="89.5" height="49.1"/>
									</defs>
									<clipPath id="SVGID_132_" class="st94">
										<use xlink:href="#SVGID_131_"  style="overflow:visible;"/>
									</clipPath>
									<g>
										
											<linearGradient id="SVGID_133_" gradientUnits="userSpaceOnUse" x1="-519" y1="-279" x2="-518" y2="-279" gradientTransform="matrix(0 -49.0962 -49.0962 0 -13543.2275 -25354.166)">
											<stop  offset="0" style="stop-color:#231F20"/>
											<stop  offset="0.1531" style="stop-color:#464344"/>
											<stop  offset="0.742" style="stop-color:#CAC9C9"/>
											<stop  offset="1" style="stop-color:#FFFFFF"/>
										</linearGradient>
										<rect x="109.9" y="-20.5" class="st95" width="147.3" height="147.3"/>
									</g>
								</g>
							</g>
						</g>
					</g>
				</g>
			</g>
		</mask>
		<g class="st96">
			<g>
				<defs>
					<rect id="SVGID_134_" x="137.3" y="72.8" width="32.8" height="50.8"/>
				</defs>
				<clipPath id="SVGID_135_">
					<use xlink:href="#SVGID_134_"  style="overflow:visible;"/>
				</clipPath>
				<g class="st97">
					<defs>
						<path id="SVGID_136_" d="M148.8,110.1c1.8-5.6,3.9-12.4,6.5-20.6c2.3-7.4,6.4-13,14.2-15.4c0.2-0.4,0.4-0.8,0.6-1.3
							c-12.6,0.8-18.5,7.2-21.4,16.6c-5.2,16.6-8.3,27.3-11.3,34.1C141.1,119.9,145,115.4,148.8,110.1"/>
					</defs>
					<clipPath id="SVGID_137_">
						<use xlink:href="#SVGID_136_"  style="overflow:visible;"/>
					</clipPath>
					<g class="st98">
						
							<linearGradient id="SVGID_138_" gradientUnits="userSpaceOnUse" x1="-519" y1="-279" x2="-518" y2="-279" gradientTransform="matrix(0 61.7375 61.7375 0 17378.2109 32117.5371)">
							<stop  offset="0" style="stop-color:#00A5E5"/>
							<stop  offset="1" style="stop-color:#00A8E3"/>
						</linearGradient>
						<rect x="-15.4" y="72.5" class="st99" width="185.2" height="185.2"/>
					</g>
				</g>
			</g>
		</g>
	</g>
	<path class="st100" d="M295.4,78.4h0.3c0.2,0,0.5,0.2,0.7,0.7l0.4,0.9h0.6l-0.5-1c-0.2-0.4-0.4-0.7-0.6-0.7v0
		c0.3-0.1,0.5-0.2,0.7-0.4c0.2-0.2,0.3-0.4,0.3-0.7c0-0.3-0.1-0.5-0.3-0.7c-0.2-0.2-0.6-0.3-1.1-0.3h-1.1V80h0.5V78.4z M295.4,76.6
		h0.5c0.3,0,0.6,0.1,0.7,0.2c0.1,0.1,0.2,0.3,0.2,0.5c0,0.4-0.3,0.7-0.8,0.7h-0.6V76.6z M296,81.1c0.9,0,1.6-0.3,2.1-0.9
		c0.6-0.6,0.9-1.3,0.9-2.1c0-0.9-0.3-1.6-0.9-2.1c-0.6-0.5-1.3-0.8-2.1-0.8c-0.9,0-1.6,0.3-2.1,0.9c-0.6,0.6-0.9,1.3-0.9,2.1
		c0,0.9,0.3,1.6,0.8,2.1C294.5,80.8,295.2,81.1,296,81.1z M294.2,76.2c0.5-0.5,1.1-0.8,1.9-0.8c0.7,0,1.4,0.3,1.9,0.8
		c0.5,0.5,0.8,1.1,0.8,1.9c0,0.8-0.3,1.4-0.8,1.9c-0.5,0.5-1.1,0.8-1.9,0.8c-0.7,0-1.4-0.2-1.9-0.8c-0.5-0.5-0.8-1.1-0.8-1.9
		C293.4,77.3,293.7,76.7,294.2,76.2z M203.3,78.2c0-1.4,0-2.4-0.1-3.1h0c0.2,0.7,0.3,1.3,0.5,1.6l5.4,12h0.9l5.4-12.1
		c0.1-0.3,0.3-0.8,0.5-1.5h0c-0.1,1.2-0.2,2.2-0.2,3.1v10.6h1.8V73h-2.3l-4.9,10.9c-0.2,0.4-0.4,1.1-0.8,1.9h-0.1
		c-0.1-0.4-0.4-1.1-0.7-1.9l-4.8-11h-2.4v15.7h1.8V78.2z M222.4,74.6c0.3,0,0.6-0.1,0.8-0.3c0.2-0.2,0.3-0.5,0.3-0.8
		c0-0.3-0.1-0.6-0.3-0.8c-0.2-0.2-0.5-0.3-0.8-0.3c-0.3,0-0.6,0.1-0.8,0.3c-0.2,0.2-0.3,0.5-0.3,0.8c0,0.3,0.1,0.6,0.3,0.8
		C221.8,74.5,222.1,74.6,222.4,74.6z M221.5,88.7h1.8V77.5h-1.8V88.7z M231.4,89c1.2,0,2.2-0.3,3.1-0.8v-1.7c-0.9,0.6-1.8,1-2.8,1
		c-1.2,0-2.1-0.4-2.8-1.1c-0.7-0.8-1-1.8-1-3.1c0-1.4,0.4-2.5,1.1-3.3c0.7-0.8,1.7-1.2,2.8-1.2c1,0,1.8,0.3,2.7,0.9v-1.8
		c-0.8-0.4-1.6-0.6-2.6-0.6c-1.8,0-3.2,0.6-4.3,1.7c-1.1,1.1-1.6,2.6-1.6,4.5c0,1.6,0.5,3,1.4,4C228.5,88.4,229.8,89,231.4,89z
		 M240.3,77.9c-0.5,0.4-1,1.1-1.2,1.9h0v-2.3h-1.8v11.2h1.8V83c0-1.3,0.3-2.3,0.8-3.1c0.5-0.7,1.1-1,1.8-1c0.6,0,1.1,0.1,1.4,0.4
		v-1.9c-0.2-0.1-0.6-0.2-1.1-0.2C241.4,77.3,240.8,77.5,240.3,77.9z M249.3,89c1.7,0,3.1-0.5,4.1-1.6c1-1.1,1.5-2.5,1.5-4.3
		c0-1.8-0.5-3.3-1.4-4.3c-0.9-1-2.3-1.6-3.9-1.6c-1.7,0-3.1,0.5-4.1,1.5c-1.1,1.1-1.6,2.6-1.6,4.5c0,1.7,0.5,3.1,1.4,4.1
		C246.3,88.4,247.7,89,249.3,89z M246.8,79.8c0.7-0.7,1.6-1.1,2.7-1.1c1.1,0,2,0.4,2.6,1.1c0.6,0.8,1,1.9,1,3.3
		c0,1.4-0.3,2.4-0.9,3.2c-0.6,0.8-1.5,1.2-2.7,1.2c-1.1,0-2.1-0.4-2.7-1.1c-0.7-0.8-1-1.8-1-3.2C245.7,81.7,246.1,80.6,246.8,79.8z
		 M262.8,88c0.7-0.6,1-1.4,1-2.3c0-0.8-0.3-1.5-0.8-2.1c-0.4-0.4-1.1-0.8-2.1-1.2c-0.9-0.4-1.4-0.7-1.7-0.9
		c-0.3-0.3-0.5-0.7-0.5-1.2c0-0.5,0.2-0.8,0.5-1.1c0.4-0.3,0.8-0.4,1.4-0.4c1,0,1.8,0.3,2.6,0.8v-1.8c-0.7-0.4-1.5-0.5-2.4-0.5
		c-1.2,0-2.1,0.3-2.9,0.9c-0.7,0.6-1.1,1.4-1.1,2.3c0,0.8,0.2,1.5,0.7,2c0.4,0.4,1.1,0.9,2,1.3c0.9,0.4,1.5,0.7,1.8,1
		c0.3,0.3,0.5,0.6,0.5,1.1c0,1-0.7,1.6-2.1,1.6c-1.1,0-2-0.4-2.9-1.1v1.9c0.8,0.5,1.7,0.7,2.8,0.7C261.1,89,262.1,88.6,262.8,88z
		 M275.2,87.4c1-1.1,1.5-2.5,1.5-4.3c0-1.8-0.5-3.3-1.4-4.3c-0.9-1-2.2-1.6-3.9-1.6c-1.7,0-3.1,0.5-4.1,1.5
		c-1.1,1.1-1.6,2.6-1.6,4.5c0,1.7,0.5,3.1,1.4,4.1c1,1.1,2.3,1.6,4,1.6C272.8,89,274.2,88.4,275.2,87.4z M267.5,83.1
		c0-1.4,0.4-2.5,1.1-3.3c0.7-0.7,1.6-1.1,2.7-1.1c1.1,0,2,0.4,2.6,1.1c0.7,0.8,1,1.9,1,3.3c0,1.4-0.3,2.4-0.9,3.2
		c-0.6,0.8-1.5,1.2-2.7,1.2c-1.1,0-2.1-0.4-2.7-1.1C267.8,85.5,267.5,84.5,267.5,83.1z M279.8,88.7h1.8V79h2.6v-1.5h-2.6v-1.7
		c0-1.6,0.6-2.4,1.9-2.4c0.4,0,0.8,0.1,1.2,0.3V72c-0.3-0.1-0.7-0.2-1.3-0.2c-1,0-1.8,0.3-2.4,0.9c-0.8,0.7-1.1,1.7-1.1,2.9v1.8
		h-1.9V79h1.9V88.7z M287.1,85.6c0,2.2,1,3.3,2.9,3.3c0.7,0,1.3-0.1,1.7-0.4v-1.5c-0.3,0.2-0.7,0.4-1.2,0.4c-0.6,0-1-0.2-1.3-0.5
		c-0.3-0.3-0.4-0.9-0.4-1.6V79h2.8v-1.5h-2.8v-3.3c-0.6,0.2-1.2,0.4-1.8,0.6v2.7h-1.9V79h1.9V85.6z M229.9,123
		c0,2.9,0.1,4.9,0.3,6.1h-0.1c-0.3-0.6-0.8-1.5-1.7-2.8l-20.7-32.4h-6.3v41.3h4.8v-29.8c0-2.9-0.1-4.8-0.2-5.7h0.2
		c0.4,0.9,0.8,1.8,1.3,2.6l21.3,32.9h5.9V93.9h-4.8V123z M248.7,116.4h14.9V112h-14.9V98.3h16.1v-4.4h-20.9v41.3h21.9v-4.4h-17
		V116.4z M270.3,98.3h11.9v36.9h4.8V98.3H299v-4.4h-28.6V98.3z M191.2,129.3c-0.9,0-1.6,0.3-2.2,1c-0.6,0.6-0.9,1.4-0.9,2.3
		c0,0.9,0.3,1.6,0.9,2.3c0.6,0.6,1.4,1,2.2,1c0.9,0,1.7-0.3,2.3-1c0.6-0.6,1-1.4,1-2.3c0-0.9-0.3-1.6-1-2.3
		C192.9,129.7,192.1,129.3,191.2,129.3z M162,131.5h1.2v3.6h0.5v-3.6h1.2v-0.4H162V131.5z M167.7,133.9c0,0.1-0.1,0.3-0.2,0.5h0
		c0-0.1-0.1-0.3-0.2-0.5l-1.2-2.8h-0.6v4h0.4v-2.7c0-0.4,0-0.6,0-0.8h0c0,0.2,0.1,0.3,0.1,0.4l1.4,3.1h0.2l1.4-3.1
		c0-0.1,0.1-0.2,0.1-0.4h0c0,0.3,0,0.6,0,0.8v2.7h0.5v-4H169L167.7,133.9z"/>
</g>
</svg>
