<svg width="361" height="361" viewBox="0 0 361 361" fill="none" xmlns="http://www.w3.org/2000/svg">
<path d="M247.037 14.009L258.824 18.414L267.333 23.038L277.799 28.723M247.037 14.009L232.761 14.697M247.037 14.009L246.79 13.899L237.727 10.498L229.077 7.28799M232.761 14.697L218.659 9.38998M232.761 14.697L245.378 21.588M232.761 14.697L216.49 20.657M218.659 9.38998L203.479 5.80301M218.659 9.38998L229.077 7.28799M218.659 9.38998L206.741 16.966M203.479 5.80301L187.647 4.026M203.479 5.80301L209.823 2.74799M203.479 5.80301L196.224 14.468M187.647 4.026L171.601 4.10199M187.647 4.026L189.764 0.5M187.647 4.026L185.241 13.229M171.601 4.10199L155.786 6.03201M171.601 4.10199L174.107 13.283M171.601 4.10199L169.443 0.597992M155.786 6.03201L140.64 9.76599M155.786 6.03201L163.136 14.627M155.786 6.03201L149.405 3.03799M140.64 9.76599L130.193 7.763M140.64 9.76599L152.644 17.227M140.64 9.76599L126.591 15.209M130.193 7.763L112.293 14.659M130.193 7.763L149.405 3.03799M130.193 7.763L121.568 11.058L112.553 14.539L112.293 14.659M112.293 14.659L100.542 19.179L92.0747 23.886L81.6617 29.675M291.878 322.289L302.241 312.228L305.001 309.548L308.414 305.91M291.878 322.289L278.358 331.415L271.591 335.983M291.878 322.289L302.807 311.027M308.414 305.91L320.912 293.456M308.414 305.91L302.807 311.027M320.912 293.456L328.128 282.993L334.366 273.947L343.526 256.331M320.912 293.456L329.336 276.867M343.526 256.331L347.82 235.942M343.526 256.331L329.336 276.867M343.526 256.331L352.428 234.497L356.918 213.726M347.82 235.942L346.941 213.351M347.82 235.942L333.282 256.848M347.82 235.942L356.918 213.726M346.941 213.351L340.752 189.249M346.941 213.351L332.462 233.95M346.941 213.351L356.007 191.459M340.752 189.249L329.311 164.425M340.752 189.249L326.751 208.872M340.752 189.249L349.549 168.378M329.311 164.425L312.892 139.742M329.311 164.425L316.212 182.444M329.311 164.425L337.594 145.236M312.892 139.742L291.987 116.093M312.892 139.742L301.116 155.591M312.892 139.742L320.406 122.832M291.987 116.093L267.292 94.355M291.987 116.093L281.937 129.293M291.987 116.093L298.469 101.974M267.292 94.355L239.685 75.345M267.292 94.355L259.344 104.533M267.292 94.355L272.486 83.439M239.685 75.345L210.178 59.769M239.685 75.345L243.345 67.929M239.685 75.345L234.161 82.238M210.178 59.769L179.859 48.184M210.178 59.769L207.332 63.231M210.178 59.769L212.09 56.031M179.859 48.184L152.541 63.501M179.859 48.184L212.09 56.031M179.859 48.184L146.784 48.519M179.859 48.184L177.061 73.098M179.859 48.184L203.102 34.358M179.859 48.184L176.888 28.074M179.859 48.184L188.266 28.688M179.859 48.184L171.292 72.428M179.859 48.184L188.679 72.341M179.859 48.184L171.246 28.771M179.859 48.184L198.663 31.89M179.859 48.184L160.732 69.097M179.859 48.184L182.918 73.069M179.859 48.184L160.883 32.074M179.859 48.184L203.636 66.31M179.859 48.184L156.469 34.585M179.859 48.184L206.851 37.314M179.859 48.184L156.27 66.543M179.859 48.184L207.332 63.231M179.859 48.184L149.84 40.966M179.859 48.184L209.796 40.674M179.859 48.184L147.829 44.649M179.859 48.184L211.845 44.337M179.859 48.184L149.659 60.067M179.859 48.184L212.93 48.196M179.859 48.184L146.741 52.458M179.859 48.184L213.015 52.133M179.859 48.184L147.707 56.348M179.859 48.184L193.668 29.982M179.859 48.184L165.792 71.079M179.859 48.184L194.164 70.939M179.859 48.184L165.858 30.118M179.859 48.184L182.617 28.047M179.859 48.184L152.75 37.578M179.859 48.184L199.201 68.907M152.541 63.501L125.902 82.776M152.541 63.501L149.659 60.067M152.541 63.501L156.27 66.543M125.902 82.776L100.937 105.327M125.902 82.776L133.202 88.852M125.902 82.776L120.303 75.936M100.937 105.327L78.5817 130.325M100.937 105.327L92.8757 95.226M100.937 105.327L111.527 114.328M78.5817 130.325L59.6567 156.829M78.5817 130.325L68.3857 117.22M78.5817 130.325L92.0707 142.03M59.6567 156.829L44.8197 183.851M59.6567 156.829L47.7017 141.093M59.6567 156.829L75.5667 170.917M44.8197 183.851L34.5397 210.404M44.8197 183.851L31.5167 165.958M44.8197 183.851L62.6087 199.897M34.5397 210.404L29.0767 235.556M34.5397 210.404L20.3157 190.915M34.5397 210.404L53.6217 227.902M29.0767 235.556L28.4897 258.477M29.0767 235.556L14.3637 215.098M29.0767 235.556L48.8507 253.936M28.4897 258.477L32.6437 278.466M28.4897 258.477L13.7137 237.713M28.4897 258.477L48.3497 277.133M32.6437 278.466L41.2447 294.973M32.6437 278.466L18.2197 258.07M32.6437 278.466L52.0057 296.782M41.2447 294.973L53.8857 307.298M41.2447 294.973L33.9167 284.59L27.5697 275.598L18.2197 258.07M53.8857 307.298L57.3237 310.888L60.1367 313.56L70.6047 323.502M53.8857 307.298L59.5527 312.355M70.6047 323.502L59.5527 312.355M70.6047 323.502L84.2377 332.487L91.0517 336.978M277.799 28.723L263.076 22.756M277.799 28.723L294.1 41.18M263.076 22.756L245.378 21.588M263.076 22.756L276.845 33.306M263.076 22.756L246.996 14.011L229.077 7.28799M245.378 21.588L225.183 25.44M245.378 21.588L256.139 29.884M225.183 25.44L216.49 20.657M225.183 25.44L203.102 34.358M225.183 25.44L232.564 31.185M216.49 20.657L206.741 16.966M216.49 20.657L198.663 31.89M206.741 16.966L196.224 14.468M206.741 16.966L193.668 29.982M196.224 14.468L185.241 13.229M196.224 14.468L188.266 28.688M185.241 13.229L174.107 13.283M185.241 13.229L182.617 28.047M174.107 13.283L163.136 14.627M174.107 13.283L176.888 28.074M163.136 14.627L152.644 17.227M163.136 14.627L171.246 28.771M152.644 17.227L142.933 21.012M152.644 17.227L165.858 30.118M142.933 21.012L134.286 25.881M142.933 21.012L160.883 32.074M142.933 21.012L126.591 15.209M134.286 25.881L114.04 22.223M134.286 25.881L156.469 34.585M134.286 25.881L126.963 31.699M114.04 22.223L103.36 30.625M114.04 22.223L126.591 15.209M114.04 22.223L96.3387 23.564M103.36 30.625L94.8817 40.191M103.36 30.625L82.6707 34.25M103.36 30.625L126.963 31.699M94.8817 40.191L71.7577 46.445M94.8817 40.191L121.189 38.304M94.8817 40.191L88.8847 50.657M71.7577 46.445L63.9637 59.823M71.7577 46.445L52.4927 56.727M71.7577 46.445L82.6707 34.25M63.9637 59.823L43.1467 72.594M63.9637 59.823L88.8847 50.657M63.9637 59.823L59.5797 74.013M43.1467 72.594L26.7117 88.73M43.1467 72.594L52.4927 56.727M43.1467 72.594L37.7977 89.465M26.7117 88.73L15.9007 106.774L9.20174 127.394M26.7117 88.73L27.2917 87.547L27.3527 87.443L37.5847 70.578M320.406 122.832L298.469 101.974M320.406 122.832L337.594 145.236M320.406 122.832L323.519 105.418M298.469 101.974L272.486 83.439M298.469 101.974L301.254 87.398M272.486 83.439L243.345 67.929M272.486 83.439L274.805 72.135M243.345 67.929L212.09 56.031M243.345 67.929L245.047 60.223M212.09 56.031L213.015 52.133M146.784 48.519L145.798 48.661L114.985 53.104M146.784 48.519L147.829 44.649M146.784 48.519L146.741 52.458M114.985 53.104L114.78 60.865M114.985 53.104L117.15 45.508M114.985 53.104L85.5847 61.725M169.398 360.5L167.608 358.352M169.398 360.5L153.76 358.429L145.666 357.356M169.398 360.5L193.525 360.366M167.608 358.352L166.172 350.54M167.608 358.352L140.382 354.748M167.608 358.352L195.298 358.198M166.172 350.54L165.152 337.079M166.172 350.54L136.202 346.586M166.172 350.54L196.658 350.372M165.152 337.079L164.603 318.204M165.152 337.079L133.316 332.903M165.152 337.079L197.543 336.901M164.603 318.204L164.56 294.395M164.603 318.204L131.876 313.945M164.603 318.204L197.901 318.021M164.56 294.395L165.043 266.382M164.56 294.395L131.989 290.201M164.56 294.395L197.701 294.216M165.043 266.382L166.046 235.121M165.043 266.382L133.699 262.394M165.043 266.382L196.932 266.211M166.046 235.121L167.539 201.76M166.046 235.121L136.984 231.476M166.046 235.121L195.609 234.964M167.539 201.76L169.469 167.574M167.539 201.76L141.743 198.573M167.539 201.76L193.772 201.622M169.469 167.574L171.762 133.89M169.469 167.574L147.809 164.94M169.469 167.574L191.49 167.46M171.762 133.89L174.327 102.003M171.762 133.89L154.949 131.878M171.762 133.89L188.848 133.804M174.327 102.003L177.061 73.098M174.327 102.003L185.953 101.945M174.327 102.003L162.881 100.654M177.061 73.098L171.292 72.428M177.061 73.098L182.918 73.069M203.102 34.358L206.851 37.314M203.102 34.358L198.663 31.89M232.564 31.185L238.405 37.732M232.564 31.185L256.139 29.884M232.564 31.185L206.851 37.314M238.405 37.732L242.517 44.895M238.405 37.732L264.711 39.363M238.405 37.732L209.796 40.674M242.517 44.895L244.761 52.467M242.517 44.895L270.812 49.765M242.517 44.895L211.845 44.337M244.761 52.467L245.047 60.223M244.761 52.467L274.226 60.797M244.761 52.467L213.918 48.328L212.93 48.196M245.047 60.223L274.805 72.135M245.047 60.223L213.015 52.133M234.161 82.238L226.928 88.385M234.161 82.238L259.344 104.533M234.161 82.238L207.332 63.231M226.928 88.385L218.201 93.584M226.928 88.385L248.856 113.636M226.928 88.385L203.636 66.31M218.201 93.584L208.249 97.663M218.201 93.584L199.201 68.907M218.201 93.584L236.135 121.354M208.249 97.663L197.384 100.481M208.249 97.663L221.573 127.421M208.249 97.663L194.164 70.939M197.384 100.481L185.953 101.945M197.384 100.481L205.638 131.621M197.384 100.481L188.679 72.341M185.953 101.945L188.848 133.804M185.953 101.945L182.918 73.069M162.881 100.654L151.984 97.944M162.881 100.654L171.292 72.428M162.881 100.654L154.949 131.878M151.984 97.944L141.987 93.965M151.984 97.944L165.792 71.079M151.984 97.944L138.965 127.839M141.987 93.965L133.202 88.852M141.987 93.965L160.732 69.097M141.987 93.965L124.335 121.919M133.202 88.852L156.27 66.543M133.202 88.852L111.527 114.328M120.303 75.936L116.563 68.555M120.303 75.936L149.659 60.067M120.303 75.936L92.8757 95.226M116.563 68.555L114.78 60.865M116.563 68.555L147.707 56.348M116.563 68.555L87.5637 84.358M114.78 60.865L146.741 52.458M114.78 60.865L85.1237 73.074M176.888 28.074L182.617 28.047M176.888 28.074L171.246 28.771M169.443 0.597992L189.764 0.5M169.443 0.597992L149.405 3.03799M207.332 63.231L203.636 66.31M213.015 52.133L212.93 48.196M212.93 48.196L211.845 44.337M211.845 44.337L209.796 40.674M209.796 40.674L206.851 37.314M198.663 31.89L193.668 29.982M193.668 29.982L188.266 28.688M188.266 28.688L182.617 28.047M171.246 28.771L165.858 30.118M165.858 30.118L160.883 32.074M160.883 32.074L156.469 34.585M156.469 34.585L152.75 37.578M152.75 37.578L149.84 40.966M152.75 37.578L126.963 31.699M149.84 40.966L147.829 44.649M149.84 40.966L121.189 38.304M147.829 44.649L117.15 45.508M146.741 52.458L147.707 56.348M147.707 56.348L149.659 60.067M156.27 66.543L160.732 69.097M160.732 69.097L165.792 71.079M165.792 71.079L171.292 72.428M182.918 73.069L188.679 72.341M188.679 72.341L194.164 70.939M194.164 70.939L199.201 68.907M199.201 68.907L203.636 66.31M209.823 2.74799L229.077 7.28799M209.823 2.74799L189.764 0.5M154.949 131.878L147.809 164.94M154.949 131.878L138.965 127.839M147.809 164.94L141.743 198.573M147.809 164.94L127.244 159.659M141.743 198.573L136.984 231.476M141.743 198.573L117.278 192.187M136.984 231.476L133.699 262.394M136.984 231.476L109.444 224.175M133.699 262.394L131.989 290.201M133.699 262.394L104.017 254.414M131.989 290.201L131.876 313.945M131.989 290.201L101.154 281.806M131.876 313.945L133.316 332.903M131.876 313.945L100.895 305.423M133.316 332.903L136.202 346.586M133.316 332.903L103.17 324.543M136.202 346.586L140.382 354.748M136.202 346.586L107.81 338.67M140.382 354.748L145.666 357.356M140.382 354.748L114.569 347.529M145.666 357.356L141.057 356.067L132.716 353.733L123.146 351.056L114.569 347.529M217.218 356.959L222.478 354.292M217.218 356.959L209.137 358.121L194.956 360.161L193.525 360.366M217.218 356.959L221.816 355.617L230.119 353.194L239.661 350.41L248.201 346.789M222.478 354.292L226.576 346.086M222.478 354.292L195.298 358.198M222.478 354.292L248.201 346.789M226.576 346.086L229.324 332.374M226.576 346.086L196.658 350.372M226.576 346.086L254.87 337.858M229.324 332.374L230.572 313.406M229.324 332.374L197.543 336.901M229.324 332.374L259.365 323.686M230.572 313.406L230.218 289.668M230.572 313.406L197.901 318.021M230.572 313.406L261.445 304.548M230.218 289.668L228.223 261.889M230.218 289.668L197.701 294.216M230.218 289.668L260.946 280.943M228.223 261.889L224.624 231.012M228.223 261.889L196.932 266.211M228.223 261.889L257.805 253.593M224.624 231.012L219.528 198.167M224.624 231.012L195.609 234.964M224.624 231.012L252.072 223.423M219.528 198.167L213.117 164.604M219.528 198.167L193.772 201.622M219.528 198.167L243.914 191.528M213.117 164.604L205.638 131.621M213.117 164.604L191.49 167.46M213.117 164.604L233.618 159.113M205.638 131.621L188.848 133.804M205.638 131.621L221.573 127.421M333.292 87.196L344.279 105.126L351.183 125.662M333.292 87.196L316.723 71.241M333.292 87.196L332.717 86.05L332.64 85.923L322.251 69.171M316.723 71.241L307.222 55.476M316.723 71.241L322.243 88.048M316.723 71.241L295.802 58.683M307.222 55.476L287.875 45.388M307.222 55.476L322.251 69.171M307.222 55.476L294.1 41.18M287.875 45.388L276.845 33.306M287.875 45.388L295.802 58.683M287.875 45.388L264.711 39.363M276.845 33.306L256.139 29.884M276.845 33.306L294.1 41.18M256.139 29.884L264.711 39.363M124.335 121.919L108.462 151.927M124.335 121.919L111.527 114.328M124.335 121.919L138.965 127.839M108.462 151.927L94.9747 182.851M108.462 151.927L92.0707 142.03M108.462 151.927L127.244 159.659M94.9747 182.851L84.3757 213.511M94.9747 182.851L75.5667 170.917M94.9747 182.851L117.278 192.187M84.3757 213.511L77.0247 242.762M84.3757 213.511L62.6087 199.897M84.3757 213.511L109.444 224.175M77.0247 242.762L73.1277 269.554M77.0247 242.762L53.6217 227.902M77.0247 242.762L104.017 254.414M73.1277 269.554L72.7397 292.986M73.1277 269.554L48.8507 253.936M73.1277 269.554L101.154 281.806M72.7397 292.986L75.7617 312.341M72.7397 292.986L48.3497 277.133M72.7397 292.986L100.895 305.423M75.7617 312.341L81.9737 327.108M75.7617 312.341L52.0057 296.782M75.7617 312.341L103.17 324.543M81.9737 327.108L91.0517 336.978M81.9737 327.108L59.5527 312.355M81.9737 327.108L107.81 338.67M91.0517 336.978L110.054 345.503L114.569 347.529M193.525 360.366L195.298 358.198M195.298 358.198L196.658 350.372M196.658 350.372L197.543 336.901M197.543 336.901L197.901 318.021M197.901 318.021L197.701 294.216M197.701 294.216L196.932 266.211M196.932 266.211L195.609 234.964M195.609 234.964L193.772 201.622M193.772 201.622L191.49 167.46M191.49 167.46L188.848 133.804M126.591 15.209L112.336 14.661L96.3387 23.564M96.3387 23.564L81.6617 29.675M96.3387 23.564L82.6707 34.25M81.6617 29.675L65.4777 42.296M4.36873 215.578L9.07573 236.316L13.4537 246.731L18.2197 258.07M4.36873 215.578L5.05473 193.286M4.36873 215.578L13.7137 237.713M4.36873 215.578L0.594727 192.816L1.29074 170.854M18.2197 258.07L13.7137 237.713M59.5527 312.355L52.0057 296.782M114.569 347.529L107.81 338.67M248.201 346.789L271.591 335.983M248.201 346.789L254.87 337.858M271.591 335.983L280.563 326.017M302.807 311.027L310.189 295.381M302.807 311.027L280.563 326.017M310.189 295.381L313.642 275.704M310.189 295.381L286.622 311.19M310.189 295.381L329.336 276.867M313.642 275.704L312.907 252.527M313.642 275.704L289.446 291.811M313.642 275.704L333.282 256.848M312.907 252.527L307.875 226.56M312.907 252.527L288.819 268.396M312.907 252.527L332.462 233.95M307.875 226.56L298.613 198.666M307.875 226.56L284.653 241.659M307.875 226.56L326.751 208.872M298.613 198.666L285.37 169.834M298.613 198.666L277.009 212.499M298.613 198.666L316.212 182.444M285.37 169.834L268.583 141.13M285.37 169.834L266.104 181.963M285.37 169.834L301.116 155.591M268.583 141.13L248.856 113.636M268.583 141.13L252.308 151.191M268.583 141.13L281.937 129.293M248.856 113.636L236.135 121.354M248.856 113.636L259.344 104.533M126.963 31.699L121.189 38.304M121.189 38.304L117.15 45.508M117.15 45.508L88.8847 50.657M85.5847 61.725L59.5797 74.013M85.5847 61.725L88.8847 50.657M85.5847 61.725L85.1237 73.074M59.5797 74.013L37.7977 89.465M59.5797 74.013L58.8077 88.606M37.7977 89.465L20.8647 107.48M37.7977 89.465L36.7027 106.858M20.8647 107.48L19.4797 127.142M20.8647 107.48L9.20174 127.394M20.8647 107.48L27.0017 88.446L37.5847 70.578M19.4797 127.142L23.0217 146.842M19.4797 127.142L36.7027 106.858M19.4797 127.142L7.59573 148.722M23.0217 146.842L31.5167 165.958M23.0217 146.842L40.0017 124.25M23.0217 146.842L11.2867 170.122M31.5167 165.958L47.7017 141.093M31.5167 165.958L20.3157 190.915M62.6087 199.897L75.5667 170.917M62.6087 199.897L53.6217 227.902M109.444 224.175L117.278 192.187M109.444 224.175L104.017 254.414M252.072 223.423L277.009 212.499M252.072 223.423L257.805 253.593M252.072 223.423L243.914 191.528M277.009 212.499L266.104 181.963M277.009 212.499L284.653 241.659M316.212 182.444L326.751 208.872M316.212 182.444L301.116 155.591M337.594 145.236L340.925 125.515M337.594 145.236L349.549 168.378M340.925 125.515L339.335 105.881M340.925 125.515L353.01 146.957M340.925 125.515L323.519 105.418M339.335 105.881L322.243 88.048M339.335 105.881L351.183 125.662M339.335 105.881L333.008 86.922L322.251 69.171M322.243 88.048L323.519 105.418M322.243 88.048L300.329 72.822M295.802 58.683L300.329 72.822M295.802 58.683L270.812 49.765M264.711 39.363L270.812 49.765M111.527 114.328L92.0707 142.03M92.0707 142.03L75.5667 170.917M53.6217 227.902L48.8507 253.936M48.8507 253.936L48.3497 277.133M48.3497 277.133L52.0057 296.782M107.81 338.67L103.17 324.543M254.87 337.858L280.563 326.017M254.87 337.858L259.365 323.686M280.563 326.017L286.622 311.19M329.336 276.867L333.282 256.848M333.282 256.848L332.462 233.95M332.462 233.95L326.751 208.872M301.116 155.591L281.937 129.293M281.937 129.293L259.344 104.533M85.1237 73.074L87.5637 84.358M85.1237 73.074L58.8077 88.606M87.5637 84.358L92.8757 95.226M87.5637 84.358L61.7477 103.16M92.8757 95.226L68.3857 117.22M138.965 127.839L127.244 159.659M221.573 127.421L236.135 121.354M221.573 127.421L233.618 159.113M236.135 121.354L252.308 151.191M274.805 72.135L274.226 60.797M274.805 72.135L301.254 87.398M274.226 60.797L270.812 49.765M274.226 60.797L300.329 72.822M58.8077 88.606L61.7477 103.16M58.8077 88.606L36.7027 106.858M61.7477 103.16L68.3857 117.22M61.7477 103.16L40.0017 124.25M68.3857 117.22L47.7017 141.093M127.244 159.659L117.278 192.187M233.618 159.113L252.308 151.191M233.618 159.113L243.914 191.528M252.308 151.191L266.104 181.963M301.254 87.398L300.329 72.822M301.254 87.398L323.519 105.418M47.7017 141.093L40.0017 124.25M20.3157 190.915L14.3637 215.098M20.3157 190.915L11.2867 170.122M14.3637 215.098L13.7137 237.713M14.3637 215.098L5.05473 193.286M103.17 324.543L100.895 305.423M259.365 323.686L286.622 311.19M259.365 323.686L261.445 304.548M286.622 311.19L289.446 291.811M356.918 213.726L356.007 191.459M356.918 213.726L360.448 190.943L359.53 169.007M356.007 191.459L349.549 168.378M356.007 191.459L359.53 169.007M349.549 168.378L353.01 146.957M36.7027 106.858L40.0017 124.25M7.59573 148.722L1.29074 170.854M7.59573 148.722L9.20174 127.394M7.59573 148.722L11.2867 170.122M1.29074 170.854L5.05473 193.286M1.29074 170.854L3.02074 148.514L9.20174 127.394M5.05473 193.286L11.2867 170.122M100.895 305.423L101.154 281.806M261.445 304.548L289.446 291.811M261.445 304.548L260.946 280.943M289.446 291.811L288.819 268.396M359.53 169.007L353.01 146.957M359.53 169.007L357.57 146.703L351.183 125.662M353.01 146.957L351.183 125.662M101.154 281.806L104.017 254.414M260.946 280.943L288.819 268.396M260.946 280.943L257.805 253.593M288.819 268.396L284.653 241.659M322.251 69.171L307.482 53.102L294.1 41.18M65.4777 42.296L52.2017 54.354L37.5847 70.578M65.4777 42.296L82.6707 34.25M65.4777 42.296L52.4927 56.727M37.5847 70.578L52.4927 56.727M257.805 253.593L284.653 241.659M243.914 191.528L266.104 181.963" stroke="#101010" stroke-linecap="round" stroke-linejoin="round"/>
</svg>
