<svg width="361" height="361" viewBox="0 0 361 361" fill="none" xmlns="http://www.w3.org/2000/svg">
<path d="M0.509766 1.0835L38.1088 22.3815H196.444L209.288 39.1655H350.841" stroke="white" stroke-opacity="0.2" stroke-linecap="round" stroke-linejoin="round"/>
<path d="M0.509766 37.0156L38.1088 54.0546L67.7368 67.4826L91.6858 78.3346L111.446 87.2886L128.028 94.8046L142.141 101.201L154.298 106.709L164.88 111.505L174.174 115.717L182.403 119.446" stroke="white" stroke-opacity="0.2" stroke-linecap="round" stroke-linejoin="round"/>
<path d="M0.509766 72.9443L38.1088 85.7233L67.7368 95.7933L91.6858 103.933L111.446 110.648L128.028 116.284L142.141 121.081L154.298 125.214L164.88 128.81L174.174 131.968L182.403 134.765" stroke="white" stroke-opacity="0.2" stroke-linecap="round" stroke-linejoin="round"/>
<path d="M36.4297 1.08447L69.7697 22.3825L96.0407 39.1665H209.283L219.665 52.7325L228.233 63.9255H345.024" stroke="white" stroke-opacity="0.2" stroke-linecap="round" stroke-linejoin="round"/>
<path d="M0.509766 108.871L38.1088 117.391L67.7368 124.103L91.6858 129.53L111.446 134.008L128.028 137.765L142.141 140.963L154.298 143.718L164.88 146.114L174.174 148.221L182.403 150.085" stroke="white" stroke-opacity="0.2" stroke-linecap="round" stroke-linejoin="round"/>
<path d="M0.509766 144.798L38.1088 149.059L67.7368 152.415L91.6858 155.128L111.446 157.367L128.028 159.245L142.141 160.844L154.298 162.222L164.88 163.421L174.174 164.474L182.403 165.406" stroke="white" stroke-opacity="0.2" stroke-linecap="round" stroke-linejoin="round"/>
<path d="M0.509766 180.726H182.403" stroke="white" stroke-opacity="0.2" stroke-linecap="round" stroke-linejoin="round"/>
<path d="M72.3594 1.08545L101.439 22.3835L124.354 39.1674L142.877 52.7334L158.159 63.9265H204.877L213.943 73.3195L221.661 81.3145H241.542L246.812 88.2014L251.4 94.1954H337.923" stroke="white" stroke-opacity="0.2" stroke-linecap="round" stroke-linejoin="round"/>
<path d="M359.77 360.355H180.136" stroke="white" stroke-opacity="0.2" stroke-linecap="round" stroke-linejoin="round"/>
<path d="M0.509766 1.08545H359.778" stroke="white" stroke-opacity="0.2" stroke-linecap="round" stroke-linejoin="round"/>
<path d="M359.77 1.0874V108.867L354.772 117.387L350.833 124.1L347.649 129.526L345.022 134.004L342.818 137.761L340.942 140.959L339.326 143.714L337.919 146.11L336.683 148.217V213.224L337.919 215.33L339.326 217.728L340.942 220.483L342.818 223.68L345.022 227.438L347.649 231.914L350.833 237.342L354.772 244.055V339.056L359.77 360.355" stroke="white" stroke-opacity="0.2" stroke-linecap="round" stroke-linejoin="round"/>
<path d="M359.77 108.865V216.645" stroke="white" stroke-opacity="0.2" stroke-linecap="round" stroke-linejoin="round"/>
<path d="M0.509766 360.353V1.08545" stroke="white" stroke-opacity="0.2" stroke-linecap="round" stroke-linejoin="round"/>
<path d="M38.0996 22.3848L67.7276 39.1688H96.0376L117.275 52.7358H194.066L204.871 63.9278H228.23L235.418 73.3218L241.537 81.3158H340.941" stroke="white" stroke-opacity="0.2" stroke-linecap="round" stroke-linejoin="round"/>
<path d="M108.289 1.0918L133.108 22.3898L152.667 39.1738L168.476 52.7398L181.519 63.9328L192.466 73.3258H342.824" stroke="white" stroke-opacity="0.2" stroke-linecap="round" stroke-linejoin="round"/>
<path d="M354.78 339.057H164.777L144.217 360.356" stroke="white" stroke-opacity="0.2" stroke-linecap="round" stroke-linejoin="round"/>
<path d="M38.0996 339.057V22.3857" stroke="white" stroke-opacity="0.2" stroke-linecap="round" stroke-linejoin="round"/>
<path d="M144.209 1.0874L164.77 22.3854L180.972 39.1694L194.067 52.7354H347.649" stroke="white" stroke-opacity="0.2" stroke-linecap="round" stroke-linejoin="round"/>
<path d="M350.84 322.273H180.978L164.776 339.056H133.109L108.289 360.355" stroke="white" stroke-opacity="0.2" stroke-linecap="round" stroke-linejoin="round"/>
<path d="M67.7295 322.27V39.1655" stroke="white" stroke-opacity="0.2" stroke-linecap="round" stroke-linejoin="round"/>
<path d="M67.7295 39.1714L91.6785 52.7374H117.276L134.796 63.9304H158.155L170.979 73.3234H192.459L201.776 81.3174H221.657L228.304 88.2054L234.091 94.1994H251.396L255.425 99.4644L258.992 104.125H335.589" stroke="white" stroke-opacity="0.2" stroke-linecap="round" stroke-linejoin="round"/>
<path d="M180.14 1.0874L196.44 22.3854H354.776" stroke="white" stroke-opacity="0.2" stroke-linecap="round" stroke-linejoin="round"/>
<path d="M347.649 308.708H142.873L124.35 322.274L101.435 339.058L72.3555 360.356" stroke="white" stroke-opacity="0.2" stroke-linecap="round" stroke-linejoin="round"/>
<path d="M91.6797 308.706V52.7354" stroke="white" stroke-opacity="0.2" stroke-linecap="round" stroke-linejoin="round"/>
<path d="M216.069 1.08984L228.109 22.3878L237.597 39.1718L245.266 52.7378L251.594 63.9308L256.905 73.3238L261.424 81.3188L265.317 88.2058L268.707 94.1998L271.682 99.4648L274.318 104.126" stroke="white" stroke-opacity="0.2" stroke-linecap="round" stroke-linejoin="round"/>
<path d="M345.029 297.516H111.445" stroke="white" stroke-opacity="0.2" stroke-linecap="round" stroke-linejoin="round"/>
<path d="M111.439 297.511V63.9258" stroke="white" stroke-opacity="0.2" stroke-linecap="round" stroke-linejoin="round"/>
<path d="M91.6797 52.7373L111.44 63.9293H134.798L149.501 73.3233H170.981L181.897 81.3173H201.778L209.803 88.2053L216.787 94.1993L222.923 99.4643L228.355 104.125H258.993" stroke="white" stroke-opacity="0.2" stroke-linecap="round" stroke-linejoin="round"/>
<path d="M251.989 1.08984L259.77 22.3878L265.901 39.1718L270.857 52.7378L274.946 63.9308L278.378 73.3238L281.299 81.3188L283.814 88.2058L286.004 94.1998L287.927 99.4648L289.631 104.126" stroke="white" stroke-opacity="0.2" stroke-linecap="round" stroke-linejoin="round"/>
<path d="M359.769 1.0874L354.771 22.3854V149.054L350.832 152.41L347.648 155.123L345.021 157.362L342.817 159.24L340.941 160.839L339.325 162.217L337.918 163.416L336.682 164.469L335.588 165.401V196.04L336.682 196.973L337.918 198.025L339.325 199.224L340.941 200.602L342.817 202.2L345.021 204.079L347.648 206.317L350.832 209.031L354.771 212.388L359.769 216.648V360.355" stroke="white" stroke-opacity="0.2" stroke-linecap="round" stroke-linejoin="round"/>
<path d="M287.92 1.08984L291.441 22.3878L294.216 39.1718L296.458 52.7378L298.309 63.9308L299.861 73.3238L301.184 81.3188L302.322 88.2058L303.313 94.1998L304.184 99.4648L304.954 104.126" stroke="white" stroke-opacity="0.2" stroke-linecap="round" stroke-linejoin="round"/>
<path d="M342.819 288.125H128.021" stroke="white" stroke-opacity="0.2" stroke-linecap="round" stroke-linejoin="round"/>
<path d="M128.02 288.124V73.3252" stroke="white" stroke-opacity="0.2" stroke-linecap="round" stroke-linejoin="round"/>
<path d="M323.849 1.08984L323.111 22.3878L322.529 39.1718L322.058 52.7378L321.669 63.9308L321.344 73.3238L321.067 81.3188L320.828 88.2058L320.62 94.1998L320.438 99.4648L320.276 104.126" stroke="white" stroke-opacity="0.2" stroke-linecap="round" stroke-linejoin="round"/>
<path d="M340.94 280.125H142.131L128.018 288.12L111.436 297.513L91.6758 308.706" stroke="white" stroke-opacity="0.2" stroke-linecap="round" stroke-linejoin="round"/>
<path d="M142.14 280.125V81.3154" stroke="white" stroke-opacity="0.2" stroke-linecap="round" stroke-linejoin="round"/>
<path d="M111.439 63.9316L128.021 73.3256H149.501L162.014 81.3196H181.896L191.298 88.2066L199.483 94.2016H234.092L239.174 99.4656H336.684" stroke="white" stroke-opacity="0.2" stroke-linecap="round" stroke-linejoin="round"/>
<path d="M339.329 273.241H172.798L162.017 280.128L149.503 288.123L134.8 297.515L117.279 308.709H91.6824L67.7324 322.275" stroke="white" stroke-opacity="0.2" stroke-linecap="round" stroke-linejoin="round"/>
<path d="M154.289 273.241V88.2056" stroke="white" stroke-opacity="0.2" stroke-linecap="round" stroke-linejoin="round"/>
<path d="M359.769 37.0156L354.771 54.0546L350.832 67.4826L347.648 78.3346V308.709L350.832 322.276" stroke="white" stroke-opacity="0.2" stroke-linecap="round" stroke-linejoin="round"/>
<path d="M337.92 267.243H199.483L191.298 273.237L181.896 280.124L170.98 288.119L158.155 297.512L142.873 308.705H117.276L96.0396 322.271H67.7296L38.1016 339.055" stroke="white" stroke-opacity="0.2" stroke-linecap="round" stroke-linejoin="round"/>
<path d="M164.879 267.242V94.1953" stroke="white" stroke-opacity="0.2" stroke-linecap="round" stroke-linejoin="round"/>
<path d="M354.779 22.3848L350.841 39.1688V95.7888L347.656 103.93L345.029 110.645L342.825 116.281L340.949 121.077L339.333 125.21L337.926 128.807V232.634L339.333 236.231L340.949 240.364L342.825 245.16L345.029 250.796L347.656 257.512L350.841 265.652V322.273L354.779 339.056" stroke="white" stroke-opacity="0.2" stroke-linecap="round" stroke-linejoin="round"/>
<path d="M336.69 261.98H239.18L234.098 267.245L228.311 273.239L221.664 280.126L213.946 288.121L204.879 297.513L194.074 308.707L180.978 322.273H96.0456L69.7746 339.056L36.4346 360.355" stroke="white" stroke-opacity="0.2" stroke-linecap="round" stroke-linejoin="round"/>
<path d="M174.17 261.984V99.4658" stroke="white" stroke-opacity="0.2" stroke-linecap="round" stroke-linejoin="round"/>
<path d="M128.02 73.3232L142.133 81.3172H162.013L172.794 88.2052H339.326" stroke="white" stroke-opacity="0.2" stroke-linecap="round" stroke-linejoin="round"/>
<path d="M228.359 257.318H182.401L174.172 261.979L164.879 267.244L154.296 273.238L142.139 280.125" stroke="white" stroke-opacity="0.2" stroke-linecap="round" stroke-linejoin="round"/>
<path d="M258.989 257.319H228.35L222.919 261.98L216.783 267.245L209.799 273.239L201.773 280.126L192.457 288.121L181.51 297.513L168.467 308.707L152.658 322.273L133.099 339.056H38.098L0.5 360.355" stroke="white" stroke-opacity="0.2" stroke-linecap="round" stroke-linejoin="round"/>
<path d="M335.59 196.041V226.68L336.684 229.477L337.92 232.635V249.94L339.326 254.735V273.239L340.943 280.126" stroke="white" stroke-opacity="0.2" stroke-linecap="round" stroke-linejoin="round"/>
<path d="M335.592 226.678V257.318L336.686 261.979L337.922 267.244" stroke="white" stroke-opacity="0.2" stroke-linecap="round" stroke-linejoin="round"/>
<path d="M182.399 104.12V257.315" stroke="white" stroke-opacity="0.2" stroke-linecap="round" stroke-linejoin="round"/>
<path d="M335.589 257.319H258.991L255.425 261.98L251.396 267.245L246.808 273.239L241.537 280.126L235.419 288.121L228.231 297.513L219.663 308.707L209.28 322.273L196.436 339.056L180.136 360.355H0.501953" stroke="white" stroke-opacity="0.2" stroke-linecap="round" stroke-linejoin="round"/>
<path d="M142.14 81.3174L154.297 88.2054H172.801L182.184 94.1994H199.489L206.676 99.4634H239.18L243.679 104.125" stroke="white" stroke-opacity="0.2" stroke-linecap="round" stroke-linejoin="round"/>
<path d="M350.84 39.1665L347.655 52.7325V78.3295L345.028 87.2835L342.824 94.7995L340.948 101.195L339.332 106.704V254.732L340.948 260.242L342.824 266.638L345.028 274.152L347.655 283.105L350.84 293.96L354.778 307.387L359.777 324.426" stroke="white" stroke-opacity="0.2" stroke-linecap="round" stroke-linejoin="round"/>
<path d="M359.769 72.9443L354.771 85.7233L350.832 95.7933V265.655L354.771 275.725L359.769 288.505" stroke="white" stroke-opacity="0.2" stroke-linecap="round" stroke-linejoin="round"/>
<path d="M154.289 88.2056L164.871 94.1996H182.176L190.417 99.4646L197.713 104.126H228.352" stroke="white" stroke-opacity="0.2" stroke-linecap="round" stroke-linejoin="round"/>
<path d="M347.649 52.7344L345.022 63.9264V297.511L347.649 308.705" stroke="white" stroke-opacity="0.2" stroke-linecap="round" stroke-linejoin="round"/>
<path d="M164.875 94.2002L174.169 99.4653L206.672 99.4649L213.036 104.126" stroke="white" stroke-opacity="0.2" stroke-linecap="round" stroke-linejoin="round"/>
<path d="M345.029 63.9307L342.825 73.3247V288.123L345.029 297.516" stroke="white" stroke-opacity="0.2" stroke-linecap="round" stroke-linejoin="round"/>
<path d="M174.17 99.4648L182.399 104.126H197.718" stroke="white" stroke-opacity="0.2" stroke-linecap="round" stroke-linejoin="round"/>
<path d="M182.399 241.996L174.17 245.725L164.877 249.937L154.295 254.732L142.137 260.242L128.024 266.638L111.442 274.152L91.6819 283.106L67.7329 293.96L38.1049 307.387L0.505859 324.426" stroke="white" stroke-opacity="0.2" stroke-linecap="round" stroke-linejoin="round"/>
<path d="M182.399 226.684L174.17 229.481L164.877 232.639L154.295 236.236L142.137 240.369L128.024 245.165L111.442 250.801L91.6819 257.517L67.7329 265.657L38.1049 275.727L0.505859 288.506" stroke="white" stroke-opacity="0.2" stroke-linecap="round" stroke-linejoin="round"/>
<path d="M197.713 257.319L190.417 261.98L182.176 267.245L172.793 273.239L154.289 273.238" stroke="white" stroke-opacity="0.2" stroke-linecap="round" stroke-linejoin="round"/>
<path d="M182.399 211.36L174.17 213.224L164.877 215.331L154.295 217.728L142.137 220.483L128.024 223.68L111.442 227.438L91.6819 231.915L67.7329 237.342L38.1049 244.055L0.505859 252.575" stroke="white" stroke-opacity="0.2" stroke-linecap="round" stroke-linejoin="round"/>
<path d="M182.399 196.039L174.17 196.972L164.877 198.024L154.295 199.223L142.137 200.601L128.024 202.199L111.442 204.078L91.6819 206.316L67.7329 209.03L38.1049 212.387L0.505859 216.646" stroke="white" stroke-opacity="0.2" stroke-linecap="round" stroke-linejoin="round"/>
<path d="M342.819 73.3262L340.943 81.3202V280.13L342.819 288.125" stroke="white" stroke-opacity="0.2" stroke-linecap="round" stroke-linejoin="round"/>
<path d="M213.035 257.321L206.671 261.981L199.483 267.246L164.873 267.246" stroke="white" stroke-opacity="0.2" stroke-linecap="round" stroke-linejoin="round"/>
<path d="M340.939 81.3193L339.323 88.2073V106.71L337.917 111.506V128.81L336.68 131.968V148.22L335.586 150.085V165.405" stroke="white" stroke-opacity="0.2" stroke-linecap="round" stroke-linejoin="round"/>
<path d="M359.769 144.794L354.771 149.055V244.056L359.769 252.575" stroke="white" stroke-opacity="0.2" stroke-linecap="round" stroke-linejoin="round"/>
<path d="M243.68 257.314L239.181 261.975H174.174" stroke="white" stroke-opacity="0.2" stroke-linecap="round" stroke-linejoin="round"/>
<path d="M339.33 88.2075L337.924 94.2015V111.507L336.687 115.719V131.97L335.594 134.767V150.086" stroke="white" stroke-opacity="0.2" stroke-linecap="round" stroke-linejoin="round"/>
<path d="M337.926 94.1943L336.69 99.4592L336.689 115.711L335.596 119.439L335.596 134.757" stroke="white" stroke-opacity="0.2" stroke-linecap="round" stroke-linejoin="round"/>
<path d="M274.319 257.319L271.683 261.98L268.708 267.245L265.318 273.239L261.425 280.126L256.906 288.121L251.595 297.513L245.267 308.707L237.598 322.273L228.11 339.056L216.07 360.355" stroke="white" stroke-opacity="0.2" stroke-linecap="round" stroke-linejoin="round"/>
<path d="M289.629 257.319L287.926 261.98L286.002 267.245L283.813 273.239L281.297 280.126L278.376 288.121L274.944 297.513L270.856 308.707L265.9 322.273L259.769 339.056L251.987 360.355" stroke="white" stroke-opacity="0.2" stroke-linecap="round" stroke-linejoin="round"/>
<path d="M336.69 99.4658L335.596 104.127V119.446" stroke="white" stroke-opacity="0.2" stroke-linecap="round" stroke-linejoin="round"/>
<path d="M304.949 257.319L304.178 261.98L303.307 267.245L302.317 273.239L301.178 280.126L299.856 288.121L298.303 297.513L296.453 308.707L294.211 322.273L291.436 339.056L287.915 360.355" stroke="white" stroke-opacity="0.2" stroke-linecap="round" stroke-linejoin="round"/>
<path d="M320.27 257.319L320.432 261.98L320.615 267.245L320.822 273.239L321.061 280.126L321.338 288.121L321.664 297.513L322.052 308.707L322.523 322.273L323.105 339.056L323.843 360.355" stroke="white" stroke-opacity="0.2" stroke-linecap="round" stroke-linejoin="round"/>
<path d="M335.59 241.995L336.684 245.724V261.976" stroke="white" stroke-opacity="0.2" stroke-linecap="round" stroke-linejoin="round"/>
<path d="M335.59 211.356L336.684 213.22V245.724L337.92 249.936V267.241L339.326 273.235" stroke="white" stroke-opacity="0.2" stroke-linecap="round" stroke-linejoin="round"/>
<path d="M335.59 180.726H359.771" stroke="white" stroke-opacity="0.2" stroke-linecap="round" stroke-linejoin="round"/>
</svg>
