<svg width="3565" height="1083" viewBox="0 0 3565 1083" fill="none" xmlns="http://www.w3.org/2000/svg">
<path d="M3563.78 1082.45L3420.15 1081.18L3276.59 1079.92L3133.3 1078.68L2990.28 1077.48L2847.45 1076.25L2704.69 1075L2561.92 1073.78L2419 1072.6L2275.92 1071.49L2132.93 1070.34L1990.18 1069.12L1847.68 1067.89L1705.34 1066.69L1563.08 1065.54L1420.84 1064.44L1278.58 1063.37L1136.3 1062.32L994.09 1061.27L851.986 1060.16L710.002 1059.03L568.169 1057.84L426.365 1056.68L284.616 1055.54L142.923 1054.39L1.3418 1053.23" stroke="white" stroke-opacity="0.15" stroke-linecap="round" stroke-linejoin="round"/>
<path d="M3533.37 998.072L3392.53 996.951L3251.58 996.014L3111.11 995.261L2971.23 994.456L2831.59 993.292L2692.07 991.746L2552.26 989.997L2411.87 988.468L2271.34 987.173L2131.07 985.939L1991.23 984.725L1851.78 983.497L1712.54 982.325L1573.39 981.235L1434.17 980.253L1294.76 979.397L1155.15 978.65L1015.65 977.959L876.225 977.07L736.993 975.982L598.038 974.656L458.947 973.431L319.938 972.284L181.015 971.163L42.2305 970.047" stroke="white" stroke-opacity="0.15" stroke-linecap="round" stroke-linejoin="round"/>
<path d="M3503.86 917.652L3365.47 917.213L3226.69 917.943L3088.47 919.627L2951.82 920.793L2816.34 919.921L2680.71 916.777L2543.59 912.38L2405.01 908.85L2266.4 906.512L2128.57 904.935L1991.67 903.704L1855.48 902.546L1719.67 901.411L1583.92 900.317L1447.79 899.422L1311.09 898.972L1173.9 899.042L1036.51 899.391L899.768 899.316L763.492 897.741L626.876 895.691L490.302 893.881L353.895 892.424L217.655 891.216L81.5566 890.103" stroke="white" stroke-opacity="0.15" stroke-linecap="round" stroke-linejoin="round"/>
<path d="M3475.22 842.386L3339.14 844.081L3202.27 850.234L3065.13 860.941L2931.02 870.498L2802.16 871.6L2785.19 865.92L2780.51 864.479L2777.75 863.632L2743.22 853.026L2719.88 845.857L2712.45 843.572L2693.67 837.805L2658.28 826.933L2525.12 793.345L2388.67 774.057L2252.54 767.943L2118.59 770.468L1987.92 775.906L1875.88 779.027L1861.07 779.22L1848.3 779.164L1741.82 778.823L1734.73 778.786L1607.86 773.29L1478.39 765.165L1346.34 759.174L1212.57 759.611L1078.6 770.127L1039.64 776.496L1039.2 776.809L1038.3 777.782L1028.04 785.225L1012.96 791.75L993.939 796.969L972.1 800.572L948.718 802.337L925.196 802.152L902.926 800.035L883.241 796.114L867.293 790.62L861.725 768.997M861.725 768.997L861.048 745.318L865.31 720.982M861.725 768.997L878.668 774.801L899.592 778.949L923.26 781.186L948.262 781.379L973.113 779.514L996.33 775.707L1016.54 770.191L1032.56 763.291L1043.46 755.429L1048.64 747.072L1048.1 723.508L1047.3 715.184L1044.58 705.739L1042.1 699.734L1034.89 688.935L1029.48 679.543L1012.46 661.715M861.725 768.997L849.745 761.89L849.06 738.248L854.008 714.359M865.31 720.982L874.269 697.429L887.387 676.052M865.31 720.982L881.292 726.383L901.019 730.246L923.33 732.327L946.905 732.508L970.335 730.774L992.224 727.228L1011.29 722.087L1026.39 715.665L1036.69 708.343L1041.59 700.553L1040.85 692.753L1038.57 688.952L1031.26 676.743L1028.84 672.71L1023.3 666.257L1014.62 658.353L1011.98 656.23M865.31 720.982L854.008 714.359M887.387 676.052L903.886 658.115L922.785 644.676L942.962 636.501M887.387 676.052L898.731 679.836L912.718 682.541L928.53 683.995L945.222 684.121L961.822 682.905L977.339 680.426L990.865 676.827L1001.61 672.327L1008.94 667.186L1012.46 661.715M887.387 676.052L879.345 671.409M942.962 636.501L967.902 639.541M942.962 636.501L919.087 642.075L898.239 654.879L879.345 671.409M942.962 636.501L967.748 637.569M942.962 636.501L919.493 637.211L918.178 639.169L894.991 647.395L874.73 659.984L871.176 663.052L863.308 671.471L858.684 678.262L855.798 683.718L847.67 699.09L848.02 706.914L854.008 714.359M942.962 636.501L966.179 634.697L974.461 634.842L979.934 636.635L982.413 637.449L987.967 640.489L988.697 640.788L991.027 642.122L999.242 646.502L1007.53 651.05L1011.98 656.23M942.962 636.501L922.178 635.373L920.449 635.79L913.809 637.382L902.798 640.019M942.962 636.501L959.662 632.582L963.972 633.519L966.162 635.703L967.748 637.569M942.962 636.501L955.179 646.231L960.059 644.947L963.944 643.339L966.607 641.501L967.902 639.541M942.962 636.501L926.071 633.776L918.93 635.203L910.355 636.912L902.798 640.019M967.902 639.541L991.528 648.113L1012.46 661.715M967.902 639.541L967.748 637.569M1012.46 661.715L1011.98 656.23M854.008 714.359L864.301 691.634L879.345 671.409M879.345 671.409L875.058 666.187L874.77 660.686L878.476 655.232M967.748 637.569L968.97 637.916L979.521 639.832L988.104 640.657L991.209 644.279L993.256 645.459L1005.05 652.245L1008.7 654.345L1011.98 656.23M878.476 655.232L886.089 650.323M878.476 655.232L874.7 659.282M886.089 650.323L894.933 646.312L897.816 643.224L902.798 640.019M886.089 650.323L894.854 645.017L897.57 643.585L902.798 640.019" stroke="white" stroke-opacity="0.15" stroke-linecap="round" stroke-linejoin="round"/>
<path d="M3447.81 772.246L3314.27 777.826L3180.02 793.894L3045.39 822.135L3004.17 832.786L2958.49 844.583L2931.3 851.612L2928.1 852.437L2913.66 856.168L2895.06 857.584" stroke="white" stroke-opacity="0.15" stroke-linecap="round" stroke-linejoin="round"/>
<path d="M3422.49 702.248L3292.04 710.261L3162.34 733.576L3034.06 773.989L3012.19 784.667" stroke="white" stroke-opacity="0.15" stroke-linecap="round" stroke-linejoin="round"/>
<path d="M3398.36 628.051L3269.92 631.402L3140.52 642.861L3036.9 659.617" stroke="white" stroke-opacity="0.15" stroke-linecap="round" stroke-linejoin="round"/>
<path d="M3374.53 557.592L3248.36 558.115L3121.48 561.535L3000.38 566.366" stroke="white" stroke-opacity="0.15" stroke-linecap="round" stroke-linejoin="round"/>
<path d="M2623.28 669.856L2504.69 656.472L2371.51 663.272L2240.99 693.999L2125.06 739.726L2113.99 742.755" stroke="white" stroke-opacity="0.15" stroke-linecap="round" stroke-linejoin="round"/>
<path d="M639.601 297.893L524.057 269.361L407.562 256.409" stroke="white" stroke-opacity="0.15" stroke-linecap="round" stroke-linejoin="round"/>
<path d="M351.265 350.162L469.821 352.05L587.598 355.75L703.844 358.972L819.612 359.965L936.958 359.233L1056.57 358.872L1177.91 363.095L1299.83 375.452L1420.56 396.51L1440.56 400.815" stroke="white" stroke-opacity="0.15" stroke-linecap="round" stroke-linejoin="round"/>
<path d="M380.525 300.187L498.348 305.934L615.486 318.504L719.29 329.507L729.342 330.571" stroke="white" stroke-opacity="0.15" stroke-linecap="round" stroke-linejoin="round"/>
<path d="M2116.5 251.607L2229.09 250.449L2344.28 249.64L2460.05 249.347L2575.97 249.489L2691.72 249.92L2807.21 250.482L2922.53 251.114L3037.77 251.802L3152.94 252.527L3268.04 253.299" stroke="white" stroke-opacity="0.15" stroke-linecap="round" stroke-linejoin="round"/>
<path d="M458.865 142.022L570.539 150.967L642.47 163.774L643.27 163.914" stroke="white" stroke-opacity="0.15" stroke-linecap="round" stroke-linejoin="round"/>
<path d="M485.77 84.2397L595.589 88.2282L666.309 92.2558" stroke="white" stroke-opacity="0.15" stroke-linecap="round" stroke-linejoin="round"/>
<path d="M1906.31 138.621L1904.84 137.953L1814.24 120.058M1814.24 120.058L1759.04 152.76M1814.24 120.058L1763.07 108.778L1745.89 112.892L1732.61 118.061L1724.03 123.996L1720.65 130.359L1722.71 136.787L1730.11 142.889L1742.46 148.327L1759.04 152.76M1814.24 120.058L1896.51 143.963L1905.57 138.291L1990.34 176.721M1814.24 120.058L1827.42 104.717L1849.05 106.375L1868.71 109.452L1886.06 113.712L1895.54 117.197L1897.75 119.115L1905.44 125.16L1910.2 126.634L1938.06 135.273L1949.6 138.851L1990.87 151.647L1995.89 164.174L1990.34 176.721M1814.24 120.058L1823.6 157.783M1759.04 152.76L1706.46 205.963L1659.82 276.701L1622.11 360.738L1595.77 452.858L1582.5 547.246L1583.11 637.937L1597.43 719.277L1614.42 761.5L1620.37 762.711L1684.85 771.163L1741.82 778.634L1765.05 778.704L1848.32 779.179L1860.41 779.47L1861.77 778.995L1929.84 771.37L1983.81 765.323L2002.68 762.051L2060.6 752.007L2108.12 743.762L2111.82 743.121L2114.34 742.358L2125.25 729.1L2125.42 720.323L2155.04 669.262L2165.02 652.053L2169.65 636.949L2187.87 567.854L2188.9 478.659L2172.96 411.253L2167.89 389.784L2134.08 322.696L2125.96 306.572L2080.5 252.004L2065.57 234.081L2011.61 192.938L1990.34 176.721M1759.04 152.76L1778.89 155.923L1800.84 157.635L1823.6 157.783M1990.34 176.721L1974.44 188.563L1949.02 198.979L1883.35 149.233L1866.11 153.451L1845.79 156.36L1823.6 157.783M1823.6 157.783L1832.52 215.946L1840.45 291.323L1846.87 379.393L1851.35 474.646L1853.59 570.97L1853.45 662.181L1850.97 742.498L1848.34 778.953" stroke="white" stroke-opacity="0.15" stroke-linecap="round" stroke-linejoin="round"/>
<path d="M1.31152 1053.22L42.2336 970.048L81.5557 890.115L119.379 813.297L155.784 739.376L190.871 668.012L224.765 599.219L257.606 532.867L289.573 468.795L320.781 407.368L351.259 350.185L380.504 300.198L407.547 256.429L432.633 205.664L458.852 142.025L485.756 84.2573" stroke="white" stroke-opacity="0.15" stroke-linecap="round" stroke-linejoin="round"/>
<path d="M142.923 1054.37L181.042 971.148L217.677 891.211L252.896 814.457L286.811 740.663L319.485 669.092L351.032 600.159L381.591 533.723L411.359 469.611L440.64 408.255L469.843 352.056L498.355 305.929L524.07 269.367L545.842 221.881L570.553 150.956L595.602 88.229" stroke="white" stroke-opacity="0.15" stroke-linecap="round" stroke-linejoin="round"/>
<path d="M284.613 1055.53L319.944 972.286L353.902 892.436L386.528 816.088L417.943 742.758L448.192 670.642L477.42 601.258L505.695 534.685L533.135 470.566L560.171 409.617L587.62 355.776L615.491 318.515L639.615 297.916L709.063 321.542L730.082 329.765L735.947 330.691L763.511 331.127" stroke="white" stroke-opacity="0.15" stroke-linecap="round" stroke-linejoin="round"/>
<path d="M426.364 1056.66L458.946 973.413L490.297 893.874L520.381 818.53L549.231 746.59L577.086 673.016L603.981 602.643L629.856 535.734L654.838 471.553L679.28 410.937L703.846 358.979L730.062 329.745L735.93 330.671" stroke="white" stroke-opacity="0.15" stroke-linecap="round" stroke-linejoin="round"/>
<path d="M1949.02 198.965L2007.14 266.477L2054.05 347.72L2086.73 437.678L2103.15 530.724L2102.33 621.054L2084.48 703.102L2060.62 751.942" stroke="white" stroke-opacity="0.15" stroke-linecap="round" stroke-linejoin="round"/>
<path d="M568.17 1057.82L598.064 974.641L626.889 895.686L654.71 822.389L680.839 754.01L706.459 676.881L730.837 604.622L754.094 537.191L776.769 472.914L798.68 412.045L819.632 359.971L839.778 332.318" stroke="white" stroke-opacity="0.15" stroke-linecap="round" stroke-linejoin="round"/>
<path d="M710.003 1059.02L737.01 975.975L763.503 897.745L789.461 827.958L812.9 768.716L836.422 682.873L857.886 607.316L878.888 540.134L899.194 475.689L918.711 413.675L936.977 359.25L954.433 322.621L1072.45 311.316L1191.4 306.027L1310.27 307.087L1428.24 313.416L1473.48 316.968" stroke="white" stroke-opacity="0.15" stroke-linecap="round" stroke-linejoin="round"/>
<path d="M851.975 1060.15L876.221 977.071L899.758 899.328L922.852 833.49L929.254 821.85L929.394 820.39L928.311 819.114L925.196 802.162L923.257 781.196L922.625 757.447L923.33 732.336L925.338 707.36L928.527 684.005L932.7 663.657L937.611 647.516L942.959 636.508L954.108 631.758L959.134 632.718L963.97 633.529L974.458 634.849" stroke="white" stroke-opacity="0.15" stroke-linecap="round" stroke-linejoin="round"/>
<path d="M994.086 1061.26L1015.66 977.955L1036.5 899.397L1056.98 829.203L1078.6 770.131L1098.01 689.283L1116.92 622.713L1132.29 564.399L1147.43 500.025L1163.21 429.565L1177.92 363.115L1191.38 306.032L1204.71 256.35L1218.26 203.902L1229.81 143.043L1240.51 87.1938" stroke="white" stroke-opacity="0.15" stroke-linecap="round" stroke-linejoin="round"/>
<path d="M1136.28 1062.3L1155.14 978.635L1173.89 899.037L1192.76 825.407L1212.57 759.604L1232.14 695.215L1248.84 646.3L1259.69 599.314L1271.74 534.587L1286.99 454.368L1299.82 375.461L1310.25 307.078L1320.39 248.933L1330.97 193.95L1341.13 138.034L1351.02 85.2642" stroke="white" stroke-opacity="0.15" stroke-linecap="round" stroke-linejoin="round"/>
<path d="M1278.56 1063.36L1294.75 979.39L1311.08 898.978L1328.02 823.897L1346.34 759.176L1365.26 711.846L1379.1 686.889L1383.79 655.037L1392.58 588.96L1408.63 494.655L1420.55 396.527L1428.21 313.416L1435.47 247.629L1443.6 190.692L1452.1 136.518L1460.89 84.9565" stroke="white" stroke-opacity="0.15" stroke-linecap="round" stroke-linejoin="round"/>
<path d="M1420.84 1064.43L1434.18 980.252L1447.8 899.434L1462.32 824.515L1478.4 765.172L1495.02 737.231" stroke="white" stroke-opacity="0.15" stroke-linecap="round" stroke-linejoin="round"/>
<path d="M1563.07 1065.54L1573.39 981.239L1583.91 900.332L1595.21 826.246L1607.86 773.303L1620.35 762.711" stroke="white" stroke-opacity="0.15" stroke-linecap="round" stroke-linejoin="round"/>
<path d="M1705.35 1066.68L1712.56 982.318L1719.68 901.416L1727 827.944L1734.76 778.786" stroke="white" stroke-opacity="0.15" stroke-linecap="round" stroke-linejoin="round"/>
<path d="M2170.28 636.604L2171.32 636.039L2243.87 596.415L2364.54 545.863L2488.16 513.503L2612.36 498.243L2735.87 493.217L2750.76 493.057" stroke="white" stroke-opacity="0.15" stroke-linecap="round" stroke-linejoin="round"/>
<path d="M1514.4 248.703L1435.48 247.623L1320.4 248.938L1204.71 256.341L1089.25 273.601L974.802 303.1L954.418 322.617L905.267 326.777L861.33 330.496L839.765 332.323L827.892 332.135L794.052 331.601L763.493 331.115L757.516 321.482M757.516 321.482L746.924 290.019M757.516 321.482L791.594 324.338L827.713 324.587L863.699 322.206L897.374 317.354L926.736 310.322L939.664 277.427M757.516 321.482L727.527 316.199L712.784 284.053M746.924 290.019L740.757 252.037L739.417 209.8L743 165.852M746.924 290.019L785.74 293.247L826.897 293.521L867.891 290.833L906.246 285.354L939.664 277.427M746.924 290.019L712.784 284.053M743 165.852L751.298 122.868L763.795 83.4539L779.721 49.9774M743 165.852L781.958 168.97L823.266 169.242L864.415 166.643L902.92 161.343L936.464 153.668M743 165.852L708.737 160.082M779.721 49.9774L798.097 24.4161M779.721 49.9774L762.718 47.2196M779.721 49.9774L799.011 51.4653L819.446 51.594L839.813 50.355L858.902 47.8209L875.589 44.1485M798.097 24.4161L808.003 25.1713L818.492 25.2384L828.95 24.6091L838.761 23.3169L847.348 21.443M798.097 24.4161L789.353 23.0093L762.718 47.2196M798.097 24.4161L817.804 8.21905M847.348 21.443L875.589 44.1485M847.348 21.443L854.212 19.0964L858.955 16.4197L861.307 13.564M847.348 21.443L817.804 8.21905M875.589 44.1485L900.825 75.0352L921.537 112.288L936.464 153.668M875.589 44.1485L888.894 39.556L898.054 34.3201L902.548 28.7402M936.464 153.668L944.709 196.699L945.786 238.79L939.664 277.427M936.464 153.668L963.085 144.103L981.251 133.225L989.983 121.683L988.87 110.168L981.498 97.5925L971.647 80.7996L967.907 74.4198L960.456 66.9408L942.34 48.7495L938.439 44.831L925.875 37.3268L906.114 24.3266L902.064 21.9716L876.864 15.4715L863.162 11.3125L861.14 10.6971M939.664 277.427L966.17 267.532L973.963 228.389L993.175 216.569L992.16 174.729L1001.38 162.339L1000.16 149.974L994.28 129.24L990.767 120.65L976.382 97.7575L968.822 84.4552L939.102 52.8526L902.548 28.7402M712.784 284.053L704.449 245.763L703.062 203.594L708.737 160.082M712.784 284.053L685.352 275.718L666.218 265.526L664.344 262.17L661.656 249.603L654.977 226.277L653.54 184.326L643.18 172.453L644.125 164.059L652.228 131.105M708.737 160.082L721.139 117.856L739.503 79.4683L762.718 47.2196M708.737 160.082L681.215 152.015L662.023 142.159L652.228 131.105M762.718 47.2196L749.002 43.3542L739.364 38.6218L734.363 33.2936M817.804 8.21905L861.307 13.564M817.804 8.21905L774.697 15.8967L734.363 33.2936M817.804 8.21905L861.14 10.6971M817.804 8.21905L777.033 10.1741L774.605 13.027L734.234 26.4691L725.393 30.919L706.027 43.3766L699.132 51.2192L698.556 51.7338L679.909 72.6018L671.278 82.5729L666.305 92.2615L652.309 119.518L652.228 131.105M817.804 8.21905L858.466 7.98691L861.14 10.6971M817.804 8.21905L781.83 7.51143L777.768 9.31545L771.453 10.4398L754.333 15.2813L748.389 16.9623M817.804 8.21905L853.448 5.58433L856.569 6.06541L865.148 7.94495L880.978 11.8327L887.12 13.2256L896.899 17.8853L902.151 23.1575L902.548 28.7402M817.804 8.21905L807.033 2.06299L797.277 3.3328L788.71 5.18997L783.474 6.59683L780.202 7.48066L779.069 7.78553L768.715 10.5741L761.764 12.4452L748.389 16.9623M861.307 13.564L902.548 28.7402M861.307 13.564L861.14 10.6971M652.228 131.105L671.264 92.6615L699.191 59.3975L734.363 33.2936M734.363 33.2936L734.256 27.6941L739.034 22.1422L748.389 16.9623" stroke="white" stroke-opacity="0.15" stroke-linecap="round" stroke-linejoin="round"/>
<path d="M1726.3 119.684L1732.6 118.047L1814.22 120.044" stroke="white" stroke-opacity="0.15" stroke-linecap="round" stroke-linejoin="round"/>
<path d="M2906.57 491.688L2981.4 491.349L3104.32 491.101L3227.88 491.102L3351.5 491.714" stroke="white" stroke-opacity="0.15" stroke-linecap="round" stroke-linejoin="round"/>
<path d="M1106.47 225.656L1117.84 154.245L1129.85 91.3892" stroke="white" stroke-opacity="0.15" stroke-linecap="round" stroke-linejoin="round"/>
<path d="M1454.24 626.005L1392.61 588.951L1271.76 534.587L1147.45 500.014L1022.69 482.796L899.195 475.684L776.77 472.917L654.854 471.555L533.137 470.551L411.358 469.611L289.602 468.781" stroke="white" stroke-opacity="0.15" stroke-linecap="round" stroke-linejoin="round"/>
<path d="M2157.92 321.177L2228.77 316.733L2347.03 310.801L2465.83 307.442L2584.31 306.334L2702.19 306.41L2819.63 306.905L2936.84 307.551L3053.97 308.258L3171.04 309.011L3288.01 309.83" stroke="white" stroke-opacity="0.15" stroke-linecap="round" stroke-linejoin="round"/>
<path d="M1559.24 750.276L1533.46 698.953L1515 616.725L1514.21 526.491L1531.29 433.783L1565.23 344.379L1613.92 263.858L1674.26 197.17" stroke="white" stroke-opacity="0.15" stroke-linecap="round" stroke-linejoin="round"/>
<path d="M2059.38 193.061L2115.79 193.204L2228.4 193.503L2341.35 193.869L2454.62 194.297L2568.14 194.792L2681.72 195.329L2795.24 195.911L2908.66 196.538L3022.02 197.206L3135.32 197.908L3248.62 198.652" stroke="white" stroke-opacity="0.15" stroke-linecap="round" stroke-linejoin="round"/>
<path d="M3211.56 94.4497L3229.83 145.706L3248.64 198.63L3268.04 253.302L3288.01 309.836L3308.48 368.337L3329.58 428.897L3351.52 491.71L3374.54 557.57L3398.38 628.047L3422.5 702.242L3447.84 772.224L3475.24 842.377L3503.87 917.645L3533.38 998.054L3563.78 1082.43" stroke="white" stroke-opacity="0.15" stroke-linecap="round" stroke-linejoin="round"/>
<path d="M3101.72 93.7886L3118.33 145.006L3135.34 197.899L3152.94 252.54L3171.04 309.027L3189.58 367.464L3208.5 428.012L3227.89 491.111L3248.37 558.106L3269.94 631.411L3292.05 710.265L3314.29 777.814L3339.15 844.085L3365.48 917.216L3392.54 996.943L3420.16 1081.17" stroke="white" stroke-opacity="0.15" stroke-linecap="round" stroke-linejoin="round"/>
<path d="M2991.88 93.1387L3006.77 144.328L3022.02 197.199L3037.75 251.817L3053.95 308.277L3070.56 366.688L3087.48 427.298L3104.32 491.112L3121.47 561.528L3140.53 642.872L3162.33 733.582L3180.02 793.887L3202.27 850.237L3226.69 917.948L3251.58 996.011L3276.58 1079.91" stroke="white" stroke-opacity="0.15" stroke-linecap="round" stroke-linejoin="round"/>
<path d="M2882.05 92.4941L2895.23 143.659L2908.66 196.512L2922.51 251.114L2936.82 307.554L2951.54 365.954L2966.52 426.692L2981.4 491.346L2993.75 557.416" stroke="white" stroke-opacity="0.15" stroke-linecap="round" stroke-linejoin="round"/>
<path d="M2772.24 91.9102L2783.68 143.049L2795.25 195.903L2807.2 250.497L2819.62 306.925L2832.44 365.364L2845.55 426.34L2855.4 475.41L2856.15 479.099L2856.25 479.605" stroke="white" stroke-opacity="0.15" stroke-linecap="round" stroke-linejoin="round"/>
<path d="M2662.46 91.3223L2672.1 142.448L2681.73 195.318L2691.71 249.934L2702.18 306.424L2713.1 365.098L2724.34 426.759L2735.86 493.209L2736.94 500.274" stroke="white" stroke-opacity="0.15" stroke-linecap="round" stroke-linejoin="round"/>
<path d="M2552.77 90.7593L2560.59 141.879L2568.16 194.786L2575.97 249.508L2584.31 306.356L2593.21 366.096L2602.56 429.888L2612.35 498.24L2623.54 574.339L2630.58 631.254" stroke="white" stroke-opacity="0.15" stroke-linecap="round" stroke-linejoin="round"/>
<path d="M2443.15 90.1831L2449.16 141.303L2454.63 194.277L2460.05 249.349L2465.82 307.447L2472.37 370.428L2479.83 439.904L2488.15 513.486L2496.46 584.816L2504.68 656.474L2512.22 735.994L2525.13 793.334L2535.09 846.375L2543.58 912.374L2552.27 989.981L2561.92 1073.76" stroke="white" stroke-opacity="0.15" stroke-linecap="round" stroke-linejoin="round"/>
<path d="M2333.65 89.6299L2337.9 140.752L2341.34 193.852L2344.26 249.646L2347.01 310.809L2350.6 381.482L2356.63 462.244L2364.52 545.847L2368.71 613.209L2371.49 663.277L2378.91 717.666L2388.67 774.052L2397.56 836.586L2404.99 908.845L2411.87 988.455L2418.99 1072.58" stroke="white" stroke-opacity="0.15" stroke-linecap="round" stroke-linejoin="round"/>
<path d="M2224.29 89.0742L2226.82 140.208L2228.42 193.481L2229.09 250.449L2228.77 316.737L2229.23 400.483L2234.45 499.26L2243.86 596.397L2244.96 662.922L2240.99 693.999L2244.53 722.433L2252.55 767.934L2260.32 831.586L2266.41 906.505L2271.36 987.155L2275.92 1071.47" stroke="white" stroke-opacity="0.15" stroke-linecap="round" stroke-linejoin="round"/>
<path d="M2005.96 87.9653L2005.11 139.141L2004.57 157.285" stroke="white" stroke-opacity="0.15" stroke-linecap="round" stroke-linejoin="round"/>
<path d="M2115.04 88.5195L2115.88 139.673L2115.8 193.184L2114.72 249.752" stroke="white" stroke-opacity="0.15" stroke-linecap="round" stroke-linejoin="round"/>
<path d="M2802.17 871.607L2816.34 919.927L2831.59 993.291L2847.44 1076.25" stroke="white" stroke-opacity="0.15" stroke-linecap="round" stroke-linejoin="round"/>
<path d="M2644.76 629.057L2668.35 585.153L2701.43 547.031L2742.03 516.952L2787.75 496.708L2835.86 487.484L2875.6 504.081L2881.78 500.962L2924.79 525.276L2962.34 559.013L2992.14 600.187L3012.41 646.331L3021.93 694.681" stroke="white" stroke-opacity="0.15" stroke-linecap="round" stroke-linejoin="round"/>
<path d="M1860.42 779.447L1858.51 828.978L1855.49 902.538L1851.79 983.48L1847.68 1067.87" stroke="white" stroke-opacity="0.15" stroke-linecap="round" stroke-linejoin="round"/>
<path d="M2622.35 706.897L2630.39 740.838L2633.21 752.756L2639.48 765.205L2640.13 780.793L2658.29 826.934L2670.75 860.861L2680.71 916.78L2692.07 991.741L2704.69 1074.99" stroke="white" stroke-opacity="0.15" stroke-linecap="round" stroke-linejoin="round"/>
<path d="M2640 598.499L2636 612.355L2634.58 617.289L2630.73 632.566L2623.51 659.612L2631.99 676.125L2652.18 691.9L2683 705.997L2722.73 717.537L2769.03 725.802L2819.11 730.274L2869.93 730.657L2918.38 726.937L2961.49 719.338L2996.69 708.357L3021.92 694.68" stroke="white" stroke-opacity="0.15" stroke-linecap="round" stroke-linejoin="round"/>
<path d="M1674.12 130.946L1679.29 86.0411" stroke="white" stroke-opacity="0.15" stroke-linecap="round" stroke-linejoin="round"/>
<path d="M2707.8 515.912L2697.75 525.719L2692.51 530.812L2676.59 546.232L2670.47 552.225" stroke="white" stroke-opacity="0.15" stroke-linecap="round" stroke-linejoin="round"/>
<path d="M653.531 184.329L662.014 142.163L679.94 102.281L706.245 67.0705L739.358 38.6229L777.299 18.6248L817.796 8.22014L837.662 2.25146" stroke="white" stroke-opacity="0.15" stroke-linecap="round" stroke-linejoin="round"/>
<path d="M992.158 174.738L981.25 133.234L961.062 94.5108L932.774 60.8804L898.053 34.3291L858.954 16.4287L817.803 8.22803L782.284 21.0492L748.998 43.3632L719.946 73.903L696.885 110.859L681.214 152.024L673.875 194.935L675.29 237.004L685.351 275.727L703.402 308.818L727.526 316.208L739.024 329.921" stroke="white" stroke-opacity="0.15" stroke-linecap="round" stroke-linejoin="round"/>
<path d="M639.602 297.893L657.731 258.193L657.977 256.621L656.445 254.087" stroke="white" stroke-opacity="0.15" stroke-linecap="round" stroke-linejoin="round"/>
<path d="M973.976 228.399L972.935 186.425L963.095 144.111L945.022 103.98L919.788 68.4226M919.788 68.4226L888.907 39.5637L854.225 19.1069L817.817 8.22682M919.788 68.4226L900.838 75.0457L877.022 80.3459M919.788 68.4226L932.785 60.8792L939.112 52.8604L938.452 44.8416L930.886 37.2814L906.125 24.3372L902.077 21.9794L896.909 17.893L872.326 10.3665L865.161 7.95552L857.676 7.18356L854.202 5.53896L846.39 3.65103L837.683 2.25815L827.841 1.51416L817.817 8.22682M817.817 8.22682L774.584 11.9999M817.817 8.22682L789.363 23.017L782.298 21.048L777.317 18.6314L774.71 15.9044L774.584 11.9999M817.817 8.22682L788.723 5.19773L781.843 7.51919L777.781 9.32602L774.584 11.9999M817.817 8.22682L838.771 23.3275L858.912 47.8287L877.022 80.3459M774.584 11.9999L764.378 14.1731L739.047 22.1528L734.247 26.4797L699.143 51.3556L699.204 59.408L706.264 67.0772L719.96 73.9046L739.516 79.4789L763.805 83.4645L791.388 85.6154L820.616 85.8028L849.744 84.0071L877.022 80.3459M877.022 80.3459L892.003 118.958L902.933 161.351L909.142 204.958L910.27 247.141L906.259 285.364L897.384 317.364L895.818 320.203" stroke="white" stroke-opacity="0.15" stroke-linecap="round" stroke-linejoin="round"/>
<path d="M973.754 280.86L978.741 271.376L996.714 262.009L1106.44 225.671" stroke="white" stroke-opacity="0.15" stroke-linecap="round" stroke-linejoin="round"/>
<path d="M2188.8 408.215L2229.22 400.492L2350.61 381.487L2472.37 370.439L2593.2 366.09L2713.09 365.097L2832.44 365.36L2951.54 365.97L3070.56 366.683L3189.57 367.463L3308.47 368.347" stroke="white" stroke-opacity="0.15" stroke-linecap="round" stroke-linejoin="round"/>
<path d="M2881.88 487.107L2878.44 486.212L2835.86 487.496L2821.01 508.043L2806.56 539.147L2793.4 579.043L2782.32 625.36L2774.03 675.302L2769.03 725.815L2767.63 773.819L2769.89 816.388L2775.65 850.995L2780.25 863.738" stroke="white" stroke-opacity="0.15" stroke-linecap="round" stroke-linejoin="round"/>
<path d="M858.462 7.97656L861.013 8.63105L872.31 10.3484L887.114 13.2152" stroke="white" stroke-opacity="0.15" stroke-linecap="round" stroke-linejoin="round"/>
<path d="M981.5 97.5959L1020.89 96.3289L1129.83 91.3951L1240.51 87.1913L1351.03 85.2726L1460.9 84.9565L1570.27 85.3845L1679.3 86.039L1788.17 86.727L1897.02 87.3647L2005.96 87.9605L2115.05 88.5282L2224.29 89.0848L2333.66 89.6358L2443.15 90.1952L2552.76 90.7546L2662.46 91.3224L2772.24 91.9069L2882.06 92.5083L2991.89 93.1348L3101.71 93.7893L3211.55 94.4605" stroke="white" stroke-opacity="0.15" stroke-linecap="round" stroke-linejoin="round"/>
<path d="M2198.31 513.05L2234.45 499.256L2356.65 462.235L2479.83 439.902L2602.55 429.869L2724.35 426.745L2845.56 426.323L2966.54 426.692L3087.49 427.279L3208.5 427.998L3329.58 428.893" stroke="white" stroke-opacity="0.15" stroke-linecap="round" stroke-linejoin="round"/>
<path d="M1684.85 771.163L1674.95 733.891L1665.72 653.191L1665.35 562.176L1673.91 466.568L1690.89 372.481L1715.17 285.908L1745.15 212.253L1778.88 155.92L1814.24 120.058L1905.44 125.156" stroke="white" stroke-opacity="0.15" stroke-linecap="round" stroke-linejoin="round"/>
<path d="M1765.03 778.679L1761.27 741.79L1757.78 661.442L1757.65 570.248L1760.93 473.98L1767.4 378.823L1776.64 290.867L1788.03 215.624L1800.83 157.61L1814.23 120.036L1868.7 109.43L1886.05 113.687L1895.59 115.924L1908.61 118.973L1919.24 121.096L1951.33 129.481" stroke="white" stroke-opacity="0.15" stroke-linecap="round" stroke-linejoin="round"/>
<path d="M2856.74 508.296L2876.17 539.65L2892.98 579.769L2906.12 626.274L2914.77 676.35L2918.4 726.949L2916.77 774.959L2910.03 817.472L2898.6 851.953L2895.09 857.541L2892.68 857.751" stroke="white" stroke-opacity="0.15" stroke-linecap="round" stroke-linejoin="round"/>
<path d="M1682.33 127.774L1715.61 119.809L1724.05 117.848" stroke="white" stroke-opacity="0.15" stroke-linecap="round" stroke-linejoin="round"/>
<path d="M1674.28 197.173L1706.47 205.958L1745.16 212.248L1788.05 215.644L1832.53 215.938L1875.9 213.104L1915.52 207.329L1949.02 198.974" stroke="white" stroke-opacity="0.15" stroke-linecap="round" stroke-linejoin="round"/>
<path d="M1973.6 138.956L2005.11 139.124L2115.89 139.669L2226.82 140.206L2337.91 140.749L2449.17 141.303L2560.59 141.862L2672.11 142.435L2783.69 143.034L2895.25 143.661L3006.78 144.312L3118.33 144.992L3229.83 145.705" stroke="white" stroke-opacity="0.15" stroke-linecap="round" stroke-linejoin="round"/>
<path d="M2654.82 573.841L2623.54 574.327L2496.47 584.822L2368.73 613.211L2244.97 662.929L2149.96 715.43L2125.26 729.085L2111.31 741.017L2108.22 743.663" stroke="white" stroke-opacity="0.15" stroke-linecap="round" stroke-linejoin="round"/>
<path d="M973.976 228.389L945.8 238.791L910.27 247.131L869.468 252.899L825.853 255.723L782.067 255.433L740.77 252.037L704.463 245.764L675.305 236.992L654.988 226.277L644.639 214.267L643.19 172.453L644.136 164.059L643.313 160.015L647.71 140.249L650.247 128.857L652.322 119.518" stroke="white" stroke-opacity="0.15" stroke-linecap="round" stroke-linejoin="round"/>
<path d="M1524.16 743.152L1503.29 721.657L1502.82 720.846L1495.49 708.215L1470.96 665.912L1459.88 646.806" stroke="white" stroke-opacity="0.15" stroke-linecap="round" stroke-linejoin="round"/>
<path d="M1897 87.3628L1895.6 115.652" stroke="white" stroke-opacity="0.15" stroke-linecap="round" stroke-linejoin="round"/>
<path d="M2111.83 743.105L2118.62 770.465L2124.7 829.821L2128.58 904.933L2131.09 985.927L2132.94 1070.32" stroke="white" stroke-opacity="0.15" stroke-linecap="round" stroke-linejoin="round"/>
<path d="M979.935 636.639L986.303 612.258L1004.82 547.249L1022.67 482.804L1040.08 417.985L1056.57 358.889L1072.43 311.318L1089.25 273.607L1106.45 225.665L1218.25 203.899L1330.97 193.962L1443.61 190.695L1555.87 190.373L1571.7 190.471" stroke="white" stroke-opacity="0.15" stroke-linecap="round" stroke-linejoin="round"/>
<path d="M2125.08 260.688L2134.84 283.528L2125.96 306.55L2098.58 328.397L2054.04 347.712L1994.77 363.28M1994.77 363.28L1924.27 374.071L1846.86 379.374L1767.4 378.825L1690.89 372.462L1622.1 360.718L1565.23 344.367L1523.6 324.484L1499.47 302.315L1493.93 279.224L1506.94 256.563L1514.4 248.698L1537.44 224.404L1554.11 206.822L1565.8 194.499L1572.39 190.468L1630.66 154.81L1639.56 149.356L1679.94 137.226L1692.56 133.433L1719.08 125.462L1724.02 123.977L1814.24 120.039L1866.1 153.428L1915.5 207.314L1959.33 278.692L1994.77 363.28ZM1994.77 363.28L2019.5 455.828L2031.92 550.476L2031.3 641.243L2017.77 722.444L2002.67 762.031" stroke="white" stroke-opacity="0.15" stroke-linecap="round" stroke-linejoin="round"/>
<path d="M2644.76 629.073L2663.83 643.763L2692.93 656.877L2730.39 667.615L2774.04 675.306L2821.24 679.466L2869.12 679.821L2914.77 676.355L2955.4 669.296L2988.6 659.079L3012.41 646.347L3025.51 631.887L3027.23 616.56" stroke="white" stroke-opacity="0.15" stroke-linecap="round" stroke-linejoin="round"/>
<path d="M1430.47 503.605L1408.64 494.652L1287 454.371L1163.22 429.559L1040.09 417.983L918.704 413.673L798.673 412.053L679.291 410.946L560.164 409.606L440.634 408.26L320.799 407.36" stroke="white" stroke-opacity="0.15" stroke-linecap="round" stroke-linejoin="round"/>
<path d="M2808.46 864.146L2785.21 865.917L2784.18 864.913" stroke="white" stroke-opacity="0.15" stroke-linecap="round" stroke-linejoin="round"/>
<path d="M653.531 184.338L673.868 194.935L703.054 203.606L739.409 209.81L780.753 213.169L824.598 213.454L868.269 210.66L909.124 204.96L944.704 196.712L972.914 186.427L992.151 174.739" stroke="white" stroke-opacity="0.15" stroke-linecap="round" stroke-linejoin="round"/>
<path d="M1032.6 789.64L1037.83 779.882L1038.98 776.841L1043.48 755.425L1042.93 731.816L1036.71 708.339L1025.16 686.36M1025.16 686.36L1008.96 667.182L989.062 651.93L966.625 641.495L942.98 636.494M1025.16 686.36L1029.5 679.539L1028.86 672.703L1027.79 671.66L1014.64 658.349L1014.29 657.546L1011.91 655.247L1007.54 651.043L999.872 646.937L999.26 646.496L991.134 643.142L979.538 639.828L976.025 637.92L967.646 636.027L966.197 634.692L959.68 632.578L954.125 631.744L948.459 631.227L942.98 636.494M1025.16 686.36L1016.08 692.768L1002.76 698.39L985.985 702.882L966.712 705.984L946.098 707.502L925.359 707.346L905.724 705.522L888.364 702.146L874.287 697.422L864.318 691.627L859.029 685.11L858.702 678.258L874.787 660.682M942.98 636.494L936.53 631.616L930.958 632.491L924.813 633.562L921.012 634.902L919.51 637.204L918.143 638.39L918.325 641.137L919.888 643.008L922.802 644.669L926.9 646.014L931.943 646.979L942.98 636.494Z" stroke="white" stroke-opacity="0.15" stroke-linecap="round" stroke-linejoin="round"/>
<path d="M1656.46 137.818L1639.56 149.378L1632.69 161.819M1656.46 137.818L1640.69 147.347L1635.1 150.718L1619.57 160.104L1590.16 177.873L1571.7 190.482L1565.8 194.518L1555.61 212.48M1656.46 137.818L1658.67 137.127L1674 132.129L1706.84 124.748L1725.48 118.779L1745.71 112.872L1746.64 112.595L1763.07 108.778L1783.17 105.953L1814.24 120.058M1632.69 161.819L1636.35 174.419M1632.69 161.819L1588.91 190.591L1555.61 212.48M1632.69 161.819L1701.06 137.365L1720.64 130.359L1814.24 120.058M1636.35 174.419L1650.45 186.449L1674.26 197.18L1742.45 148.326L1814.24 120.058M1636.35 174.419L1614.33 190.753L1560.41 230.741M1636.35 174.419L1721.11 137.477L1722.7 136.786L1814.24 120.058M1814.24 120.058L1885.26 113.781L1895.55 116.905L1908.61 118.998L1941.57 127.179L1951.34 129.503L1973.6 138.979L1975.7 139.871M1814.24 120.058L1907.86 131.561L1927.21 138.733L1995.88 164.174L2038.91 193.005L2073.06 215.886M1814.24 120.058L1883.34 149.232L1896.5 143.963L1974.43 188.566L2043.21 251.298M1814.24 120.058L1897.75 119.115L1903.76 120.718L1924.43 126.222L1972.32 138.97L1975.7 139.871M1975.7 139.871L1989.48 148.189L1999.81 154.424L2004.52 158.678M1975.7 139.871L1990.87 151.646L1999.15 156.77L2004.52 158.678M2004.52 158.678L2033.93 178.265L2057.86 193.055L2065.51 197.79M2004.52 158.678L2043.58 180.827L2059.39 193.061L2065.51 197.79M2065.51 197.79L2073.06 215.886M2065.51 197.79L2075.97 208.838L2099.28 233.451L2114.73 249.768L2116.49 251.628L2125.09 260.71L2135.94 280.705L2141.35 290.677L2156.56 321.289M2073.06 215.886L2065.57 234.08L2043.21 251.298M2073.06 215.886L2105.8 251.74L2134.84 283.55L2156.56 321.289M2043.21 251.298L2007.14 266.491L1959.33 278.711L1902.62 287.169L1840.45 291.323L1776.64 290.892L1715.17 285.908L1659.81 276.7L1613.92 263.865L1580.17 248.222L1560.41 230.741M2043.21 251.298L2098.58 328.418L2137.11 415.188M1560.41 230.741L1555.61 212.48M1560.41 230.741L1544.75 249.134L1499.47 302.334L1491.25 318.38L1457.16 384.861M1555.61 212.48L1522.03 248.823L1493.93 279.243L1473.47 316.982L1451.2 358.06M2156.56 321.289L2166.26 336.583L2177.64 363.053M2156.56 321.289L2177.64 363.053M2177.64 363.053L2188.81 408.226L2199.05 449.641L2188.89 478.659L2156.43 506.265M2177.64 363.053L2167.88 389.783L2137.11 415.188M2156.43 506.265L2103.14 530.738L2031.92 550.498L1946.98 564.223L1853.58 570.969L1757.66 570.27L1665.35 562.178L1582.5 547.245L1514.21 526.501L1464.47 501.317L1435.92 473.317M2156.43 506.265L2137.11 415.188M2156.43 506.265L2155.48 596.063L2134.46 679.13L2084.47 703.116L2017.77 722.463L1938.29 735.896L1850.96 742.497L1761.28 741.812L1674.95 733.891L1597.43 719.28L1533.45 698.963L1486.77 674.28L1459.88 646.808L1454.23 626.024L1436.91 562.391L1435.92 473.317M1435.92 473.317L1452.7 403.449L1457.16 384.861M1435.92 473.317L1429.79 444.226L1440.57 400.842L1451.2 358.06M1457.16 384.861L1484.24 410.632L1531.29 433.79L1595.76 452.857L1673.91 466.568L1760.93 474.002L1851.34 474.645L1939.39 468.45L2019.5 455.847L2086.73 437.692L2137.11 415.188M1457.16 384.861L1451.2 358.06" stroke="white" stroke-opacity="0.15" stroke-linecap="round" stroke-linejoin="round"/>
<path d="M1517.39 741.768L1502.06 728.608L1383.81 655.032L1259.71 599.317L1132.31 564.392L1004.84 547.244L878.886 540.131L754.092 537.197L629.872 535.743L505.691 534.674L381.587 533.726L257.63 532.859" stroke="white" stroke-opacity="0.15" stroke-linecap="round" stroke-linejoin="round"/>
<path d="M1028.97 795.326L1038.3 777.787L1038.8 776.637L1043.19 769.874L1043.74 767.578L1048.64 747.076" stroke="white" stroke-opacity="0.15" stroke-linecap="round" stroke-linejoin="round"/>
<path d="M3020.36 771.558L3007.3 786.493L2987.22 819.405" stroke="white" stroke-opacity="0.15" stroke-linecap="round" stroke-linejoin="round"/>
<path d="M855.805 683.72L836.408 682.87L706.448 676.89L577.09 673.027L448.179 670.63L319.469 669.098L190.886 668.007" stroke="white" stroke-opacity="0.15" stroke-linecap="round" stroke-linejoin="round"/>
<path d="M1786.59 105.73L1788.16 86.7258" stroke="white" stroke-opacity="0.15" stroke-linecap="round" stroke-linejoin="round"/>
<path d="M1805.02 104.569L1814.23 120.052" stroke="white" stroke-opacity="0.15" stroke-linecap="round" stroke-linejoin="round"/>
<path d="M1020.32 800.912L1028.05 785.224L1032.57 763.29L1032.01 739.642L1026.4 715.664L1016.07 692.773L1001.61 672.325L983.894 655.518L963.954 643.338L942.971 636.499L926.892 646.02L911.85 660.751L898.741 679.835L888.353 702.149L881.302 726.384L878.01 751.09L878.675 774.799L883.251 796.112L891.446 813.775L908.754 817.237L928.321 819.106L939.5 819.19" stroke="white" stroke-opacity="0.15" stroke-linecap="round" stroke-linejoin="round"/>
<path d="M2758.37 489.28L2774.86 484.519L2795.41 481.871L2804.51 480.036L2814.82 478.346L2826.32 477.519L2835.87 487.49L2885.27 497.408L2931.48 518.32L2971.78 548.992L2986.61 566.9L3003.75 587.609L3025.51 631.876L3035.79 679.153L3034.03 726.639L3028.15 745.949L3034.06 773.989L3045.41 822.118L3065.14 860.937L3088.47 919.625L3111.12 995.249L3133.3 1078.67" stroke="white" stroke-opacity="0.15" stroke-linecap="round" stroke-linejoin="round"/>
<path d="M1554.12 206.825L1555.88 190.365L1562.84 136.577L1570.27 85.376" stroke="white" stroke-opacity="0.15" stroke-linecap="round" stroke-linejoin="round"/>
<path d="M948.97 817.844L948.726 802.343L948.27 781.389L947.655 757.643L946.914 732.515L946.089 707.516L945.23 684.128L944.397 663.744L943.625 647.558L942.967 636.507L942.467 631.199" stroke="white" stroke-opacity="0.15" stroke-linecap="round" stroke-linejoin="round"/>
<path d="M1007.06 806.066L1012.97 791.762L1016.55 770.204L1015.99 746.514L1011.3 722.099L1002.76 698.409L990.878 676.839L976.359 658.67L960.073 644.959L942.975 636.513L919.101 642.087L895.231 651.247" stroke="white" stroke-opacity="0.15" stroke-linecap="round" stroke-linejoin="round"/>
<path d="M2947.72 841.124L2934.14 845.492L2932.23 847.682" stroke="white" stroke-opacity="0.15" stroke-linecap="round" stroke-linejoin="round"/>
<path d="M989.973 810.376L993.956 796.954L996.345 775.694L995.766 751.979L992.242 727.215L985.982 702.873L977.354 680.411L966.885 661.148L955.193 646.218" stroke="white" stroke-opacity="0.15" stroke-linecap="round" stroke-linejoin="round"/>
<path d="M2664 558.537L2661.17 571.766L2668.35 585.167L2685.23 597.951L2710.9 609.354L2743.91 618.685L2782.32 625.361L2823.84 628.969L2865.96 629.28L2906.11 626.276L2941.88 620.139L2971.12 611.268L2992.13 600.2L3003.74 587.614L3005.35 574.272L2999.36 566.396L2995.83 561.65L2993.75 557.429L2981.29 543.831L2973.55 535.389L2966.5 527.701L2951.2 517.559L2933.13 506.751L2927.52 502.811L2917.99 496.495L2906.58 491.698L2903.29 490.314L2884.7 485.302" stroke="white" stroke-opacity="0.15" stroke-linecap="round" stroke-linejoin="round"/>
<path d="M970.117 813.81L972.105 800.559L973.118 779.5L972.522 755.766L970.34 730.761L966.699 705.974L961.826 682.891L956.009 662.876L949.595 647.104L942.967 636.487L930.945 632.485L926.076 633.763L922.183 635.36" stroke="white" stroke-opacity="0.15" stroke-linecap="round" stroke-linejoin="round"/>
<path d="M712.688 318.311L703.399 308.798L686.542 299.756L677.894 289.611L668.804 274.558L661.977 263.256L660.564 260.92L657.725 258.193L656.092 258.937L545.82 221.875L432.639 205.645" stroke="white" stroke-opacity="0.15" stroke-linecap="round" stroke-linejoin="round"/>
<path d="M695.403 308.323L686.55 299.756L669.388 270.855L666.219 265.516L664.346 262.162L658.508 256.501L656.444 254.088L655.868 252.138L646.932 222.026L644.63 214.259" stroke="white" stroke-opacity="0.15" stroke-linecap="round" stroke-linejoin="round"/>
<path d="M2826.31 477.519L2838.35 477.605L2850.24 478.598" stroke="white" stroke-opacity="0.15" stroke-linecap="round" stroke-linejoin="round"/>
<path d="M2856.74 508.288L2845.14 509.127L2833 509.043L2821.02 508.033L2809.89 506.165L2784.93 535.469L2762.48 573.725L2743.92 618.675L2730.4 667.602L2722.74 717.538L2721.41 765.444L2726.45 808.436L2737.52 843.954L2742.21 851.4" stroke="white" stroke-opacity="0.15" stroke-linecap="round" stroke-linejoin="round"/>
<path d="M1983.81 765.316L1987.94 775.911L1990.9 829.394L1991.69 903.709L1991.25 984.72L1990.19 1069.12" stroke="white" stroke-opacity="0.15" stroke-linecap="round" stroke-linejoin="round"/>
<path d="M2120.17 727.895L2112.22 735.009" stroke="white" stroke-opacity="0.15" stroke-linecap="round" stroke-linejoin="round"/>
<path d="M1503.47 738.94L1502.05 728.614L1502.82 720.841" stroke="white" stroke-opacity="0.15" stroke-linecap="round" stroke-linejoin="round"/>
<path d="M807.027 2.06694L817.412 1.44043L827.825 1.50756" stroke="white" stroke-opacity="0.15" stroke-linecap="round" stroke-linejoin="round"/>
<path d="M2838.36 477.614L2835.87 487.499L2833.01 509.055L2829.92 541.136L2826.81 581.912L2823.86 628.971L2821.25 679.464L2819.14 730.293L2817.66 778.341L2816.9 820.684V854.798L2817.17 863.626" stroke="white" stroke-opacity="0.15" stroke-linecap="round" stroke-linejoin="round"/>
<path d="M967.907 74.4308L968.819 84.4662L961.063 94.5128L945.008 103.978L921.537 112.296L891.99 118.958L858.105 123.559L821.904 125.819L785.572 125.584L751.298 122.877L721.136 117.864L696.886 110.858L679.948 102.288L671.261 92.6696L671.275 82.5811L677.761 75.3174L695.51 55.4144L699.129 51.2274L706.024 43.3848" stroke="white" stroke-opacity="0.15" stroke-linecap="round" stroke-linejoin="round"/>
<path d="M910.355 636.923L919.811 634.445" stroke="white" stroke-opacity="0.15" stroke-linecap="round" stroke-linejoin="round"/>
<path d="M873.817 808.97L867.482 802.996L858.171 787.492L854.943 783.269L850.043 776.346L849.682 775.13L843.417 753.909L843.053 745.513L842.676 730.544L842.365 721.96" stroke="white" stroke-opacity="0.15" stroke-linecap="round" stroke-linejoin="round"/>
<path d="M794.05 331.61L791.591 324.346L785.737 293.255L782.051 255.443L780.759 213.165L781.956 168.979L785.57 125.584L791.373 85.6161L799.006 51.4766L808.001 25.1798L817.801 8.22752L846.375 3.64893L854.187 5.53966L856.268 5.7746" stroke="white" stroke-opacity="0.15" stroke-linecap="round" stroke-linejoin="round"/>
<path d="M2684.42 827.72L2679.28 822.135L2660.2 783.814L2650.98 739.541L2652.2 691.909L2663.85 643.757L2685.25 597.949L2715.13 557.234L2751.7 524.043L2792.77 500.339L2835.88 487.492L2885.87 493.617" stroke="white" stroke-opacity="0.15" stroke-linecap="round" stroke-linejoin="round"/>
<path d="M827.892 332.137L827.715 324.588L826.899 293.522L825.841 255.727L824.605 213.443L823.268 169.243L821.903 125.809L820.606 85.7934L819.445 51.5952L818.494 25.2368L817.806 8.21742L817.417 1.44043" stroke="white" stroke-opacity="0.15" stroke-linecap="round" stroke-linejoin="round"/>
<path d="M2709.37 839.77L2704.76 834.137L2689.16 797.354L2681.75 753.786L2683.03 706.006L2692.94 656.869L2710.92 609.349L2735.88 566.31L2766.28 530.336L2800.31 503.549L2835.88 487.492L2881.79 500.971" stroke="white" stroke-opacity="0.15" stroke-linecap="round" stroke-linejoin="round"/>
<path d="M1741.81 778.629L1734.74 778.794" stroke="white" stroke-opacity="0.15" stroke-linecap="round" stroke-linejoin="round"/>
<path d="M1904.83 137.942L1907.85 131.551L1905.43 125.149" stroke="white" stroke-opacity="0.15" stroke-linecap="round" stroke-linejoin="round"/>
<path d="M948.44 631.247L942.457 631.203L936.511 631.636" stroke="white" stroke-opacity="0.15" stroke-linecap="round" stroke-linejoin="round"/>
<path d="M955.197 646.216L949.609 647.103L943.635 647.538L937.632 647.494L931.942 646.972" stroke="white" stroke-opacity="0.15" stroke-linecap="round" stroke-linejoin="round"/>
<path d="M862.212 327.479L863.714 322.215L867.906 290.842L869.473 252.907L868.295 210.656L864.433 166.652L858.123 123.559L849.749 84.0051L839.828 50.3635L828.965 24.6176L817.822 8.22477L797.295 3.34131" stroke="white" stroke-opacity="0.15" stroke-linecap="round" stroke-linejoin="round"/>
<path d="M881.148 812.603L877.431 808.92L867.317 790.614L856.032 783.887L849.766 761.881L843.429 753.89L842.687 730.521L842.377 721.938L847.691 699.081" stroke="white" stroke-opacity="0.15" stroke-linecap="round" stroke-linejoin="round"/>
<path d="M1001.64 173.417L1006.5 172.673L1117.82 154.236L1229.8 143.026L1341.13 138.028L1452.1 136.503L1562.83 136.568L1658.23 137.102" stroke="white" stroke-opacity="0.15" stroke-linecap="round" stroke-linejoin="round"/>
<path d="M923.884 314.109L926.731 310.314L950.049 301.54L966.165 267.523L984.259 256.277L992.949 244.348L993.754 240.899L1002.37 204.027L1001.64 173.417L1001.38 162.328L990.761 120.639L988.865 110.156" stroke="white" stroke-opacity="0.15" stroke-linecap="round" stroke-linejoin="round"/>
<path d="M895.214 651.236L898.235 654.88L903.885 658.116L911.836 660.751L921.634 662.634L932.699 663.649L944.387 663.738L956 662.891L966.866 661.165L976.345 658.656L983.88 655.518L989.04 651.935L991.527 648.115L991.119 643.254L987.964 640.49L982.412 637.447L979.836 636.991L971.515 635.517L963.23 634.049L942.958 636.499L918.121 638.395L909.554 640.101L897.815 643.226L896.202 643.981L894.918 646.098L895.214 651.236ZM895.214 651.236L875.054 666.188L859.011 685.115L848.016 706.915L842.713 730.303L849.056 738.246L861.044 745.319L877.999 751.09L898.937 755.218L922.624 757.441L947.646 757.634L972.516 755.78L995.747 751.993L1015.97 746.503L1032 739.642L1042.91 731.821L1048.1 723.509L1042.1 699.735L1040.84 692.754" stroke="white" stroke-opacity="0.15" stroke-linecap="round" stroke-linejoin="round"/>
<path d="M2885.85 493.617L2885.26 497.41L2881.78 500.973" stroke="white" stroke-opacity="0.15" stroke-linecap="round" stroke-linejoin="round"/>
<path d="M893.313 815.917L891.434 813.76L877.407 808.913L867.469 802.97L862.189 796.285L857.208 788.112L854.928 783.24L849.849 775.713L812.876 768.701L680.816 754.004L549.225 746.586L417.917 742.735L286.786 740.657L155.788 739.356" stroke="white" stroke-opacity="0.15" stroke-linecap="round" stroke-linejoin="round"/>
<path d="M909.62 818.583L908.745 817.226L902.924 800.022L899.59 778.936L898.938 755.204L901.017 730.233L905.704 705.514L912.716 682.526L921.636 662.62L931.923 646.974" stroke="white" stroke-opacity="0.15" stroke-linecap="round" stroke-linejoin="round"/>
<path d="M2913.15 855.108L2913.67 856.162L2931.02 870.505L2951.81 920.802L2971.23 994.454L2990.27 1077.48" stroke="white" stroke-opacity="0.15" stroke-linecap="round" stroke-linejoin="round"/>
<path d="M905.283 326.766L917.551 322.591L946.541 312.72L974.818 303.09L996.738 261.986L1002.52 209.239L1006.52 172.675L1020.9 96.3125" stroke="white" stroke-opacity="0.15" stroke-linecap="round" stroke-linejoin="round"/>
<path d="M1525.59 743.423L1525.43 743.146L1508.96 713.784L1486.78 674.258L1465.39 590.982L1464.48 501.295L1484.25 410.61L1523.61 324.481L1580.17 248.197L1650.46 186.424L1730.11 142.867L1814.24 120.036L1849.05 106.353" stroke="white" stroke-opacity="0.15" stroke-linecap="round" stroke-linejoin="round"/>
<path d="M1503.27 738.9L1502.99 738.78L1495.45 736.511L1365.29 711.848L1232.16 695.226L1098.02 689.282L1038.59 688.955" stroke="white" stroke-opacity="0.15" stroke-linecap="round" stroke-linejoin="round"/>
<path d="M2802.17 871.593L2782.51 869.985L2670.75 860.85L2535.09 846.376L2397.57 836.584L2260.31 831.586L2124.68 829.815L1990.88 829.382L1858.5 828.982L1726.99 827.936L1595.22 826.227L1462.31 824.498L1328.03 823.886L1192.77 825.405L1056.99 829.192L922.861 833.474L789.45 827.95L654.699 822.389L520.387 818.532L386.514 816.068L252.882 814.454L119.39 813.28" stroke="white" stroke-opacity="0.15" stroke-linecap="round" stroke-linejoin="round"/>
<path d="M1656.46 137.795L1658.67 137.105L1674 132.107L1682.32 127.754L1692.6 125.349L1724.34 117.837L1745.71 112.85L1814.24 120.035L1845.78 156.336L1875.88 213.089L1902.63 287.147L1924.27 374.07L1939.39 468.427L1946.98 564.2L1946.59 655.263L1938.29 735.874L1929.83 771.35" stroke="white" stroke-opacity="0.15" stroke-linecap="round" stroke-linejoin="round"/>
<path d="M2199.06 449.64L2198.31 513.075L2198.01 538.191L2187.87 567.853L2155.49 596.063L2102.34 621.068L2031.31 641.261L1946.6 655.283L1853.46 662.18L1757.79 661.464L1665.73 653.19L1583.11 637.936L1515.01 616.732L1465.4 591.003L1436.92 562.391L1430.8 532.656L1430.47 503.618L1429.8 444.223" stroke="white" stroke-opacity="0.15" stroke-linecap="round" stroke-linejoin="round"/>
<path d="M1614.42 761.48L1559.24 750.264L1525.59 743.426L1524.17 743.135L1517.39 741.762L1503.46 738.928L1503.27 738.889L1495.44 736.501L1379.12 686.88L1248.86 646.297L1116.93 622.702L986.319 612.249L857.881 607.307L730.833 604.622L603.991 602.645L477.41 601.241L351.025 600.158L224.782 599.202" stroke="white" stroke-opacity="0.15" stroke-linecap="round" stroke-linejoin="round"/>
<path d="M3037.59 662.701L3036.81 683.812L3035.82 710.009L3034.02 726.636L3020.17 742.341L3007.28 786.477L2983.56 799.623L2964.7 833.446" stroke="white" stroke-opacity="0.15" stroke-linecap="round" stroke-linejoin="round"/>
<path d="M3028.15 745.951L3020.35 771.547L3012.19 784.668L3003.95 797.914L2998.37 806.888" stroke="white" stroke-opacity="0.15" stroke-linecap="round" stroke-linejoin="round"/>
<path d="M2198 538.188L2190.55 565.503L2187.77 575.701L2174.72 623.553L2169.65 636.945L2165.02 652.049L2134.46 679.126L2100 741.285" stroke="white" stroke-opacity="0.15" stroke-linecap="round" stroke-linejoin="round"/>
<path d="M2903.3 490.306L2884.49 485.663L2871.78 482.908M2871.78 482.908L2861.3 480.435M2871.78 482.908L2878.45 486.203L2883.54 489.802M2861.3 480.435L2835.87 487.486M2861.3 480.435L2856.26 479.594L2850.25 478.595L2835.87 487.486M2835.87 487.486L2809.9 506.167L2800.3 503.544L2792.77 500.333L2787.75 496.711L2785.54 492.899M2835.87 487.486L2814.82 478.343L2804 479.91L2795.41 481.865L2789.79 485.576M2835.87 487.486L2796.01 482.491L2780.94 485.21L2758.37 489.276L2750.76 493.041L2746.27 495.265M2835.87 487.486L2870.89 483.023L2883.08 486.563L2894.31 490.328L2899.65 491.718L2918 496.487L2927.53 502.803L2930.69 504.335L2933.26 505.921L2951.21 517.548L2966.51 527.69L2973.17 538.338M2835.87 487.486L2789.79 485.576M2835.87 487.486L2883.54 489.802M2835.87 487.486L2786.23 489.114M2835.87 487.486L2867.1 506.573M2835.87 487.486L2785.54 492.899M2835.87 487.486L2856.74 508.29L2867.1 506.573M2785.54 492.899L2786.23 489.114M2785.54 492.899L2737.82 509.515M2786.23 489.114L2789.79 485.576M2786.23 489.114L2783.74 489.805L2764.4 495.17L2739.27 502.142M2789.79 485.576L2786.76 486.253L2771.78 489.587L2756.52 492.982L2746.27 495.265M2883.54 489.802L2889.9 491.763L2927.95 503.488L2932.54 510.905M2883.54 489.802L2885.86 493.612L2932.54 510.905M2932.54 510.905L2931.48 518.317L2924.8 525.279L2912.86 531.387M2932.54 510.905L2973.17 538.338M2912.86 531.387L2896.32 536.273M2912.86 531.387L2875.61 504.086L2867.1 506.573M2912.86 531.387L2945.36 567.831M2896.32 536.273L2876.17 539.644L2853.59 541.294L2829.92 541.123L2806.57 539.14L2784.93 535.468L2766.27 530.333L2751.7 524.037L2742.04 516.955L2737.82 509.515M2896.32 536.273L2867.1 506.573M2896.32 536.273L2921.78 574.885M2737.82 509.515L2739.27 502.142M2737.82 509.515L2695.55 536.335M2739.27 502.142L2746.27 495.265M2739.27 502.142L2735.02 504.562L2708.09 519.867L2697.74 525.712L2697.55 525.866L2692.5 530.803L2670.47 552.23L2664.01 558.529L2658.77 567.261L2654.82 573.836L2647.78 585.575L2640.02 598.505L2636.71 613.679M2746.27 495.265L2739.96 498.649L2736.95 500.266L2733.6 502.061L2707.8 515.906L2697.73 525.757L2695.55 536.335M2973.17 538.338L2971.78 548.986L2962.34 559.015L2945.36 567.831M2973.17 538.338L2995.84 561.642L2999.37 566.385L3005.37 574.264L3027.24 616.548L3036.92 659.616L3037.6 662.701L3035.8 679.15L3021.93 694.684L3020.18 742.338L2994.98 756.169M2945.36 567.831L2921.78 574.885M2945.36 567.831L2971.13 611.257L2988.6 659.065L2996.71 708.364L2994.98 756.169M2921.78 574.885L2892.98 579.76L2860.68 582.149L2826.81 581.9L2793.4 579.036L2762.48 573.727L2735.87 566.307L2715.12 557.228L2701.44 547.033L2695.55 536.335M2921.78 574.885L2941.89 620.131L2955.41 669.282L2961.51 719.344L2959.83 767.27M2695.55 536.335L2661.18 571.758L2660.02 573.755L2636.71 613.679M2994.98 756.169L2959.83 767.27M2994.98 756.169L2983.57 799.622L2950.51 810.172M2959.83 767.27L2916.77 774.953L2868.4 778.718L2817.65 778.329L2767.64 773.809L2721.41 765.446L2681.74 753.78L2650.97 739.533L2630.82 723.585M2959.83 767.27L2950.51 810.172M2630.82 723.585L2632.01 676.129L2644.76 629.059L2636.71 613.679M2630.82 723.585L2639.27 760.213L2641.21 768.638L2660.19 783.808L2689.15 797.348L2726.45 808.438L2769.9 816.379L2816.89 820.672L2864.57 821.041L2910.03 817.467L2950.51 810.172M2630.82 723.585L2622.36 706.89L2623.28 669.858L2623.53 659.616L2627.09 643.335L2630.74 632.569L2636.71 613.679M2950.51 810.172L2934.14 845.489L2898.61 851.947L2858.72 855.113L2816.89 854.786L2775.66 850.985L2737.52 843.954L2704.75 834.134L2679.27 822.129L2662.53 808.668L2650.56 786.186L2640.14 780.782L2639.82 780.673L2512.23 735.997L2378.93 717.663L2244.53 722.435L2125.06 739.731L2114.04 742.696L2113.61 742.819L2111.82 743.102" stroke="white" stroke-opacity="0.15" stroke-linecap="round" stroke-linejoin="round"/>
<path d="M978.76 271.361L982.477 264.29L987.864 254.051L992.965 244.354" stroke="white" stroke-opacity="0.15" stroke-linecap="round" stroke-linejoin="round"/>
<path d="M2774.87 484.531L2791.78 481.975L2804.52 480.048L2835.88 487.502L2845.15 509.144L2853.6 541.312L2860.69 582.164L2865.97 629.287L2869.13 679.822L2869.96 730.679L2868.4 778.736L2864.58 821.056L2858.72 855.129L2856.95 860.753" stroke="white" stroke-opacity="0.15" stroke-linecap="round" stroke-linejoin="round"/>
<path d="M1039.65 776.485L1043.21 769.858" stroke="white" stroke-opacity="0.15" stroke-linecap="round" stroke-linejoin="round"/>
<path d="M966.928 289.789L975.623 272.991L984.275 256.277L993.187 216.555L1002.39 204.024" stroke="white" stroke-opacity="0.15" stroke-linecap="round" stroke-linejoin="round"/>
<path d="M1783.16 105.941L1786.59 105.729L1805.02 104.562L1827.4 104.705" stroke="white" stroke-opacity="0.15" stroke-linecap="round" stroke-linejoin="round"/>
<path d="M2639.47 765.214L2641.2 768.654L2645.67 777.037L2650.54 786.205" stroke="white" stroke-opacity="0.15" stroke-linecap="round" stroke-linejoin="round"/>
</svg>
