<svg width="4142" height="517" viewBox="0 0 4142 517" fill="none" xmlns="http://www.w3.org/2000/svg">
<path d="M4141.15 516.122L3812.22 400.918H2655.91L2580.15 317.867L2522.94 255.155L2478.22 206.128L2442.3 166.748L2412.81 134.42L2388.17 107.408L2367.26 84.499H1825.75L1802.14 107.408L1774.29 134.42L1740.98 166.748L1700.38 206.128L1649.85 255.155L1585.21 317.867L1499.61 400.918H343.308L0.739258 516.122" stroke="#D4D4D4" stroke-linecap="round" stroke-linejoin="round"/>
<path d="M230.723 516.113L535.998 400.91L756.071 317.859H1419.37L1504.31 255.147H2668.43L2745.94 317.859H3409.24L3619.47 400.91L3911.08 516.113" stroke="#D4D4D4" stroke-linecap="round" stroke-linejoin="round"/>
<path d="M460.75 516.104L728.72 400.901L921.902 317.85L1067.76 255.138L1181.8 206.111H1441.08L1507.18 166.731H2676.05L2737.48 206.111H2996.76L3104.99 255.138L3243.42 317.85L3426.76 400.901L3681.07 516.104" stroke="#D4D4D4" stroke-linecap="round" stroke-linejoin="round"/>
<path d="M343.298 400.898L590.266 317.847H756.086L922.261 255.135H1504.32L1570.73 206.108L1624.07 166.728L1667.86 134.4H2519.22L2559.17 166.728L2607.85 206.108L2668.45 255.135H3250.51L3409.25 317.847H3575.07L3812.21 400.898" stroke="#D4D4D4" stroke-linecap="round" stroke-linejoin="round"/>
<path d="M690.773 516.109L921.437 400.905L1087.72 317.855L1213.28 255.143L1311.44 206.116L1390.29 166.736L1455.02 134.408H1561.43L1606.77 107.396H2778.83L2838.46 134.408H2944.88L3026.71 166.736H3143.6L3256.04 206.116" stroke="#D4D4D4" stroke-linecap="round" stroke-linejoin="round"/>
<path d="M4141.15 516.113H2530.98L2463.2 400.91L2414.33 317.859L2377.43 255.147L2348.58 206.12L2325.41 166.74L2306.39 134.412L2290.49 107.4L2277.01 84.4907L2265.44 64.815L2255.39 47.7339H1941.98L1929.91 64.815L1916 84.4907L1899.8 107.4L1880.71 134.412L1857.86 166.74L1830.02 206.12L1795.37 255.147L1751.04 317.859L1692.33 400.91L1610.89 516.113H0.739258" stroke="#D4D4D4" stroke-linecap="round" stroke-linejoin="round"/>
<path d="M2530.97 516.121H1610.88" stroke="#D4D4D4" stroke-linecap="round" stroke-linejoin="round"/>
<path d="M920.801 516.133L1114.16 400.929L1253.55 317.878L1358.8 255.166L1441.08 206.14H2737.48L2813.96 255.166L2911.78 317.878L3041.33 400.929L3221.03 516.133" stroke="#D4D4D4" stroke-linecap="round" stroke-linejoin="round"/>
<path d="M590.28 317.858L776.761 255.146H922.275L1052.19 206.119H1181.83L1273.43 166.739H1507.2L1561.46 134.411H1667.88L1704.47 107.399L1735.51 84.4897H1825.76L1846.04 64.814H2349.33L2367.27 84.4897H2457.52L2485.84 107.399L2519.23 134.411H2625.65L2676.07 166.739H2909.85L2996.78 206.119H3126.43L3250.53 255.146H3396.05L3575.09 317.858" stroke="#D4D4D4" stroke-linecap="round" stroke-linejoin="round"/>
<path d="M1150.82 516.113L1306.88 400.91L1419.37 317.859H2745.95L2848.61 400.91L2991.01 516.113" stroke="#D4D4D4" stroke-linecap="round" stroke-linejoin="round"/>
<path d="M1380.85 516.109L1499.59 400.905H2655.89L2760.99 516.109" stroke="#D4D4D4" stroke-linecap="round" stroke-linejoin="round"/>
<path d="M776.751 255.147L922.542 206.12H1052.18L1156.53 166.74H1273.42L1348.62 134.412H1455.04L1509.12 107.4H1606.79L1645.24 84.4907H1735.5L1762.14 64.815L1785.28 47.7339H1941.98" stroke="#D4D4D4" stroke-linecap="round" stroke-linejoin="round"/>
<path d="M922.549 206.12L1039.66 166.736H1156.54L1242.2 134.408H1348.62L1411.46 107.4H1509.13L1555 84.4907H1645.25L1678.27 64.815H1846.04L1863.64 47.7339" stroke="#D4D4D4" stroke-linecap="round" stroke-linejoin="round"/>
<path d="M1840.9 516.113L1885.03 400.91L1916.84 317.859L1940.87 255.147L1959.65 206.12L1974.73 166.74L1987.12 134.412L1997.47 107.4L2006.24 84.4907L2013.78 64.815L2020.32 47.7339" stroke="#D4D4D4" stroke-linecap="round" stroke-linejoin="round"/>
<path d="M1039.64 166.74L1135.77 134.412H1242.18L1313.76 107.4H1411.43L1464.72 84.4907H1554.97L1594.37 64.815L1628.57 47.7339H1785.27" stroke="#D4D4D4" stroke-linecap="round" stroke-linejoin="round"/>
<path d="M1135.78 134.408L1216.1 107.396H1313.78L1374.48 84.4907H1464.73L1510.5 64.815H1678.26L1706.93 47.7339" stroke="#D4D4D4" stroke-linecap="round" stroke-linejoin="round"/>
<path d="M2647.13 47.7422H2803.83L2852.59 64.8233L2908.77 84.499" stroke="#D4D4D4" stroke-linecap="round" stroke-linejoin="round"/>
<path d="M2255.4 47.7422H2333.76L2349.34 64.8233H2433.22L2457.53 84.499H2547.79L2583.53 107.408L2625.66 134.416H2732.08L2792.97 166.748L2867.16 206.128L2959.51 255.155L3077.63 317.867L3234.08 400.918L3451.09 516.122" stroke="#D4D4D4" stroke-linecap="round" stroke-linejoin="round"/>
<path d="M2490.43 47.7261H2647.13L2684.84 64.8072L2728.27 84.4829H2818.52L2876.51 107.392H2974.18L3051.31 134.4" stroke="#D4D4D4" stroke-linecap="round" stroke-linejoin="round"/>
<path d="M2333.73 47.7339H2490.43L2517.08 64.815L2547.76 84.4907H2638.01L2681.17 107.4L2732.06 134.408H2838.48L2909.83 166.74H3026.72L3126.41 206.12H3256.05L3396.03 255.147" stroke="#D4D4D4" stroke-linecap="round" stroke-linejoin="round"/>
<path d="M1216.1 107.4L1284.22 84.4907H1374.47L1426.61 64.815L1471.87 47.7339H1628.57" stroke="#D4D4D4" stroke-linecap="round" stroke-linejoin="round"/>
<path d="M1284.23 84.5044L1342.74 64.8283L1510.51 64.8284L1550.24 47.7462" stroke="#D4D4D4" stroke-linecap="round" stroke-linejoin="round"/>
<path d="M1342.74 64.815L1393.54 47.7339H1471.89" stroke="#D4D4D4" stroke-linecap="round" stroke-linejoin="round"/>
<path d="M2725.5 47.7339L2768.73 64.815H2852.61" stroke="#D4D4D4" stroke-linecap="round" stroke-linejoin="round"/>
<path d="M2568.8 47.73L2600.97 64.8111H2768.73L2818.54 84.4868H2908.8L2974.2 107.396" stroke="#D4D4D4" stroke-linecap="round" stroke-linejoin="round"/>
<path d="M2412.1 47.7261L2433.21 64.8071H2600.97L2638.03 84.4829H2728.29L2778.86 107.392H2876.53L2944.91 134.4H3051.33L3143.63 166.732" stroke="#D4D4D4" stroke-linecap="round" stroke-linejoin="round"/>
<path d="M2177.03 47.7422L2181.55 64.8233L2186.76 84.499L2192.81 107.408L2199.96 134.416L2208.51 166.748L2218.94 206.128L2231.91 255.155L2248.5 317.867L2270.47 400.918L2300.95 516.122" stroke="#D4D4D4" stroke-linecap="round" stroke-linejoin="round"/>
<path d="M2098.66 47.7422L2097.65 64.8233L2096.48 84.499L2095.13 107.408L2093.53 134.416L2091.61 166.748L2089.28 206.128L2086.37 255.155L2082.66 317.867L2077.74 400.918L2070.91 516.122" stroke="#D4D4D4" stroke-linecap="round" stroke-linejoin="round"/>
</svg>
