<svg width="50" height="11" viewBox="0 0 50 11" fill="none" xmlns="http://www.w3.org/2000/svg">
<path d="M19.0382 6.52122C19.0382 7.42497 18.9232 8.54061 17.9673 9.50057C17.0424 10.4303 15.9715 10.573 14.9625 10.573C13.9491 10.573 12.8826 10.4303 11.9577 9.50057C11.0062 8.54061 10.8867 7.42497 10.8867 6.52122V1.43601C10.8867 1.16359 11.1124 0.943054 11.3912 0.943054H12.6038C12.8826 0.943054 13.1083 1.16359 13.1083 1.43601V6.46068C13.1083 6.87148 13.1392 7.56335 13.6127 8.04333C14.0022 8.45412 14.5376 8.53628 14.9581 8.53628C15.3785 8.53628 15.9095 8.4498 16.3034 8.04333C16.7813 7.56335 16.8079 6.87148 16.8079 6.46068V1.43601C16.8079 1.16359 17.0336 0.943054 17.3124 0.943054H18.5249C18.8037 0.943054 19.0294 1.16359 19.0294 1.43601V6.52122H19.0382Z" fill="white"/>
<path d="M23.5963 0.943054C24.8221 0.943054 25.5921 1.33655 26.0524 1.76032C26.4551 2.14085 26.8888 2.81974 26.8888 3.86186C26.8888 4.45427 26.7604 5.18938 26.1364 5.78179C25.9329 5.97205 25.6806 6.14934 25.393 6.28772C25.1053 6.42609 25.008 6.78067 25.2027 7.03147L27.1499 9.56543C27.4021 9.88974 27.1631 10.3568 26.7471 10.3568H25.3089C25.1407 10.3568 24.9858 10.2746 24.8929 10.1405L23.3662 7.96117C23.0874 7.55902 22.4413 7.75361 22.4413 8.24224V9.8638C22.4413 10.1362 22.2156 10.3568 21.9368 10.3568H20.7242C20.4454 10.3568 20.2197 10.1362 20.2197 9.8638V1.43601C20.2197 1.16359 20.4454 0.943054 20.7242 0.943054H23.5963ZM22.4413 4.7267C22.4413 4.99912 22.667 5.21965 22.9458 5.21965C23.3485 5.21965 23.8972 5.17641 24.2734 4.80885C24.4327 4.65318 24.6362 4.35914 24.6362 3.89213C24.6362 3.35594 24.3751 3.07487 24.1893 2.93217C23.8264 2.66407 23.2511 2.6338 22.959 2.6338H22.9458C22.667 2.6338 22.4413 2.85433 22.4413 3.12676V4.7267Z" fill="white"/>
<path d="M33.4955 2.78085C33.345 3.01868 33.0264 3.08354 32.7919 2.93652C32.252 2.59491 31.805 2.56897 31.5882 2.56897C31.2828 2.56897 30.9111 2.61221 30.65 2.89328C30.504 3.03598 30.4066 3.24786 30.4066 3.48569C30.4066 3.71055 30.4774 3.87919 30.6234 4.00892C30.8536 4.2208 31.1855 4.30728 31.836 4.54511L32.5573 4.81321C32.9777 4.96888 33.4955 5.18076 33.8717 5.53102C34.4337 6.05424 34.5797 6.72881 34.5797 7.28231C34.5797 8.25524 34.2345 9.10278 33.7256 9.61303C32.8715 10.4865 31.6324 10.573 30.9952 10.573C30.3004 10.573 29.6941 10.4735 29.0878 10.1795C28.7338 10.0065 28.3444 9.73411 28.0169 9.46168C27.8178 9.29304 27.7824 9.00332 27.9372 8.79576L28.4948 8.04336C28.6674 7.80985 29.0038 7.77094 29.2295 7.95687C29.402 8.09957 29.5791 8.23362 29.7207 8.31578C30.0968 8.54064 30.4863 8.65306 30.9332 8.65306C31.2209 8.65306 31.628 8.59685 31.9466 8.32875C32.1325 8.17308 32.2918 7.91796 32.2918 7.5677C32.2918 7.25636 32.1635 7.05745 31.9599 6.88881C31.6988 6.67692 31.1058 6.46504 30.8314 6.36558L30.0349 6.09749C29.5879 5.94182 29.0657 5.7429 28.6896 5.34941C28.1851 4.82618 28.1098 4.16459 28.1098 3.71055C28.1098 2.87599 28.3709 2.17115 28.9462 1.59171C29.6366 0.912816 30.4464 0.731201 31.3404 0.731201C31.9201 0.731201 32.8096 0.817684 33.7743 1.38415C34.0133 1.52685 34.0929 1.83386 33.9425 2.06737L33.4955 2.78085Z" fill="white"/>
<path d="M38.4036 3.80132L40.6473 1.12467C40.7446 1.01224 40.8862 0.943054 41.0367 0.943054H42.4174C42.8511 0.943054 43.0812 1.43601 42.8024 1.756L39.8905 5.0856C39.7312 5.26722 39.7268 5.53531 39.8861 5.72125L43.1299 9.54813C43.4043 9.86812 43.1697 10.3568 42.7405 10.3568H41.196C41.0411 10.3568 40.8995 10.2876 40.8022 10.1751L38.3992 7.2693C38.0983 6.90607 37.5008 7.11363 37.5008 7.58064V9.86812C37.5008 10.1405 37.2751 10.3611 36.9963 10.3611H35.7838C35.505 10.3611 35.2793 10.1405 35.2793 9.86812V1.43601C35.2793 1.16359 35.505 0.943054 35.7838 0.943054H36.9963C37.2751 0.943054 37.5008 1.16359 37.5008 1.43601V3.48566C37.5097 3.94835 38.1027 4.15591 38.4036 3.80132Z" fill="white"/>
<path d="M49.0548 0.943054H47.6476C47.475 0.943054 47.3157 1.02954 47.2227 1.16791L45.8597 3.22189C45.6606 3.52458 45.2092 3.52458 45.01 3.22189L44.1515 1.92896C44.0453 1.79924 43.9435 1.78627 43.8417 1.90302L42.6513 3.1354C42.5495 3.25648 42.5628 3.40783 42.6823 3.58512L44.2356 5.84233C44.2931 5.92449 44.3197 6.01962 44.3197 6.11908V9.8638C44.3197 10.1362 44.5454 10.3568 44.8242 10.3568H46.0367C46.3155 10.3568 46.5412 10.1362 46.5412 9.8638V6.11908C46.5412 6.01962 46.5722 5.92449 46.6253 5.84233L49.462 1.71276C49.6965 1.38412 49.4575 0.943054 49.0548 0.943054Z" fill="white"/>
<path d="M5.01394 3.05327C6.53184 3.05327 7.76652 4.25972 7.76652 5.7429C7.76652 7.22609 6.53184 8.43253 5.01394 8.43253C3.49604 8.43253 2.26136 7.22609 2.26136 5.7429C2.26136 4.25972 3.49604 3.05327 5.01394 3.05327ZM5.01394 0.843628C2.24366 0.843628 0 3.0403 0 5.7429C0 8.4455 2.24366 10.6422 5.01394 10.6422C7.78422 10.6422 10.0279 8.44983 10.0279 5.7429C10.0279 3.03598 7.78422 0.843628 5.01394 0.843628Z" fill="white"/>
</svg>
