<svg width="141" height="30" viewBox="0 0 141 30" fill="none" xmlns="http://www.w3.org/2000/svg">
<path d="M53.9481 17.2611C53.9481 19.8751 53.623 23.102 50.9218 25.8786C48.3082 28.5677 45.2819 28.9804 42.4307 28.9804C39.5669 28.9804 36.5531 28.5677 33.9395 25.8786C31.2509 23.102 30.9132 19.8751 30.9132 17.2611V2.55254C30.9132 1.76458 31.551 1.12671 32.3388 1.12671H35.7653C36.5531 1.12671 37.1909 1.76458 37.1909 2.55254V17.086C37.1909 18.2742 37.2784 20.2754 38.6165 21.6637C39.717 22.8519 41.2301 23.0895 42.4182 23.0895C43.6062 23.0895 45.1068 22.8393 46.2198 21.6637C47.5704 20.2754 47.6454 18.2742 47.6454 17.086V2.55254C47.6454 1.76458 48.2832 1.12671 49.071 1.12671H52.4975C53.2853 1.12671 53.9231 1.76458 53.9231 2.55254V17.2611H53.9481Z" fill="white"/>
<path d="M66.8287 1.12671C70.2927 1.12671 72.4686 2.26487 73.7692 3.49058C74.9072 4.59123 76.1327 6.55487 76.1327 9.56912C76.1327 11.2826 75.7701 13.4089 74.0068 15.1224C73.4316 15.6727 72.7188 16.1855 71.9059 16.5857C71.0931 16.9859 70.8179 18.0115 71.3682 18.737L76.8705 26.0662C77.5833 27.0043 76.9081 28.3551 75.7326 28.3551H71.6683C71.1931 28.3551 70.7554 28.1174 70.4928 27.7297L66.1784 21.426C65.3906 20.2628 63.5648 20.8257 63.5648 22.239V26.9292C63.5648 27.7172 62.927 28.3551 62.1392 28.3551H58.7127C57.9249 28.3551 57.2871 27.7172 57.2871 26.9292V2.55254C57.2871 1.76458 57.9249 1.12671 58.7127 1.12671H66.8287ZM63.5648 12.0706C63.5648 12.8585 64.2026 13.4964 64.9904 13.4964C66.1284 13.4964 67.6791 13.3713 68.742 12.3082C69.1922 11.858 69.7675 11.0075 69.7675 9.65667C69.7675 8.10577 69.0297 7.2928 68.5044 6.88006C67.479 6.10461 65.8533 6.01706 65.0279 6.01706H64.9904C64.2026 6.01706 63.5648 6.65493 63.5648 7.44288V12.0706Z" fill="white"/>
<path d="M94.8032 6.44237C94.378 7.13027 93.4776 7.31787 92.8149 6.89263C91.2892 5.90455 90.0262 5.82951 89.4134 5.82951C88.5505 5.82951 87.5001 5.95458 86.7623 6.76755C86.3496 7.18029 86.0745 7.79315 86.0745 8.48105C86.0745 9.13143 86.2745 9.61922 86.6872 9.99443C87.3375 10.6073 88.2754 10.8574 90.1137 11.5453L92.1521 12.3208C93.3401 12.771 94.8032 13.3839 95.8662 14.397C97.4544 15.9104 97.867 17.8615 97.867 19.4624C97.867 22.2766 96.8916 24.728 95.4535 26.2039C93.04 28.7303 89.5385 28.9805 87.7377 28.9805C85.7743 28.9805 84.0611 28.6928 82.3479 27.8423C81.3474 27.342 80.2469 26.5541 79.3216 25.7661C78.7588 25.2783 78.6588 24.4403 79.0965 23.84L80.6721 21.6637C81.1598 20.9883 82.1103 20.8758 82.748 21.4136C83.2357 21.8263 83.736 22.214 84.1361 22.4517C85.1991 23.1021 86.2996 23.4272 87.5626 23.4272C88.3755 23.4272 89.5259 23.2647 90.4263 22.4892C90.9516 22.0389 91.4018 21.301 91.4018 20.2879C91.4018 19.3874 91.0391 18.8121 90.4639 18.3243C89.726 17.7114 88.0503 17.0986 87.275 16.8109L85.024 16.0354C83.761 15.5852 82.2853 15.0099 81.2224 13.8717C79.7968 12.3583 79.5842 10.4447 79.5842 9.13143C79.5842 6.71753 80.322 4.67884 81.9477 3.00286C83.8985 1.03922 86.187 0.513916 88.7131 0.513916C90.3513 0.513916 92.8649 0.764062 95.5911 2.40252C96.2663 2.81526 96.4914 3.70327 96.0663 4.37866L94.8032 6.44237Z" fill="white"/>
<path d="M108.672 9.39402L115.012 1.65201C115.287 1.32683 115.687 1.12671 116.112 1.12671H120.014C121.24 1.12671 121.89 2.55254 121.102 3.47808L112.874 13.1087C112.423 13.634 112.411 14.4094 112.861 14.9473L122.027 26.0162C122.803 26.9417 122.14 28.3551 120.927 28.3551H116.563C116.125 28.3551 115.725 28.1549 115.45 27.8298L108.659 19.4249C107.809 18.3742 106.121 18.9746 106.121 20.3254V26.9417C106.121 27.7297 105.483 28.3676 104.695 28.3676H101.269C100.481 28.3676 99.8429 27.7297 99.8429 26.9417V2.55254C99.8429 1.76458 100.481 1.12671 101.269 1.12671H104.695C105.483 1.12671 106.121 1.76458 106.121 2.55254V8.48099C106.146 9.81927 107.821 10.4196 108.672 9.39402Z" fill="white"/>
<path d="M138.772 1.12671H134.796C134.308 1.12671 133.858 1.37685 133.595 1.77709L129.743 7.71804C129.181 8.59355 127.905 8.59355 127.342 7.71804L124.916 3.97837C124.616 3.60315 124.329 3.56563 124.041 3.90333L120.677 7.4679C120.389 7.8181 120.427 8.25586 120.764 8.76866L125.154 15.2975C125.316 15.5351 125.391 15.8103 125.391 16.0979V26.9292C125.391 27.7172 126.029 28.3551 126.817 28.3551H130.244C131.031 28.3551 131.669 27.7172 131.669 26.9292V16.0979C131.669 15.8103 131.757 15.5351 131.907 15.2975L139.923 3.353C140.586 2.40245 139.91 1.12671 138.772 1.12671Z" fill="white"/>
<path d="M14.3186 7.23033C18.608 7.23033 22.097 10.7199 22.097 15.0099C22.097 19.2999 18.608 22.7894 14.3186 22.7894C10.0293 22.7894 6.54027 19.2999 6.54027 15.0099C6.54027 10.7199 10.0293 7.23033 14.3186 7.23033ZM14.3186 0.839111C6.49025 0.839111 0.150024 7.19281 0.150024 15.0099C0.150024 22.8269 6.49025 29.1806 14.3186 29.1806C22.147 29.1806 28.4872 22.8394 28.4872 15.0099C28.4872 7.1803 22.147 0.839111 14.3186 0.839111Z" fill="white"/>
</svg>
