<svg width="40" height="41" viewBox="0 0 40 41" fill="none" xmlns="http://www.w3.org/2000/svg">
<path d="M40 20.5C40 30.7344 32.2656 39.1719 22.4219 40.4219V26.6719H27.8125L28.9062 20.5H22.4219V18.3906C22.4219 15.1094 23.6719 13.8594 26.9531 13.8594C27.9688 13.8594 28.75 13.9375 29.2188 13.9375V8.46875C28.3594 8.15625 26.1719 7.92188 24.9219 7.92188C18.2031 7.92188 15.1562 11.125 15.1562 17.9219V20.5H11.0156V26.6719H15.1562V39.9531C6.40625 37.7656 0 29.875 0 20.5C0 9.48438 8.90625 0.5 20 0.5C31.0156 0.5 40 9.48438 40 20.5Z" fill="black"/>
</svg>
