<svg width="36" height="35" viewBox="0 0 36 35" fill="none" xmlns="http://www.w3.org/2000/svg">
<path d="M33 0C34.3281 0 35.5 1.17188 35.5 2.57812V32.5C35.5 33.9062 34.3281 35 33 35H2.92188C1.59375 35 0.5 33.9062 0.5 32.5V2.57812C0.5 1.17188 1.59375 0 2.92188 0H33ZM11.0469 30V13.3594H5.89062V30H11.0469ZM8.46875 11.0156C10.1094 11.0156 11.4375 9.6875 11.4375 8.04688C11.4375 6.40625 10.1094 5 8.46875 5C6.75 5 5.42188 6.40625 5.42188 8.04688C5.42188 9.6875 6.75 11.0156 8.46875 11.0156ZM30.5 30V20.8594C30.5 16.4062 29.4844 12.8906 24.25 12.8906C21.75 12.8906 20.0312 14.2969 19.3281 15.625H19.25V13.3594H14.3281V30H19.4844V21.7969C19.4844 19.6094 19.875 17.5 22.6094 17.5C25.2656 17.5 25.2656 20 25.2656 21.875V30H30.5Z" fill="black"/>
</svg>
