<svg width="36" height="35" viewBox="0 0 36 35" fill="none" xmlns="http://www.w3.org/2000/svg">
<path d="M5.5 0H30.5C33.2344 0 35.5 2.26562 35.5 5V30C35.5 32.8125 33.2344 35 30.5 35H5.5C2.6875 35 0.5 32.8125 0.5 30V5C0.5 2.26562 2.6875 0 5.5 0ZM28.7031 6.5625H24.9531L18.8594 13.5938L13.5469 6.5625H5.89062L15.0312 18.5938L6.35938 28.4375H10.1094L16.8281 20.8594L22.6094 28.4375H30.1094L20.5781 15.8594L28.7031 6.5625ZM25.7344 26.25H23.625L10.2656 8.67188H12.4531L25.7344 26.25Z" fill="black"/>
</svg>
